<?xml version="1.0" encoding="utf-8"?>
<!-- Generator: Adobe Illustrator 16.0.0, SVG Export Plug-In . SVG Version: 6.00 Build 0)  -->
<!DOCTYPE svg PUBLIC "-//W3C//DTD SVG 1.1//EN" "http://www.w3.org/Graphics/SVG/1.1/DTD/svg11.dtd">
<svg version="1.1" id="Ebene_1" xmlns="http://www.w3.org/2000/svg" xmlns:xlink="http://www.w3.org/1999/xlink" x="0px" y="0px"
	 width="59.131px" height="60.711px" viewBox="0 0 59.131 60.711" enable-background="new 0 0 59.131 60.711" xml:space="preserve">
<g>
	<path fill="#1D1D1B" d="M55.748,27.779c2.61,5.66,0.11,8.609-3.939,9.729c-1.671,6.44-2.881,12.97-5.33,19.181
		c-0.271,0.67-0.95,0.859-1.49,0.68c-0.11,0.07-0.23,0.13-0.391,0.17c-9.329,2.24-23.01,3.25-31.59-1.79
		c-0.12-0.08-0.199-0.18-0.229-0.29c-0.11-0.07-0.2-0.16-0.26-0.3c-1.28-3.01-2.15-6.021-3.12-9.141
		c-0.58-1.869-1.101-3.819-2.021-5.569c-0.41-0.78-1.04-2.4-1.76-3.23c-0.82-0.06-1.65-0.13-2.47-0.21
		c-0.4-0.05-0.761-0.25-0.87-0.66c-0.95-3.58-0.74-8.18,3.569-9.109c0.221-0.04,0.381,0.05,0.461,0.189
		c2.859-0.58,5.84-0.83,8.84-0.96c-2.311-1.74-4.4-4.09-4.87-7.02c-0.21-1.36-0.09-2.86,0.47-4.16c-3.26,0.92-5.979-0.47-7.63-3.64
		c-0.23-0.45,0.06-1,0.59-1.021c1.18-0.02,2.39-0.27,3.561-0.15c-0.98-3.119-1.931-9.34,2.68-9.09c4.689,0.25,5.64,6.96,5.09,10.54
		c3.17-0.529,6.3,1.96,8.36,4.84c-0.23-2.569-0.48-5.149-0.761-7.71c-0.05-0.38,0.271-0.659,0.58-0.77
		c2.771-1.061,4.98-1.03,7.761-0.01c0.34,0.12,0.59,0.39,0.59,0.779c0,0.66,0,1.33-0.01,2c0.189-1.489,0.569-3.52,2.21-4.05
		c2.13-0.7,3.729,0.88,5.81-0.14c3.92-1.92,6.91,0.56,7.66,4.18c1.37,0.021,2.64,0.2,3.359,1.561c0.381,0.739,0.36,1.869,0.29,2.649
		c-0.04,0.42,2.301,1.34,2.671,1.62c2.96,2.16,1.72,6.68-0.83,8.65c0.84,0.22,1.68,0.47,2.479,0.8c0.521,0.21,0.67,0.87,0.41,1.26
		C55.668,27.649,55.718,27.699,55.748,27.779z M48.838,36.048c5.351-0.2,6.21-2.6,5.311-7.6c-0.04-0.21,0.01-0.42,0.109-0.59
		c-7.609-0.271-15.35-0.25-22.939-0.891c-0.04,0-0.07-0.02-0.11-0.029c-0.06,2.3-0.12,4.609-0.14,6.909c0,0.57-0.55,1-1.11,0.851
		c-1.04-0.16-2.09-0.311-3.14-0.471c-0.32,0-0.55-0.14-0.7-0.34c0,0.181,0,0.351,0,0.53c0,0.47-0.78,0.61-0.85,0.11
		c-0.301-2.17-0.561-4.34-0.801-6.521c-6.08,1.601-12.84,0.311-19.069,0.8c-0.03,0-0.061-0.01-0.09-0.01
		c-1.551,1.58-2.271,3.62-1.62,5.93c0.31,1.11,4.25,0.83,5.01,0.86c3.59,0.14,7.189,0.21,10.79,0.14
		c6.149-0.109,12.54-1.069,18.67-0.539C41.688,35.499,45.278,36.178,48.838,36.048z M51.098,24.888c2.48-2.97,3.79-6.8-1.409-7.68
		c-0.341-0.06-0.66-0.48-0.63-0.83c0.22-2.09-0.131-3.66-2.521-3.68c-0.46,0-0.81-0.37-0.82-0.83c-0.159-4.63-4.189-4.71-7.29-2.8
		c-0.199,0.13-0.479,0.12-0.68,0c-2.51-1.5-4.79-0.24-5.52,2.34c-0.08,0.31-0.551,0.319-0.67,0.069
		c-0.011,1.261-0.021,2.511-0.051,3.761c0.48-1.061,1.23-1.98,2.34-2.521c2.11-1.04,3.36,0.931,3.971,2.74
		c0.96-1.14,2.26-2.31,3.64-1.85c1.54,0.52,2.24,1.85,2.74,3.279c2.08-0.89,4.36-0.56,5.41,1.811c1.01,2.279-0.2,4.67-2.021,6.1
		c1.141,0.05,2.26,0.18,3.36,0.36C50.979,25.069,51.028,24.968,51.098,24.888z M45.559,24.119c1.38-0.9,3.149-2.4,2.609-4.311
		c-0.6-2.109-2.37-1.949-4.03-1.02c-0.46,0.26-1.079,0.03-1.21-0.5c-0.21-0.78-0.989-4.2-2.77-3c-0.9,0.6-1.49,1.3-2.15,2.14
		c-0.31,0.391-1.06,0.181-1.149-0.3c-0.34-1.91-1.73-4.86-3.71-2.39c-1.03,1.279-1.45,2.83-1.49,4.46
		c-0.01,0.149-0.12,0.26-0.24,0.3c-0.06,2.21-0.13,4.41-0.189,6.61c0.029-0.011,0.06-0.021,0.09-0.021
		c4.26-0.439,9.13-1.26,13.859-1.33C45.188,24.529,45.298,24.298,45.559,24.119z M50.708,37.768c-1.68,0.32-3.55,0.37-5.399,0.2
		c-12.78-1.13-25.521,0.17-38.311-0.66c0.48,0.28,0.93,0.61,1.48,1.311c0.96,1.22,1.59,2.77,2.14,4.21
		c1.46,3.79,1.99,7.91,3.53,11.64c0.06,0.15,0.06,0.29,0.029,0.42c9.96,2.11,19.74,1.75,29.79,0.37c0.23-0.04,0.44,0,0.63,0.061
		C46.448,49.399,48.269,43.478,50.708,37.768z M29.648,19.468c0.149-3.609,2.359-12.87-4.59-10.189
		c-1.721,0.66,0.489,10.87,0.6,12.46c0.25,3.64,0.42,7.27,0.45,10.91c0.149-0.19,0.38-0.32,0.71-0.301
		c1.54,0.101,1.68,0.07,2.52,0.32C29.358,28.268,29.479,23.869,29.648,19.468z M24.288,26.218c-0.2-1.95-0.38-3.899-0.56-5.85
		c-1.46-2.45-2.881-5.16-5.62-6.391c-1.61-0.729-3.58-0.729-4.891,0.601c-3.67,3.7,0.141,9.07,3.261,11.58
		c0.09,0.069,0.13,0.16,0.149,0.25C19.208,26.329,21.788,26.308,24.288,26.218z M13.928,12.239c-0.08-0.101-0.14-0.221-0.149-0.37
		c-0.061-2.32,0.09-9.22-3.83-9.101c-3.811,0.12-1.9,6.54-1.14,8.381c0.17,0.42-0.341,0.89-0.75,0.75
		c-1.04-0.36-2.12-0.2-3.19-0.051c1.51,2.11,3.65,3.03,6.34,2.591c0.28-0.44,0.62-0.841,1.03-1.181
		C12.788,12.798,13.358,12.468,13.928,12.239z"/>
	<path fill="#FBBE3A" d="M54.148,28.449c0.899,5,0.04,7.399-5.311,7.6c-3.56,0.13-7.149-0.55-10.68-0.859
		c-6.13-0.53-12.521,0.43-18.67,0.539c-3.601,0.07-7.2,0-10.79-0.14c-0.76-0.03-4.7,0.25-5.01-0.86c-0.65-2.31,0.069-4.35,1.62-5.93
		c0.029,0,0.06,0.01,0.09,0.01c6.229-0.489,12.989,0.801,19.069-0.8c0.24,2.181,0.5,4.351,0.801,6.521
		c0.069,0.5,0.85,0.359,0.85-0.11c0-0.18,0-0.35,0-0.53c0.15,0.2,0.38,0.34,0.7,0.34c1.05,0.16,2.1,0.311,3.14,0.471
		c0.561,0.149,1.11-0.28,1.11-0.851c0.02-2.3,0.08-4.609,0.14-6.909c0.04,0.01,0.07,0.029,0.11,0.029
		c7.59,0.641,15.33,0.62,22.939,0.891C54.158,28.029,54.108,28.239,54.148,28.449z"/>
	<path fill="#99B815" d="M49.688,17.208c5.199,0.88,3.89,4.71,1.409,7.68c-0.069,0.08-0.119,0.181-0.149,0.271
		c-1.101-0.181-2.22-0.311-3.36-0.36c1.82-1.43,3.03-3.82,2.021-6.1c-1.05-2.37-3.33-2.7-5.41-1.811c-0.5-1.43-1.2-2.76-2.74-3.279
		c-1.38-0.46-2.68,0.71-3.64,1.85c-0.61-1.81-1.86-3.78-3.971-2.74c-1.109,0.54-1.859,1.46-2.34,2.521
		c0.03-1.25,0.04-2.5,0.051-3.761c0.119,0.25,0.59,0.24,0.67-0.069c0.729-2.58,3.01-3.84,5.52-2.34c0.2,0.12,0.48,0.13,0.68,0
		c3.101-1.91,7.131-1.83,7.29,2.8c0.011,0.46,0.36,0.83,0.82,0.83c2.39,0.02,2.74,1.59,2.521,3.68
		C49.028,16.728,49.348,17.149,49.688,17.208z"/>
	<path fill="#99B815" d="M48.168,19.808c0.54,1.91-1.229,3.41-2.609,4.311c-0.261,0.18-0.37,0.41-0.381,0.64
		c-4.729,0.07-9.6,0.891-13.859,1.33c-0.03,0-0.061,0.01-0.09,0.021c0.06-2.2,0.13-4.4,0.189-6.61c0.12-0.04,0.23-0.15,0.24-0.3
		c0.04-1.63,0.46-3.181,1.49-4.46c1.979-2.471,3.37,0.479,3.71,2.39c0.09,0.48,0.84,0.69,1.149,0.3c0.66-0.84,1.25-1.54,2.15-2.14
		c1.78-1.2,2.56,2.22,2.77,3c0.131,0.53,0.75,0.76,1.21,0.5C45.798,17.859,47.568,17.699,48.168,19.808z"/>
	<path fill="#FBBE3A" d="M45.309,37.968c1.85,0.17,3.72,0.12,5.399-0.2c-2.439,5.71-4.26,11.631-6.11,17.551
		c-0.189-0.061-0.399-0.101-0.63-0.061c-10.05,1.38-19.83,1.74-29.79-0.37c0.03-0.13,0.03-0.27-0.029-0.42
		c-1.54-3.729-2.07-7.85-3.53-11.64c-0.55-1.44-1.18-2.99-2.14-4.21c-0.551-0.7-1-1.03-1.48-1.311
		C19.788,38.138,32.528,36.838,45.309,37.968z M44.678,39.878c0.431-0.54-0.27-1.29-0.779-0.78c-0.931,0.92-1.86,1.891-2.801,2.87
		c-1.029-0.87-2.14-1.67-3.25-2.479c-0.59-0.431-1.369,0.569-0.789,1.02c1.039,0.811,2.06,1.63,3.05,2.49
		c-1.25,1.28-2.521,2.55-3.851,3.74c-0.18-0.15-0.359-0.3-0.529-0.46c-1.101-0.971-2.19-1.95-3.28-2.931
		c0.27-0.21,0.53-0.43,0.81-0.63c0.48-0.359,0.04-1.16-0.479-0.819c-0.38,0.239-0.74,0.5-1.101,0.76c-1.119-1-2.229-2-3.359-2.98
		c-0.51-0.45-1.26,0.28-0.75,0.75c1.05,0.971,2.1,1.95,3.14,2.931c-1.43,1.08-2.79,2.26-4.149,3.449
		c-1.45-1.26-2.921-2.479-4.41-3.67c1.01-0.779,2.05-1.529,3.16-2.21c0.399-0.25,0.05-0.8-0.37-0.62
		c-1.311,0.57-2.5,1.32-3.61,2.181c-1.21-0.94-2.43-1.851-3.66-2.73c-0.08-0.109-0.18-0.2-0.31-0.229c-0.17-0.12-0.33-0.25-0.5-0.36
		c-0.351-0.25-0.79,0.32-0.45,0.59c0.03,0.021,0.05,0.05,0.09,0.07c-1,0.56-1.95,1.2-2.47,2.25c-0.26,0.52,0.479,0.96,0.78,0.46
		c0.569-1,1.6-1.49,2.6-1.95c1.02,0.84,2.03,1.72,3.01,2.63c-1.33,1.12-2.56,2.38-3.77,3.62c-0.5-0.439-1.011-0.87-1.5-1.32
		c-0.23-0.21-0.551,0.11-0.34,0.341c0.439,0.489,0.89,0.989,1.34,1.5c-0.101,0.1-0.2,0.21-0.311,0.319
		c-0.33,0.351,0.19,0.87,0.53,0.53c0.1-0.09,0.2-0.18,0.3-0.28c1.17,1.32,2.391,2.641,3.7,3.83c-0.521,0.351-1.05,0.681-1.6,0.99
		c-0.301,0.17-0.091,0.7,0.239,0.56c0.7-0.279,1.37-0.6,2.021-0.96c0.7,0.601,1.41,1.15,2.17,1.63c0.45,0.29,0.93-0.359,0.56-0.729
		c-0.52-0.53-1.069-1.04-1.609-1.55c1.399-0.87,2.71-1.9,3.989-2.971c0.98,0.94,1.96,1.86,2.971,2.75
		c-0.59,0.25-1.19,0.48-1.811,0.671c-0.399,0.109-0.229,0.68,0.16,0.609c0.811-0.149,1.601-0.38,2.38-0.66
		c1.29,1.11,2.61,2.16,4.01,3.101c0.561,0.38,1.15-0.44,0.7-0.9c-0.96-0.979-1.96-1.95-2.97-2.92c1.6-0.76,3.14-1.74,4.6-2.86
		c0.851,0.811,1.7,1.631,2.591,2.4c-0.181,0.24-0.37,0.47-0.54,0.72c-0.341,0.54,0.479,0.98,0.84,0.49
		c0.149-0.189,0.3-0.38,0.46-0.57c0.89,0.73,1.81,1.391,2.78,1.94c0.569,0.31,1.109-0.41,0.68-0.88c-0.72-0.78-1.51-1.51-2.33-2.22
		c0.87-0.851,1.77-1.681,2.4-2.75c0.31-0.511-0.461-1.141-0.851-0.65c-0.74,0.94-1.6,1.79-2.399,2.67
		c-0.83-0.69-1.681-1.37-2.511-2.05c1.37-1.141,2.66-2.391,3.86-3.67c0.74,0.689,1.47,1.399,2.15,2.16
		c0.439,0.5,1.289-0.16,0.92-0.721c-0.61-0.93-1.33-1.75-2.11-2.5C43.028,41.869,43.888,40.859,44.678,39.878z"/>
	<path fill="#1D1D1B" d="M43.898,39.098c0.51-0.51,1.21,0.24,0.779,0.78c-0.79,0.98-1.649,1.99-2.56,3.01
		c0.78,0.75,1.5,1.57,2.11,2.5c0.369,0.561-0.48,1.221-0.92,0.721c-0.681-0.761-1.41-1.471-2.15-2.16
		c-1.2,1.279-2.49,2.529-3.86,3.67c0.83,0.68,1.681,1.359,2.511,2.05c0.8-0.88,1.659-1.729,2.399-2.67
		c0.39-0.49,1.16,0.14,0.851,0.65c-0.631,1.069-1.53,1.899-2.4,2.75c0.82,0.71,1.61,1.439,2.33,2.22c0.43,0.47-0.11,1.189-0.68,0.88
		c-0.971-0.55-1.891-1.21-2.78-1.94c-0.16,0.19-0.311,0.381-0.46,0.57c-0.36,0.49-1.181,0.05-0.84-0.49
		c0.17-0.25,0.359-0.479,0.54-0.72c-0.891-0.77-1.74-1.59-2.591-2.4c-1.46,1.12-3,2.101-4.6,2.86c1.01,0.97,2.01,1.94,2.97,2.92
		c0.45,0.46-0.14,1.28-0.7,0.9c-1.399-0.94-2.72-1.99-4.01-3.101c-0.779,0.28-1.569,0.511-2.38,0.66c-0.39,0.07-0.56-0.5-0.16-0.609
		c0.62-0.19,1.221-0.421,1.811-0.671c-1.011-0.89-1.99-1.81-2.971-2.75c-1.279,1.07-2.59,2.101-3.989,2.971
		c0.54,0.51,1.09,1.02,1.609,1.55c0.37,0.37-0.109,1.02-0.56,0.729c-0.76-0.479-1.47-1.029-2.17-1.63
		c-0.65,0.36-1.32,0.681-2.021,0.96c-0.33,0.141-0.54-0.39-0.239-0.56c0.55-0.31,1.079-0.64,1.6-0.99
		c-1.31-1.189-2.53-2.51-3.7-3.83c-0.1,0.101-0.2,0.19-0.3,0.28c-0.34,0.34-0.86-0.18-0.53-0.53c0.11-0.109,0.21-0.22,0.311-0.319
		c-0.45-0.511-0.9-1.011-1.34-1.5c-0.211-0.23,0.109-0.551,0.34-0.341c0.489,0.45,1,0.881,1.5,1.32c1.21-1.24,2.439-2.5,3.77-3.62
		c-0.979-0.91-1.99-1.79-3.01-2.63c-1,0.46-2.03,0.95-2.6,1.95c-0.301,0.5-1.04,0.06-0.78-0.46c0.52-1.05,1.47-1.69,2.47-2.25
		c-0.04-0.021-0.06-0.05-0.09-0.07c-0.34-0.27,0.1-0.84,0.45-0.59c0.17,0.11,0.33,0.24,0.5,0.36c0.13,0.029,0.229,0.12,0.31,0.229
		c1.23,0.88,2.45,1.79,3.66,2.73c1.11-0.86,2.3-1.61,3.61-2.181c0.42-0.18,0.77,0.37,0.37,0.62c-1.11,0.681-2.15,1.431-3.16,2.21
		c1.489,1.19,2.96,2.41,4.41,3.67c1.359-1.189,2.72-2.369,4.149-3.449c-1.04-0.98-2.09-1.96-3.14-2.931
		c-0.51-0.47,0.24-1.2,0.75-0.75c1.13,0.98,2.24,1.98,3.359,2.98c0.36-0.26,0.721-0.521,1.101-0.76
		c0.52-0.341,0.96,0.46,0.479,0.819c-0.279,0.2-0.54,0.42-0.81,0.63c1.09,0.98,2.18,1.96,3.28,2.931c0.17,0.16,0.35,0.31,0.529,0.46
		c1.33-1.19,2.601-2.46,3.851-3.74c-0.99-0.86-2.011-1.68-3.05-2.49c-0.58-0.45,0.199-1.45,0.789-1.02
		c1.11,0.81,2.221,1.609,3.25,2.479C42.038,40.989,42.968,40.018,43.898,39.098z M35.229,47.609c-0.141-0.141-0.28-0.271-0.42-0.4
		c-1.101-1.04-2.2-2.08-3.311-3.11c-1.36,1.12-2.689,2.32-4.03,3.5c1.141,1,2.261,2.03,3.36,3.061
		C32.388,49.819,33.838,48.758,35.229,47.609z M25.288,47.909c-1.38-1.33-2.75-2.681-4.14-4c-1.34,1.1-2.63,2.26-3.9,3.47
		c1.4,1.21,2.811,2.41,4.18,3.65C22.769,50.058,24.038,48.999,25.288,47.909z"/>
	<path fill="#FBBE3A" d="M34.809,47.208c0.14,0.13,0.279,0.26,0.42,0.4c-1.391,1.149-2.841,2.21-4.4,3.05
		c-1.1-1.03-2.22-2.061-3.36-3.061c1.341-1.18,2.67-2.38,4.03-3.5C32.608,45.128,33.708,46.168,34.809,47.208z"/>
	<path fill="#FBBE3A" d="M25.059,9.279c6.949-2.681,4.739,6.58,4.59,10.189c-0.17,4.4-0.29,8.8-0.311,13.2
		c-0.84-0.25-0.979-0.22-2.52-0.32c-0.33-0.02-0.561,0.11-0.71,0.301c-0.03-3.641-0.2-7.271-0.45-10.91
		C25.548,20.149,23.338,9.939,25.059,9.279z"/>
	<path fill="#EC7724" d="M23.729,20.369c0.18,1.95,0.359,3.899,0.56,5.85c-2.5,0.09-5.08,0.11-7.66,0.19
		c-0.02-0.09-0.06-0.181-0.149-0.25c-3.12-2.51-6.931-7.88-3.261-11.58c1.311-1.33,3.28-1.33,4.891-0.601
		C20.848,15.208,22.269,17.918,23.729,20.369z M20.858,23.388c0.3-0.33-0.15-0.76-0.49-0.489c-0.81,0.67-1.83,1.14-2.76,1.619
		c-0.42,0.221-0.05,0.841,0.37,0.631C18.988,24.668,20.088,24.228,20.858,23.388z M18.598,20.728c0.471-0.35,0.051-1.13-0.47-0.81
		c-1.64,1.021-3.069,2.28-3.06,4.35c0,0.62,0.91,0.61,0.95,0C16.118,22.689,17.408,21.609,18.598,20.728z M15.848,18.249
		c0.181-0.41-0.369-0.76-0.619-0.36c-0.74,1.25-1.69,2.62-1.721,4.13c-0.01,0.44,0.65,0.431,0.69,0
		C14.298,20.678,15.328,19.458,15.848,18.249z"/>
	<path fill="#FBBE3A" d="M21.148,43.909c1.39,1.319,2.76,2.67,4.14,4c-1.25,1.09-2.52,2.149-3.86,3.12
		c-1.369-1.24-2.779-2.44-4.18-3.65C18.519,46.168,19.809,45.008,21.148,43.909z"/>
	<path fill="#1D1D1B" d="M20.368,22.899c0.34-0.271,0.79,0.159,0.49,0.489c-0.771,0.84-1.87,1.28-2.88,1.761
		c-0.42,0.21-0.79-0.41-0.37-0.631C18.538,24.039,19.559,23.569,20.368,22.899z"/>
	<path fill="#1D1D1B" d="M18.128,19.918c0.521-0.32,0.94,0.46,0.47,0.81c-1.189,0.881-2.479,1.961-2.579,3.54
		c-0.04,0.61-0.95,0.62-0.95,0C15.059,22.199,16.488,20.939,18.128,19.918z"/>
	<path fill="#1D1D1B" d="M15.229,17.888c0.25-0.399,0.8-0.05,0.619,0.36c-0.52,1.21-1.55,2.43-1.649,3.77
		c-0.04,0.431-0.7,0.44-0.69,0C13.538,20.508,14.488,19.138,15.229,17.888z"/>
	<path fill="#99B815" d="M13.778,11.869c0.01,0.149,0.069,0.27,0.149,0.37c-0.569,0.229-1.14,0.56-1.689,1.02
		c-0.41,0.34-0.75,0.74-1.03,1.181c-2.689,0.439-4.83-0.48-6.34-2.591c1.07-0.149,2.15-0.31,3.19,0.051
		c0.409,0.14,0.92-0.33,0.75-0.75c-0.761-1.841-2.671-8.261,1.14-8.381C13.868,2.649,13.718,9.548,13.778,11.869z"/>
</g>
<g>
</g>
<g>
</g>
<g>
</g>
<g>
</g>
<g>
</g>
<g>
</g>
<g>
</g>
<g>
</g>
<g>
</g>
<g>
</g>
<g>
</g>
</svg>
