<?xml version="1.0" encoding="utf-8"?>
<!-- Generator: Adobe Illustrator 16.0.0, SVG Export Plug-In . SVG Version: 6.00 Build 0)  -->
<!DOCTYPE svg PUBLIC "-//W3C//DTD SVG 1.1//EN" "http://www.w3.org/Graphics/SVG/1.1/DTD/svg11.dtd">
<svg version="1.1" id="Ebene_1" xmlns="http://www.w3.org/2000/svg" xmlns:xlink="http://www.w3.org/1999/xlink" x="0px" y="0px"
	 width="45.667px" height="51.583px" viewBox="6.71 -7.351 45.667 51.583" enable-background="new 6.71 -7.351 45.667 51.583"
	 xml:space="preserve">
<g>
	<path fill="#F6F6F6" d="M15.418,12.93c0,0,0.458-2.188-0.662-3.461s-3.716-1.374-4.529-0.764c-0.814,0.61-0.764,1.476-0.764,1.476
		s-1.374,2.24-0.967,3.054c0.406,0.814,2.9,2.138,2.9,2.138s-0.203,4.072,1.323,4.887c1.527,0.814,4.887,1.374,4.887,1.374
		s1.374,2.646,3.206,3.308c1.832,0.662,5.548,0.662,5.548,0.662s1.577,2.697,2.646,2.494c1.068-0.204,2.748-2.291,3.104-3.359
		s0.306-3.258-0.458-3.716s-3.359-0.458-3.359-0.458s-2.087-3.003-3.206-2.951c-1.12,0.051-3.054,1.119-3.054,1.119
		S20.1,16.95,19.031,16.95c-1.069,0-1.069-1.476-1.477-2.087C17.148,14.253,15.418,12.93,15.418,12.93z"/>
	<path fill="#FCDA7A" d="M32.569,20.259c0,0,11.248-14.455,12.521-20.613s-1.476-5.344-4.275-3.919
		C38.016-2.849,24.375,5.447,21.22,6.415c-3.155,0.967-7.228,2.138-7.228,2.138s1.018,0.763,1.171,1.984
		c0.152,1.222,0.255,2.393,0.255,2.393s2.392,1.68,2.544,2.493c0.153,0.814,0.255,1.527,0.255,1.527s2.596,2.036,3.767,1.527
		c1.17-0.51,1.628-1.375,2.29-1.222c0.662,0.152,3.309,2.545,3.309,2.545l1.17,0.865c0,0,1.884-0.356,2.443,0
		C31.755,21.021,32.315,21.378,32.569,20.259z"/>
	<path fill="#1D1D1B" d="M47.23-4.16c1.76,7.93,5.84,15.101,1.989,23.11c-3.96,8.22-10.25,14.81-15.62,22.08
		C33.41,41.29,33.15,41.39,32.9,41.39C27.46,45.11,15.75,42.99,12.81,36.8c-0.42,0.19-0.93,0.08-1.02-0.5
		c-1.18-7.18-2.04-14.38-3.62-21.5c-0.06-0.27,0.07-0.45,0.24-0.52C8.36,14.19,8.3,14.1,8.25,14c-0.56-1.21,0.28-2.65,0.95-3.7
		c-0.12,0.08-0.24,0.16-0.36,0.23C8.48,10.75,8.01,10.31,8.25,9.95c1.13-1.67,3.8-2.641,5.69-1.76c1.8,0.84,2.1,2.649,1.699,4.409
		c0.021,0.021,0.051,0.03,0.07,0.061c0.81,1.03,2.05,1.55,2.62,2.76c0.189,0.41,0.1,1.07,0.6,1.3c0.87,0.42,1.75,0.891,2.67,1.19
		c0.931,0.3,2.181-1.03,3.48-0.72c1.11,0.26,2.13,1.619,2.96,2.3c0.31,0.26-0.11,0.81-0.44,0.569c-0.729-0.56-1.88-1.88-2.76-2.01
		c-1.45-0.2-1.76,1.26-2.84,1.09c-1.38-0.22-2.85-1.1-4.04-1.8c-0.13-0.08-0.24-0.25-0.229-0.41c0.189-2.189-1.61-2.3-2.671-3.62
		c-0.239-0.3-0.05-0.67,0.21-0.779C15.37,11,14.81,9.24,13.07,8.94c-1.261-0.21-2.2,0.29-3.15,0.899
		c0.17,0.09,0.271,0.29,0.16,0.521C9.69,11.12,9.12,12.1,9.19,13.01c0.09,1.271,1.42,1.471,2.399,1.66
		c0.24,0.05,0.46,0.33,0.43,0.57c-0.17,1.479-0.25,3.41,1.04,4.47c1.25,1.021,2.671,0.9,4.12,1.33c0.08,0.03,0.141,0.08,0.181,0.13
		c0-0.1-0.011-0.189-0.011-0.3c-0.01-0.33,0.48-0.39,0.57-0.07c0.94,3.44,4.79,4.49,8.03,4.05c0.24-0.029,0.49,0.021,0.62,0.25
		c0.529,1.011,1.59,2.92,3.04,2.311c0.3-0.12,0.56-0.33,0.79-0.57c0.02-0.49,0.029-0.97,0.06-1.46c0.04-0.61,0.63-0.8,1.03-0.58
		c0.27-0.92,0.47-2.17-0.08-3.01c-0.771-1.17-2.37-0.63-3.5-0.44c-0.521,0.091-0.891-0.609-0.38-0.899
		c1.279-0.71,3.149-1,4.359-0.061c2.07-4.149,5.721-7.68,8.19-11.609C41.32,6.81,48.25-5.79,42.31-3.96
		C32.79-1.04,25.61,7.02,15.52,8.39C14.9,8.48,14.61,7.59,15.25,7.43C26.31,4.63,34.15-5.68,45.82-6.66
		c0.62-0.06,0.979,0.521,1.05,1.04c0.04,0.34,0.07,0.68,0.09,1.021C47.08-4.5,47.18-4.36,47.23-4.16z M48.57,9.24
		c0.01-0.021,0.02-0.021,0.02-0.03c-0.07-0.729-0.2-1.47-0.39-2.24c-0.08-0.319-0.17-0.63-0.26-0.95
		c-5.58,7.36-10.21,15.4-15.811,22.721c0.07,0.95,0.14,1.899,0.21,2.84C38.86,24.9,44.3,17.64,48.57,9.24z M45.16,21.62
		c1.75-3.101,3.12-6.13,3.439-9.41c-2.42,4.4-5.189,8.6-8.21,12.6c-2.069,2.74-4.72,6.41-7.96,7.96
		c0.15,2.131,0.29,4.261,0.391,6.381C36.89,33.3,41.66,27.83,45.16,21.62z M47.11,5.26C47.29,5.11,47.52,5.1,47.72,5.17
		c-0.43-1.59-0.87-3.16-1.27-4.75C45.72,3.36,44.31,6.16,42.68,8.73C39.82,13.22,36.65,18.19,32.92,22
		c0.311,1.14,0.08,2.42-0.36,3.52c-0.149,0.391-0.35,0.78-0.59,1.15c0.021,0.22,0.03,0.43,0.05,0.65
		C36.8,19.96,40.37,10.88,47.11,5.26z M31.6,40.15c-0.689-3.9-1.199-7.94-1.21-11.931c-0.27,0.15-0.55,0.271-0.859,0.34
		c-1.73,0.381-2.99-1.239-3.75-2.6c-2.05,0.21-4.061-0.02-5.9-1.07c-1.729-1-2.32-1.54-2.479-3.199
		c-0.051,0.06-0.12,0.119-0.221,0.14c-3.21,0.77-6.42-1.61-6.42-4.93c-0.01-1.45-0.109-0.971-1.25-1.631
		c-0.08-0.05-0.149-0.1-0.229-0.149c2.59,6.61,3.13,13.78,4.069,20.76c0.021,0.14-0.01,0.271-0.05,0.39
		C17.29,42.15,25.43,41.35,31.6,40.15z"/>
	<path fill="#FCDA7A" d="M48.59,9.21c0,0.01-0.01,0.01-0.02,0.03C44.3,17.64,38.86,24.9,32.34,31.58c-0.07-0.94-0.14-1.89-0.21-2.84
		C37.73,21.42,42.36,13.38,47.94,6.02c0.09,0.32,0.18,0.631,0.26,0.95C48.39,7.74,48.52,8.48,48.59,9.21z"/>
	<path fill="#683C11" d="M48.6,12.21c-0.319,3.28-1.689,6.31-3.439,9.41c-3.5,6.21-8.271,11.68-12.34,17.53
		c-0.101-2.12-0.24-4.25-0.391-6.381c3.24-1.55,5.891-5.22,7.96-7.96C43.41,20.81,46.18,16.61,48.6,12.21z"/>
	<path fill="#683C11" d="M47.72,5.17c-0.2-0.07-0.43-0.06-0.609,0.09C40.37,10.88,36.8,19.96,32.02,27.32
		C32,27.1,31.99,26.89,31.97,26.67c0.24-0.37,0.44-0.76,0.59-1.15c0.44-1.1,0.671-2.38,0.36-3.52c3.73-3.81,6.9-8.78,9.76-13.27
		c1.63-2.57,3.04-5.37,3.771-8.311C46.85,2.01,47.29,3.58,47.72,5.17z"/>
	<path fill="#683C11" d="M30.39,28.22c0.011,3.99,0.521,8.03,1.21,11.931c-6.17,1.199-14.31,2-18.3-3.881
		c0.04-0.119,0.07-0.25,0.05-0.39C12.41,28.9,11.87,21.73,9.28,15.12c0.08,0.05,0.149,0.1,0.229,0.149
		c1.141,0.66,1.24,0.181,1.25,1.631c0,3.319,3.21,5.699,6.42,4.93c0.101-0.021,0.17-0.08,0.221-0.14
		c0.159,1.659,0.75,2.199,2.479,3.199c1.84,1.051,3.851,1.28,5.9,1.07c0.76,1.36,2.02,2.98,3.75,2.6
		C29.84,28.49,30.12,28.37,30.39,28.22z"/>
</g>
</svg>
