<?xml version="1.0" encoding="utf-8"?>
<!-- Generator: Adobe Illustrator 16.0.0, SVG Export Plug-In . SVG Version: 6.00 Build 0)  -->
<!DOCTYPE svg PUBLIC "-//W3C//DTD SVG 1.1//EN" "http://www.w3.org/Graphics/SVG/1.1/DTD/svg11.dtd">
<svg version="1.1" id="Ebene_1" xmlns="http://www.w3.org/2000/svg" xmlns:xlink="http://www.w3.org/1999/xlink" x="0px" y="0px"
	 width="45.667px" height="51.583px" viewBox="0 0 45.667 51.583" enable-background="new 0 0 45.667 51.583" xml:space="preserve">
<g>
	<path fill="#F6F6F6" d="M8.352,20.648c0,0,0.458-2.188-0.662-3.461c-1.12-1.273-3.716-1.374-4.529-0.764
		c-0.814,0.61-0.764,1.476-0.764,1.476s-1.374,2.24-0.967,3.054c0.406,0.814,2.9,2.138,2.9,2.138s-0.203,4.072,1.323,4.887
		c1.527,0.813,4.887,1.372,4.887,1.372s1.374,2.646,3.206,3.309s5.548,0.662,5.548,0.662s1.577,2.697,2.646,2.494
		s2.748-2.291,3.104-3.359s0.306-3.258-0.458-3.715c-0.764-0.458-3.359-0.458-3.359-0.458s-2.086-3.002-3.205-2.95
		c-1.121,0.051-3.054,1.118-3.054,1.118s-1.933-1.782-3.002-1.782c-1.069,0-1.069-1.476-1.477-2.087
		C10.082,21.971,8.352,20.648,8.352,20.648z"/>
	<path fill="#FCDA7A" d="M25.502,27.977c0,0,11.248-14.455,12.521-20.613c1.273-6.158-1.476-5.344-4.274-3.919
		c-2.799,1.424-16.44,9.72-19.595,10.688c-3.155,0.967-7.228,2.138-7.228,2.138s1.018,0.763,1.171,1.984
		c0.152,1.222,0.255,2.393,0.255,2.393s2.392,1.68,2.544,2.493c0.153,0.814,0.255,1.527,0.255,1.527s2.596,2.036,3.767,1.526
		c1.17-0.51,1.628-1.375,2.29-1.222c0.662,0.152,3.31,2.545,3.31,2.545l1.17,0.864c0,0,1.884-0.355,2.442,0
		C24.689,28.739,25.249,29.094,25.502,27.977z"/>
	<path fill="#1D1D1B" d="M40.164,3.558c1.76,7.93,5.84,15.101,1.989,23.11c-3.96,8.219-10.25,14.809-15.62,22.078
		c-0.189,0.26-0.449,0.361-0.699,0.361c-5.439,3.719-17.15,1.6-20.09-4.592c-0.42,0.191-0.93,0.08-1.02-0.5
		c-1.18-7.18-2.04-14.379-3.62-21.498c-0.06-0.27,0.07-0.45,0.24-0.52c-0.05-0.09-0.11-0.18-0.16-0.28
		c-0.56-1.21,0.28-2.65,0.95-3.7c-0.12,0.08-0.24,0.16-0.36,0.23c-0.36,0.22-0.83-0.22-0.59-0.58c1.13-1.67,3.8-2.641,5.69-1.76
		c1.8,0.84,2.1,2.649,1.699,4.409c0.021,0.021,0.051,0.03,0.07,0.061c0.81,1.03,2.05,1.55,2.62,2.76c0.189,0.41,0.1,1.07,0.6,1.3
		c0.87,0.42,1.75,0.891,2.67,1.19c0.931,0.3,2.181-1.03,3.48-0.72c1.109,0.26,2.129,1.619,2.959,2.3
		c0.311,0.26-0.109,0.81-0.439,0.568c-0.729-0.56-1.88-1.879-2.76-2.01c-1.45-0.2-1.76,1.26-2.84,1.09c-1.38-0.22-2.85-1.1-4.04-1.8
		c-0.13-0.08-0.24-0.25-0.229-0.41c0.189-2.189-1.61-2.3-2.671-3.62c-0.239-0.3-0.05-0.67,0.21-0.779
		c0.101-1.53-0.459-3.29-2.199-3.59c-1.261-0.21-2.2,0.29-3.15,0.899c0.17,0.09,0.271,0.29,0.16,0.521
		c-0.39,0.76-0.96,1.74-0.89,2.65c0.09,1.271,1.42,1.471,2.399,1.66c0.24,0.05,0.46,0.33,0.43,0.57c-0.17,1.479-0.25,3.41,1.04,4.47
		c1.25,1.02,2.671,0.898,4.12,1.329c0.08,0.03,0.141,0.08,0.181,0.13c0-0.1-0.011-0.189-0.011-0.3c-0.01-0.329,0.48-0.389,0.57-0.07
		c0.94,3.44,4.79,4.489,8.03,4.05c0.24-0.029,0.49,0.021,0.62,0.25c0.529,1.012,1.591,2.92,3.04,2.311
		c0.301-0.119,0.561-0.33,0.79-0.57c0.021-0.488,0.029-0.969,0.06-1.459c0.041-0.609,0.631-0.801,1.03-0.58
		c0.271-0.92,0.47-2.17-0.079-3.01c-0.771-1.17-2.371-0.63-3.5-0.439c-0.521,0.09-0.892-0.609-0.381-0.898
		c1.279-0.71,3.149-1,4.359-0.062c2.07-4.148,5.721-7.68,8.189-11.608c1.242-1.972,8.172-14.572,2.232-12.742
		c-9.52,2.92-16.7,10.98-26.79,12.35c-0.62,0.09-0.91-0.8-0.27-0.96c11.06-2.8,18.9-13.11,30.57-14.09
		c0.62-0.06,0.979,0.521,1.051,1.04c0.039,0.34,0.069,0.68,0.09,1.021C40.013,3.218,40.114,3.358,40.164,3.558z M41.503,16.958
		c0.01-0.021,0.02-0.021,0.02-0.03c-0.069-0.729-0.199-1.47-0.389-2.24c-0.08-0.319-0.171-0.63-0.261-0.95
		c-5.58,7.36-10.21,15.399-15.812,22.719c0.07,0.951,0.141,1.9,0.211,2.84C31.793,32.618,37.234,25.358,41.503,16.958z
		 M38.093,29.336c1.75-3.099,3.12-6.128,3.439-9.408c-2.42,4.4-5.189,8.6-8.21,12.6c-2.069,2.738-4.72,6.41-7.96,7.959
		c0.15,2.131,0.29,4.262,0.391,6.381C29.824,41.016,34.593,35.547,38.093,29.336z M40.043,12.978c0.181-0.15,0.41-0.16,0.61-0.09
		c-0.43-1.59-0.87-3.16-1.27-4.75c-0.73,2.94-2.141,5.74-3.771,8.31c-2.86,4.49-6.03,9.459-9.761,13.269
		c0.312,1.141,0.08,2.42-0.359,3.52c-0.148,0.391-0.35,0.779-0.59,1.15c0.021,0.221,0.029,0.43,0.05,0.65
		C29.734,27.678,33.304,18.598,40.043,12.978z M24.534,47.868c-0.688-3.9-1.199-7.941-1.21-11.932
		c-0.27,0.15-0.551,0.271-0.859,0.34c-1.73,0.381-2.99-1.238-3.75-2.6c-2.05,0.209-4.061-0.02-5.9-1.07
		c-1.729-1-2.32-1.539-2.479-3.199c-0.051,0.061-0.12,0.119-0.221,0.141c-3.21,0.77-6.42-1.608-6.42-4.929
		c-0.01-1.45-0.109-0.971-1.25-1.631c-0.08-0.05-0.149-0.1-0.229-0.149c2.59,6.609,3.13,13.779,4.069,20.758
		c0.021,0.141-0.01,0.271-0.05,0.391C10.224,49.868,18.364,49.067,24.534,47.868z"/>
	<path fill="#FCDA7A" d="M41.523,16.928c0,0.01-0.01,0.01-0.02,0.03c-4.27,8.4-9.71,15.659-16.23,22.339
		c-0.069-0.939-0.139-1.891-0.209-2.84c5.6-7.32,10.229-15.359,15.81-22.719c0.09,0.32,0.181,0.631,0.261,0.95
		C41.324,15.458,41.454,16.198,41.523,16.928z"/>
	<path fill="#683C11" d="M41.534,19.928c-0.319,3.28-1.688,6.31-3.438,9.408c-3.5,6.211-8.271,11.68-12.341,17.531
		c-0.101-2.121-0.239-4.25-0.391-6.381c3.239-1.551,5.891-5.221,7.96-7.961C36.343,28.528,39.114,24.328,41.534,19.928z"/>
	<path fill="#683C11" d="M40.654,12.888c-0.2-0.07-0.43-0.06-0.609,0.09c-6.74,5.62-10.311,14.7-15.091,22.06
		c-0.021-0.221-0.03-0.43-0.05-0.65c0.24-0.371,0.439-0.76,0.59-1.15c0.439-1.1,0.671-2.379,0.359-3.52
		c3.73-3.81,6.9-8.779,9.761-13.269c1.63-2.57,3.04-5.37,3.771-8.311C39.784,9.728,40.224,11.298,40.654,12.888z"/>
	<path fill="#683C11" d="M23.324,35.938c0.011,3.988,0.521,8.029,1.21,11.93c-6.17,1.199-14.31,2-18.3-3.881
		c0.04-0.119,0.07-0.25,0.05-0.391c-0.94-6.979-1.48-14.148-4.07-20.758c0.08,0.05,0.149,0.1,0.229,0.149
		c1.141,0.66,1.24,0.181,1.25,1.631c0,3.319,3.21,5.699,6.42,4.929c0.101-0.021,0.17-0.08,0.221-0.141
		c0.159,1.66,0.75,2.199,2.479,3.199c1.84,1.051,3.851,1.279,5.9,1.07c0.76,1.359,2.02,2.98,3.75,2.6
		C22.773,36.208,23.054,36.086,23.324,35.938z"/>
</g>
</svg>
