<?xml version="1.0" encoding="utf-8"?>
<!-- Generator: Adobe Illustrator 16.0.0, SVG Export Plug-In . SVG Version: 6.00 Build 0)  -->
<!DOCTYPE svg PUBLIC "-//W3C//DTD SVG 1.1//EN" "http://www.w3.org/Graphics/SVG/1.1/DTD/svg11.dtd">
<svg version="1.1" id="Ebene_1" xmlns="http://www.w3.org/2000/svg" xmlns:xlink="http://www.w3.org/1999/xlink" x="0px" y="0px"
	 width="128px" height="128px" viewBox="0 0 128 128" enable-background="new 0 0 128 128" xml:space="preserve">
<g>
	<path fill="#BD1622" d="M24.045,48.648c2.962-0.332,5.966-0.411,8.942-0.31c2.166,0.075,4.313,0.323,6.396,0.937
		c2.004,0.59,2.599,1.609,3.461,3.374c2.483,5.079,5.336,9.993,8.227,14.847c3.131,5.257,6.949,10.109,10.021,15.375
		c2.569,4.405,3.294,10.491,6.991,14.163c3.477,3.455,8.54-0.021,10.554-3.312c3.047-4.979,1.215-11.688-1.368-16.402
		c-1.697-3.1-3.519-5.45-4.189-9.03c-0.478-2.554-0.307-5.33,0.155-7.874c0.08-0.444,0.176-0.889,0.297-1.323
		c-0.783,0.443-1.564,0.888-2.347,1.332c7.963,1.239,16.348,1.777,24.321,0.445c4.865-0.813,9.739-3.075,11.229-8.173
		c1.14-3.899-1.492-8.297-4.365-10.761c0,0.899,0,1.799,0,2.698c1.885-1.619,3.272-3.865,4.045-6.206
		c1.646-4.992-1.654-9.246-5.418-12.087c0.228,0.87,0.456,1.74,0.684,2.61c3.476-5.019,3.499-11.63-2.164-14.946
		c0.228,0.87,0.456,1.74,0.685,2.61c1.232-2.569,1.009-5.46-0.245-7.972C97.821,4.37,92.469,2.787,88.15,1.992
		c-7.23-1.333-14.833-1.415-22.164-1.075c-2.45,0.114-2.461,3.93,0,3.815c5.765-0.268,11.589-0.148,17.332,0.416
		c3.609,0.355,7.423,0.907,10.611,2.73c1.848,1.057,3.234,2.794,3.3,4.96c0.017,0.523-0.087,1.015-0.225,1.518
		c-0.058,0.212-0.368,0.895-0.1,0.335c-0.45,0.938-0.267,2.054,0.685,2.609c3.889,2.277,3.025,6.507,0.796,9.727
		c-0.643,0.928-0.093,2.023,0.685,2.609c2.879,2.174,4.923,5.164,3.303,8.745c-0.609,1.346-1.581,2.594-2.702,3.556
		c-0.747,0.642-0.747,2.057,0,2.698c2.727,2.338,4.795,6.124,2.172,9.316c-2.436,2.966-7.395,3.381-10.919,3.664
		c-6.165,0.493-12.694,0.069-18.726-0.87c-1.027-0.16-2.046,0.246-2.347,1.333c-1.002,3.631-1.008,7.531-0.451,11.226
		c1.028,6.819,6.937,11.32,6.944,18.478c0.003,2.748-1.312,5.573-3.958,6.664c-1.922,0.793-2.826-1.73-3.461-3.092
		c-1.168-2.504-2.033-5.149-3.16-7.676c-1.29-2.892-3.127-5.342-4.923-7.923c-3.479-5-6.591-10.267-9.605-15.555
		c-1.344-2.356-2.647-4.735-3.907-7.138c-0.893-1.702-1.572-3.626-2.797-5.117c-2.501-3.048-7.979-3.259-11.546-3.422
		c-2.969-0.137-5.988-0.022-8.942,0.309C21.627,45.103,21.602,48.921,24.045,48.648L24.045,48.648z"/>
</g>
<g>
	<path fill="#BD1622" d="M38.489,123.722c0,0.745-0.254,1.367-0.762,1.867c-0.51,0.499-1.137,0.749-1.883,0.749H29.05v-10.703
		c0-0.396,0.215-0.596,0.645-0.596h0.334c0.174,0,0.309,0.088,0.404,0.262l0.287,0.501c0.094,0.175,0.213,0.263,0.357,0.263
		c0.223,0,0.766-0.179,1.633-0.537c0.865-0.357,1.633-0.536,2.299-0.536h0.549c0.875,0,1.582,0.23,2.121,0.69
		c0.541,0.46,0.811,1.125,0.811,1.998V123.722z M36.726,123.386v-5.418c0-0.364-0.123-0.674-0.369-0.928
		c-0.246-0.253-0.553-0.38-0.918-0.38h-3.289c-0.365,0-0.68,0.127-0.941,0.38c-0.262,0.254-0.395,0.563-0.395,0.928v6.773h4.482
		c0.365,0,0.695-0.135,0.988-0.404C36.579,124.067,36.726,123.75,36.726,123.386z"/>
	<path fill="#BD1622" d="M47.429,125.671c0,0.444-0.238,0.667-0.715,0.667h-4.482c-0.477,0-0.715-0.223-0.715-0.667v-0.263
		c0-0.444,0.238-0.667,0.715-0.667h1.359v-8.105h-1.24c-0.477,0-0.715-0.222-0.715-0.667v-0.263c0-0.444,0.238-0.667,0.715-0.667
		h4.244c0.477,0,0.715,0.223,0.715,0.667v0.263c0,0.445-0.238,0.667-0.715,0.667h-1.24v8.105h1.359c0.477,0,0.715,0.223,0.715,0.667
		V125.671z"/>
	<path fill="#BD1622" d="M59.132,123.668c0,0.795-0.213,1.438-0.643,1.931c-0.428,0.493-1.029,0.739-1.807,0.739h-5.871
		c-0.477,0-0.713-0.223-0.713-0.667v-0.263c0-0.444,0.236-0.667,0.713-0.667h5.535c0.682,0,1.021-0.453,1.021-1.359v-0.953
		c0-0.684-0.342-1.025-1.025-1.025h-3.908c-0.652,0-1.205-0.238-1.656-0.715c-0.453-0.477-0.68-1.041-0.68-1.692v-1.478
		c0-0.684,0.281-1.268,0.846-1.753c0.564-0.484,1.188-0.727,1.871-0.727h4.695c0.492,0,0.74,0.223,0.74,0.667v0.263
		c0,0.445-0.238,0.667-0.715,0.667H53.22c-0.904,0-1.357,0.405-1.357,1.216v0.882c0,0.351,0.131,0.636,0.393,0.858
		s0.568,0.334,0.918,0.334h3.838c0.652,0,1.168,0.194,1.549,0.584c0.383,0.39,0.572,0.91,0.572,1.562V123.668z"/>
	<path fill="#BD1622" d="M70.026,125.671c0,0.444-0.238,0.667-0.715,0.667h-7.414v-10.584c0-0.477,0.238-0.715,0.715-0.715h0.334
		c0.477,0,0.715,0.238,0.715,0.715v8.987h5.65c0.477,0,0.715,0.223,0.715,0.667V125.671z"/>
	<path fill="#BD1622" d="M77.462,125.671c0,0.444-0.238,0.667-0.715,0.667h-4.48c-0.477,0-0.715-0.223-0.715-0.667v-0.263
		c0-0.444,0.238-0.667,0.715-0.667h1.359v-8.105h-1.24c-0.477,0-0.715-0.222-0.715-0.667v-0.263c0-0.444,0.238-0.667,0.715-0.667
		h4.242c0.477,0,0.715,0.223,0.715,0.667v0.263c0,0.445-0.238,0.667-0.715,0.667H75.39v8.105h1.357c0.477,0,0.715,0.223,0.715,0.667
		V125.671z"/>
	<path fill="#BD1622" d="M88.833,125.46c0,0.216-0.086,0.394-0.262,0.532l-0.311,0.255c-0.111,0.092-0.262,0.139-0.451,0.139
		c-0.111,0-0.271-0.087-0.479-0.261l-5.076-4.388v3.886c0,0.477-0.238,0.715-0.715,0.715h-0.334c-0.477,0-0.715-0.238-0.715-0.715
		v-9.869c0-0.477,0.238-0.715,0.715-0.715h0.334c0.477,0,0.715,0.238,0.715,0.715v3.838l5.053-4.457
		c0.127-0.096,0.271-0.144,0.43-0.144c0.207,0,0.389,0.095,0.549,0.282l0.215,0.259c0.109,0.141,0.166,0.274,0.166,0.399
		c0,0.204-0.102,0.392-0.307,0.564l-4.725,4.167l5.016,4.357C88.772,125.113,88.833,125.26,88.833,125.46z"/>
	<path fill="#BD1622" d="M100.179,119.926c0,0.985-0.461,1.478-1.381,1.478h-6.08v1.884c0,0.969,0.518,1.454,1.551,1.454h3.289
		c0.477,0,0.715,0.223,0.715,0.667v0.263c0,0.444-0.238,0.667-0.715,0.667h-4.004c-0.717,0-1.328-0.274-1.836-0.822
		c-0.51-0.549-0.764-1.18-0.764-1.896v-5.959c0-0.73,0.275-1.351,0.822-1.859c0.549-0.509,1.188-0.763,1.92-0.763h3.742
		c0.73,0,1.371,0.252,1.918,0.755c0.549,0.504,0.822,1.118,0.822,1.842V119.926z M98.415,119.926v-2.002
		c0-0.366-0.123-0.672-0.369-0.918s-0.553-0.37-0.918-0.37h-3.123c-0.365,0-0.67,0.124-0.916,0.37
		c-0.248,0.246-0.371,0.552-0.371,0.918v2.002H98.415z"/>
</g>
<g>
</g>
<g>
</g>
<g>
</g>
<g>
</g>
<g>
</g>
<g>
</g>
<g>
</g>
<g>
</g>
<g>
</g>
<g>
</g>
<g>
</g>
</svg>
