<?xml version="1.0" encoding="utf-8"?>
<!-- Generator: Adobe Illustrator 16.0.0, SVG Export Plug-In . SVG Version: 6.00 Build 0)  -->
<!DOCTYPE svg PUBLIC "-//W3C//DTD SVG 1.1//EN" "http://www.w3.org/Graphics/SVG/1.1/DTD/svg11.dtd">
<svg version="1.1" id="Ebene_1" xmlns="http://www.w3.org/2000/svg" xmlns:xlink="http://www.w3.org/1999/xlink" x="0px" y="0px"
	 width="128px" height="128px" viewBox="0 0 128 128" enable-background="new 0 0 128 128" xml:space="preserve">
<g>
	<path fill="#BD1622" d="M14.045,76.648c2.962-0.332,5.966-0.412,8.942-0.311c2.166,0.075,4.313,0.323,6.396,0.938
		c2.004,0.59,2.599,1.608,3.461,3.373c2.483,5.08,5.336,9.994,8.227,14.848c3.131,5.257,6.949,10.109,10.021,15.375
		c2.569,4.404,3.295,10.49,6.991,14.163c3.478,3.455,8.54-0.021,10.554-3.312c3.047-4.979,1.215-11.688-1.367-16.402
		c-1.697-3.1-3.52-5.45-4.189-9.03c-0.479-2.554-0.307-5.33,0.154-7.874c0.08-0.443,0.177-0.889,0.297-1.323
		c-0.782,0.443-1.563,0.888-2.346,1.332c7.963,1.239,16.348,1.777,24.32,0.445c4.865-0.813,9.739-3.075,11.229-8.173
		c1.141-3.899-1.491-8.297-4.364-10.762c0,0.899,0,1.799,0,2.698c1.885-1.618,3.272-3.864,4.045-6.206
		c1.646-4.992-1.653-9.246-5.418-12.087c0.228,0.87,0.456,1.74,0.685,2.61c3.475-5.019,3.498-11.63-2.164-14.946
		c0.228,0.87,0.455,1.74,0.685,2.61c1.231-2.569,1.009-5.46-0.245-7.972c-2.137-4.273-7.488-5.856-11.807-6.651
		c-7.23-1.333-14.834-1.415-22.164-1.075c-2.45,0.114-2.461,3.93,0,3.815c5.765-0.268,11.589-0.148,17.332,0.416
		c3.609,0.355,7.423,0.907,10.611,2.73c1.848,1.057,3.233,2.794,3.299,4.96c0.018,0.523-0.086,1.015-0.225,1.518
		c-0.059,0.212-0.367,0.895-0.1,0.335c-0.45,0.938-0.268,2.054,0.685,2.609c3.89,2.277,3.024,6.507,0.796,9.727
		c-0.643,0.928-0.093,2.023,0.686,2.609c2.879,2.174,4.923,5.164,3.303,8.745c-0.609,1.346-1.581,2.594-2.702,3.557
		c-0.747,0.642-0.747,2.057,0,2.697c2.728,2.338,4.795,6.124,2.172,9.316c-2.436,2.966-7.396,3.381-10.919,3.664
		c-6.165,0.492-12.693,0.068-18.727-0.87c-1.026-0.16-2.045,0.246-2.346,1.333c-1.002,3.631-1.009,7.531-0.451,11.227
		c1.027,6.818,6.937,11.319,6.943,18.478c0.004,2.748-1.312,5.573-3.957,6.663c-1.923,0.794-2.826-1.729-3.462-3.092
		c-1.168-2.504-2.032-5.148-3.159-7.676c-1.291-2.892-3.127-5.342-4.924-7.923c-3.479-5-6.591-10.267-9.605-15.555
		c-1.344-2.356-2.647-4.735-3.907-7.138c-0.893-1.703-1.572-3.627-2.797-5.117c-2.501-3.049-7.979-3.26-11.546-3.422
		c-2.969-0.137-5.988-0.022-8.942,0.309C11.627,73.104,11.602,76.921,14.045,76.648L14.045,76.648z"/>
</g>
<g>
	<path fill="#BD1622" d="M28.489,11.723c0,0.744-0.254,1.366-0.762,1.866c-0.51,0.499-1.137,0.749-1.883,0.749H19.05V3.635
		c0-0.396,0.215-0.596,0.645-0.596h0.334c0.174,0,0.309,0.088,0.404,0.262l0.287,0.501c0.094,0.175,0.213,0.263,0.357,0.263
		c0.223,0,0.766-0.179,1.633-0.537c0.865-0.356,1.633-0.535,2.299-0.535h0.549c0.875,0,1.582,0.23,2.121,0.689
		C28.22,4.143,28.49,4.807,28.49,5.68L28.489,11.723L28.489,11.723z M26.726,11.386V5.968c0-0.364-0.123-0.674-0.369-0.928
		c-0.246-0.253-0.553-0.38-0.918-0.38H22.15c-0.365,0-0.68,0.127-0.941,0.38c-0.262,0.254-0.395,0.563-0.395,0.928v6.773h4.482
		c0.365,0,0.695-0.136,0.988-0.404C26.579,12.066,26.726,11.75,26.726,11.386z"/>
	<path fill="#BD1622" d="M37.429,13.671c0,0.444-0.238,0.667-0.715,0.667h-4.482c-0.477,0-0.715-0.223-0.715-0.667v-0.263
		c0-0.444,0.238-0.667,0.715-0.667h1.359V4.636h-1.24c-0.477,0-0.715-0.222-0.715-0.667V3.706c0-0.444,0.238-0.667,0.715-0.667
		h4.244c0.477,0,0.715,0.223,0.715,0.667v0.263c0,0.445-0.238,0.667-0.715,0.667h-1.24v8.105h1.359c0.477,0,0.715,0.223,0.715,0.667
		V13.671z"/>
	<path fill="#BD1622" d="M49.132,11.668c0,0.795-0.213,1.438-0.644,1.932c-0.428,0.492-1.028,0.738-1.807,0.738h-5.871
		c-0.477,0-0.713-0.223-0.713-0.667v-0.263c0-0.444,0.236-0.667,0.713-0.667h5.535c0.682,0,1.021-0.453,1.021-1.359V10.43
		c0-0.685-0.342-1.025-1.025-1.025h-3.908c-0.652,0-1.205-0.238-1.656-0.715c-0.453-0.478-0.68-1.041-0.68-1.692V5.52
		c0-0.685,0.281-1.269,0.846-1.754c0.564-0.483,1.188-0.727,1.871-0.727h4.695c0.492,0,0.74,0.223,0.74,0.667v0.263
		c0,0.445-0.238,0.667-0.715,0.667H43.22c-0.904,0-1.357,0.405-1.357,1.216v0.883c0,0.351,0.131,0.636,0.393,0.857
		c0.262,0.223,0.568,0.334,0.918,0.334h3.838c0.652,0,1.168,0.194,1.549,0.584c0.383,0.391,0.572,0.91,0.572,1.563L49.132,11.668
		L49.132,11.668z"/>
	<path fill="#BD1622" d="M60.025,13.671c0,0.444-0.237,0.667-0.715,0.667h-7.414V3.754c0-0.477,0.238-0.715,0.715-0.715h0.334
		c0.478,0,0.716,0.238,0.716,0.715v8.987h5.649c0.478,0,0.715,0.223,0.715,0.667V13.671z"/>
	<path fill="#BD1622" d="M67.462,13.671c0,0.444-0.237,0.667-0.715,0.667h-4.479c-0.478,0-0.715-0.223-0.715-0.667v-0.263
		c0-0.444,0.237-0.667,0.715-0.667h1.358V4.636h-1.239c-0.478,0-0.716-0.222-0.716-0.667V3.706c0-0.444,0.238-0.667,0.716-0.667
		h4.241c0.478,0,0.715,0.223,0.715,0.667v0.263c0,0.445-0.237,0.667-0.715,0.667h-1.237v8.105h1.356
		c0.478,0,0.715,0.223,0.715,0.667V13.671z"/>
	<path fill="#BD1622" d="M78.833,13.46c0,0.216-0.086,0.394-0.263,0.532l-0.311,0.255c-0.111,0.092-0.262,0.139-0.451,0.139
		c-0.111,0-0.271-0.087-0.479-0.261l-5.076-4.389v3.887c0,0.477-0.238,0.715-0.715,0.715h-0.334c-0.477,0-0.715-0.238-0.715-0.715
		V3.754c0-0.477,0.238-0.715,0.715-0.715h0.334c0.477,0,0.715,0.238,0.715,0.715v3.838l5.053-4.457
		c0.127-0.096,0.271-0.144,0.43-0.144c0.207,0,0.39,0.095,0.55,0.282l0.215,0.259c0.108,0.141,0.166,0.274,0.166,0.399
		c0,0.203-0.103,0.392-0.308,0.563l-4.725,4.167l5.016,4.357C78.771,13.113,78.833,13.26,78.833,13.46z"/>
	<path fill="#BD1622" d="M90.18,7.926c0,0.985-0.462,1.479-1.382,1.479h-6.08v1.884c0,0.969,0.519,1.454,1.552,1.454h3.289
		c0.477,0,0.715,0.223,0.715,0.667v0.263c0,0.444-0.238,0.667-0.715,0.667h-4.004c-0.718,0-1.328-0.274-1.836-0.821
		c-0.511-0.55-0.765-1.181-0.765-1.896V5.662c0-0.73,0.274-1.352,0.821-1.859c0.55-0.509,1.188-0.763,1.92-0.763h3.742
		c0.73,0,1.371,0.252,1.918,0.755c0.549,0.504,0.822,1.118,0.822,1.842v2.289H90.18z M88.415,7.926V5.924
		c0-0.365-0.123-0.672-0.369-0.918s-0.553-0.37-0.918-0.37h-3.123c-0.364,0-0.67,0.124-0.916,0.37
		c-0.248,0.246-0.371,0.553-0.371,0.918v2.002H88.415z"/>
</g>
</svg>
