<?xml version="1.0" encoding="utf-8"?>
<!-- Generator: Adobe Illustrator 16.0.0, SVG Export Plug-In . SVG Version: 6.00 Build 0)  -->
<!DOCTYPE svg PUBLIC "-//W3C//DTD SVG 1.1//EN" "http://www.w3.org/Graphics/SVG/1.1/DTD/svg11.dtd">
<svg version="1.1" id="Ebene_1" xmlns="http://www.w3.org/2000/svg" xmlns:xlink="http://www.w3.org/1999/xlink" x="0px" y="0px"
	 width="61.038px" height="64.498px" viewBox="0 0 61.038 64.498" enable-background="new 0 0 61.038 64.498" xml:space="preserve">
<g>
	<path fill="#FF4121" d="M28.642,20.218c0.02-0.114-0.18-0.601-0.152-0.712c-1.809,0.394-4.659,0.751-5.395,3.461
		c-0.896,3.299,0.925,4.046,2.885,4.636c0.04-0.21,0.079-0.42,0.109-0.64c-1.189-0.53-2.359-1.65-2.189-3.03
		c0.18-1.46,1.83-2.46,3.189-2.56c0.12,0,0.19,0.05,0.24,0.13c0.083-0.221,0.197-0.421,0.299-0.63
		C27.5,20.762,28.607,20.426,28.642,20.218z"/>
	<path fill="#1D1D1B" d="M36.759,0.783c19.561,2.88,28.78,25.68,20.84,42.6c-6.989,14.9-24.01,25.16-40.229,18.75
		c-15.49-6.141-19.9-23.67-14.59-38.36c4.14-11.45,15.819-25.5,29.279-22.86c0.03-0.01,0.061-0.03,0.101-0.04
		C33.69,0.703,35.219,0.553,36.759,0.783z M55.32,42.043c6.989-16.26-2.261-38.21-21.28-38.98c-6.36,0.05-12.43,1.21-17.53,5.46
		c-5.029,4.21-8.95,9.75-11.09,15.98c-4.67,13.65-1.479,30.25,13.66,35.55C33.73,65.183,49.429,55.752,55.32,42.043z"/>
	<path fill="#F6F6F6" d="M34.04,3.063c19.02,0.77,28.27,22.72,21.28,38.98c-5.891,13.709-21.59,23.14-36.24,18.01
		c-15.14-5.301-18.33-21.9-13.66-35.55c2.14-6.23,6.061-11.77,11.09-15.98C21.61,4.272,27.679,3.113,34.04,3.063z M52.919,38.412
		c3.311-11.33-0.09-25.649-12.36-29.66c-2.699-0.88-5.579-1.12-8.399-1.07c-0.23,0-0.41,0.08-0.561,0.18
		c-26.149-2.02-34.55,45.04-6.909,50.17C38.309,60.563,49.25,50.933,52.919,38.412z"/>
	<path fill="#1D1D1B" d="M40.559,8.752c12.271,4.01,15.671,18.33,12.36,29.66c-3.67,12.521-14.61,22.15-28.229,19.621
		c-27.641-5.131-19.24-52.19,6.909-50.17c0.15-0.1,0.33-0.18,0.561-0.18C34.98,7.633,37.86,7.873,40.559,8.752z M29.66,55.973
		c25.52-1.03,31.13-45.73,2.5-46.19c-0.19,0-0.34-0.05-0.48-0.12c-11.97,2.07-20.689,10.82-21.609,23.46
		C9.179,45.303,16.419,56.513,29.66,55.973z"/>
	<path fill="#1D1D1B" d="M15.459,41.293c-0.01,0.06-0.02,0.129-0.01,0.199c0,0,0.05,0.17,0.05,0.19v0.01
		c0.13,0.271,0.23,0.36,0.42,0.47c0.25,0.15,0.53,0.24,0.811,0.24c0.35,0.01,0.68-0.039,1.02-0.22c0.94-0.479,1.5-1.37,1.9-2.319
		c-0.271-0.24-0.561-0.4-0.971-0.381c-0.439,0.02-0.819,0.061-1.25-0.04c-0.1-0.021-0.149-0.079-0.18-0.159
		c-0.39,0.27-0.78,0.56-1.12,0.899c-0.16,0.16-0.31,0.33-0.43,0.53c-0.05,0.1-0.11,0.189-0.15,0.289
		c-0.02,0.041-0.029,0.041-0.029,0.051c-0.011,0.01-0.011,0.02-0.011,0.05C15.49,41.123,15.459,41.293,15.459,41.293z
		 M50.219,28.813c1.03,2.37-0.09,3.98-1.83,5.43c1.021,1.711,0.25,2.44-0.569,4.021c0.109,0.09,0.229,0.17,0.34,0.28
		c0.71,0.68,0.21,1.92-0.3,2.629c-0.37,0.531-0.971,0.811-1.61,0.801c-0.51,0-1.07-0.221-1.55-0.051
		c-0.561,0.191-0.91-0.67-0.4-0.949c0.59-0.32,1.2-0.24,1.84-0.23c0.78,0.021,1-0.67,1.141-1.34c-0.04-0.029-0.08-0.06-0.12-0.09
		c-0.44,0.21-1.07-0.17-1.09-0.72c-0.21-0.101-0.42-0.21-0.63-0.31c-0.29,0.84-0.44,1.739-1.03,2.43c-0.49,0.58-1.33-0.26-0.83-0.84
		c0.58-0.681,0.66-1.881,1.03-2.701c0.14-0.309,0.54-0.34,0.81-0.209c0.4,0.189,0.79,0.359,1.17,0.55
		c0.59-0.86,1.24-1.851,0.25-2.88c-0.359-0.381-0.25-0.91,0.15-1.19c2.399-1.69,2.54-3.76,0.45-5.61
		c-0.03-0.03-0.051-0.06-0.07-0.09c0.04,0.19-0.021,0.41-0.15,0.56c-0.319,0.38,0.141,1.39,0.16,1.85
		c0.021,0.31-0.27,0.57-0.57,0.57c-0.939,0-1.88,0-2.819-0.03c-0.28-0.01-0.561-0.24-0.54-0.54c0.03-0.43,0.149-0.85,0.229-1.27
		c0.04-0.26,0.16-0.73,0.07-1.05c-0.05-0.04-0.1-0.06-0.15-0.11c-0.239-0.22-0.21-0.48-0.069-0.66c-0.41,0.44-0.91,0.87-1.351,1.45
		c0.061,0.05,0.12,0.09,0.16,0.16c0.97,1.67,0.11,2.56,0.16,4.29c0,0.1-0.02,0.18-0.05,0.26c0.729,1.439,0.84,3.02,0.52,4.55
		c0.04-0.03,0.08-0.05,0.11-0.08c0.41-0.35,0.95,0.07,0.82,0.49c0.29,0.36,0.13,1.08-0.471,1.05c-0.26-0.01-0.609,0.01-0.899-0.061
		c-1.221,3.051-4.15,5.58-7.3,5.811c-0.181,1.27-0.08,2.79,0.88,3.7c1,0.95,2.22,1.09,3.25,0c0.56-0.58,0.85-1.61,1.52-2.101
		c0.73-0.539,0.71-0.66,0.34-1.64c-0.109-0.31,0.19-0.71,0.521-0.68c1.55,0.159,2.02-0.42,2.899-1.511
		c0.32-0.409,0.551-0.56,1.051-0.609c0.31-0.04,0.489,0.37,0.35,0.609c-0.88,1.521-1.91,2.561-3.51,2.621
		c0.17,0.47,0.29,0.99,0.05,1.35c-0.26,0.4-0.68,0.47-0.97,0.8c-1.09,1.29-1.351,3.06-3.41,3.29c-1.46,0.16-2.49-0.43-3.15-1.359
		c0.49,1.989-0.13,3.979-3.01,3.569c-1.35-0.2-2.03-0.72-2.26-1.37c-1.01,0.57-2.181,0.961-3.2,0.42c-0.09-0.039-0.15-0.1-0.23-0.16
		c-1.22,1.32-2.989,2.08-4.75,1.381c-2.229-0.871-2.8-3.301-2.63-5.471c-0.949,0.07-2.109-0.01-2.399-0.99
		c-0.29-0.979,0.13-2.069,0.35-3.08c-0.64,0.051-1.28-0.06-1.83-0.439c-0.85-0.57-1.35-1.59-1.03-2.609
		c0.091-0.301,0.23-0.551,0.4-0.781c-1.08-0.51-1.95-1.42-1.95-2.709c0-0.811,0.2-1.641,0.66-2.33c0.44-0.641,1.42-1.23,1.66-1.93
		c0.9-2.65,3.11-3.09,5.12-2.15c0.34-0.89,0.859-1.71,1.35-2.56h-0.01c-0.39,0.19-0.74,0.4-1.05,0.7c-0.3,0.29-0.87,0.26-1.07-0.14
		c-0.149-0.3-0.26-0.6-0.36-0.89c-1.06,0.2-2.39,0.19-3.38-0.28c-0.17,0.04-0.35,0.08-0.529,0.13c-0.83,0.24-0.351,1.03-0.16,1.65
		c0.08,0.28-0.05,0.58-0.3,0.72c-0.74,0.44-1.29,0.92-1.74,1.64c0.03,0.02,0.07,0.05,0.12,0.09c0.189,0.07,0.359,0.16,0.529,0.26
		c0.23,0.16,0.381,0.28,0.58,0.48c0.41,0.41-0.13,1.13-0.63,0.81c-0.62-0.39-2.399-0.59-2.08-1.75c0.29-1.05,1.181-1.85,2.11-2.38
		c-0.28-0.79-0.39-1.68,0.26-2.32c0.19-0.19,0.45-0.32,0.73-0.42c-0.08-0.17-0.16-0.36-0.2-0.57c-0.42-2.36,2.66-4.01,3.59-5.82
		c0.29-0.57,0.68-1.07,1.35-1.2c1.37-0.27,1.261-0.76,1.94-1.91c1.3-2.21,4.09-1.81,6.17-1.3c0.15,0.04,0.22,0.15,0.23,0.28
		c0.529-0.07,1-0.08,1.04-0.15c0.31-0.59,0.09-1.5,0.67-1.91c0.62-0.45,1.729-0.34,2.56-0.29c0.28-0.98,0.351-1.75,1.101-2.64
		c0.149-0.18,0.489-0.27,0.71-0.18c2.05,0.79,3.54,1.98,4.75,3.82c0.04,0.06,0.06,0.12,0.069,0.17c0.49,0.15,0.95,0.54,1.351,1.01
		c0.1-0.17,0.279-0.3,0.529-0.27c1.03,0.14,3.45-0.46,4.23,0.54c0.47,0.6,0.55,1.14,0.71,1.88c0.17,0.77,1.74,1.65,2.24,2.28
		c1.16,1.45,0.949,2.64,0.13,3.51c0.45,0.37,0.88,0.78,1.04,1.33c0.21,0.72,0.08,1.74,0.609,2.32
		C49.459,27.792,50.03,28.353,50.219,28.813z M47.259,27.143c0.2-1.42-0.29-1.93-0.81-2.57c-0.641,0.35-1.37,0.6-2.101,0.72
		c-0.05,0.72-0.34,1.21-0.72,1.66c0.2-0.16,0.5-0.22,0.76-0.02c0.301,0.24,1.07,0.09,1.431,0.1c0.52,0.03,0.989,0.11,1.399,0.45
		c0.03,0.02,0.04,0.05,0.061,0.08C47.24,27.433,47.24,27.283,47.259,27.143z M46.37,22.922c0.34-0.3,0.439-0.72,0.06-1.34
		c-0.56-0.92-1.33-1.51-2.239-2.07c-0.311-0.19-0.391-0.49-0.341-0.83c0.4-2.6-1.939-1.93-3.68-2.12c0.18,0.28,0.34,0.56,0.48,0.83
		c1.1,0.68,2.149,1.46,2.68,2.67c0.49,1.11,0.45,2.36,0.33,3.56c0.54-0.03,1.43-0.1,2.1-0.35
		C45.809,23.022,46.11,22.873,46.37,22.922z M44.589,29.593c0.521-0.01,1.05-0.02,1.58-0.02c-0.09-0.48-0.21-0.94-0.11-1.4
		c-0.35-0.05-0.81,0.03-1.069,0.02c-0.09-0.01-0.181-0.02-0.26-0.02C44.74,28.633,44.65,29.123,44.589,29.593z M42.259,23.973
		c0.16-1.11,0.32-2.37-0.12-3.4c-0.31-0.75-0.909-1.29-1.569-1.74c-0.181,1.71-0.58,3.39-0.66,5.12v0.01
		c0.04-0.01,0.09-0.02,0.14-0.03C40.83,23.902,41.509,24.113,42.259,23.973z M42.57,25.323c-0.92,0.24-2.08,0.24-2.811-0.31
		c-0.22-0.17-0.3-0.44-0.25-0.66c-0.22,0.02-0.45-0.11-0.45-0.4c0-2.08,0.37-4.12,0.37-6.2c0-0.16,0.07-0.28,0.16-0.39
		c-0.819-1.24-2.01-2.32-2.7-0.24c-0.58,1.74-0.47,3.72,0.32,5.38c0.14,0.32,0.08,0.67-0.229,0.86c-0.23,0.14-2.24,1.16-1.96,1.6
		c0.38,0.57,0.89,1.04,1.369,1.52c0.011,0.01,0.021,0.02,0.03,0.03c0.14,0,0.28,0.02,0.43,0.06c0.86,0.28,1.19,1,1.431,1.78
		c0.68-0.02,1.359-0.03,2.05-0.03c0.02-0.09,0.05-0.19,0.12-0.29C41.059,27.152,42.36,26.453,42.57,25.323z M41.24,31.752
		c0.18-0.69,0.319-1.34,0.06-2.04c-1.17,0.01-2.34,0.03-3.5-0.04c-0.39-0.02-0.609-0.28-0.66-0.65c-0.189-1.57-0.88-1.3-2.029-1.11
		c-0.48,0.08-0.931,0.04-1.4-0.08c-0.04-0.02-0.07-0.04-0.1-0.06c-0.16,0.14-0.391,0.19-0.61,0.04c-0.15-0.11-0.85-0.67-1.52-1.06
		c0.01,0.2-0.101,0.4-0.33,0.46c-0.33,0.07-0.7,0.1-1.07,0.07c-0.021,0.91,0.22,1.87,0.45,2.69c0.06,0.21,0.01,0.49-0.17,0.63
		c-0.681,0.6-1.65,1.36-1.811,2.32c-0.2,1.18,1.13,1.63,2.03,1.9c0,0.01,0.01,0.01,0.02,0.01c0.73-0.449,1.5-0.83,2.301-1.149
		c0-0.01-0.011-0.02-0.021-0.04c-0.06-0.33-0.42-0.56-0.63-0.8c-0.24-0.3-0.5-0.63-0.6-1.02c-0.13-0.47-0.15-0.78,0.229-1.12
		c0.37-0.34,0.86-0.59,1.32-0.76c0.859-0.31,1.95-0.6,2.42,0.37c0.35,0.71,0.28,1.71,0.78,2.33c1-0.23,2-0.43,2.979-0.64
		c0.34-0.08,0.54,0.21,0.5,0.46c0.09,0.08,0.18,0.18,0.22,0.33c0.74,2.86-0.06,6.72-3.189,7.79c-2.79,0.951-5.11-0.83-6.09-3.31
		c-1.011,1.2-1.16,2.61,0.489,4.21c5.511,5.36,12.051-3.15,9.33-8.76C40.419,32.263,40.82,31.732,41.24,31.752z M36.559,39.303
		c2.48-1.04,2.66-3.881,2.32-6.17c-0.01-0.03,0-0.05,0-0.08c-1.979,0.69-5.28,1.84-7.24,3.43
		C32.589,38.303,34.309,40.242,36.559,39.303z M36.69,15.323c0.159-0.15,0.31-0.26,0.47-0.34c-0.84-0.95-1.811-1.76-2.97-2.29
		c-1.03-0.46-1.19,1.39-1.381,1.85c-0.119,0.29-0.319,0.5-0.649,0.5c-0.601,0-1.43-0.1-2.061,0.02c0,0.02,0,0.02,0,0.04
		c-0.06,0.72-0.31,1.28-0.71,1.88c-0.13,0.19-0.359,0.38-0.609,0.35c-1.87-0.19-1.641,0.7-1.92,1.67c0.66-0.09,1.34-0.1,2.04,0
		c0.52,0.08,0.37,0.88-0.12,0.89c-2.19,0.05-4.66,1.28-5.4,3.49c-0.75,2.27,0.641,3.63,2.601,4.22c0.04-0.21,0.079-0.42,0.109-0.64
		c-1.189-0.53-2.359-1.65-2.189-3.03c0.18-1.46,1.83-2.46,3.189-2.56c0.12,0,0.19,0.05,0.24,0.13c0.15-0.4,0.33-0.78,0.54-1.14
		c0.21-0.35,0.72-0.19,0.74,0.2c0.1,1.69-0.33,3.5-0.771,5.27c0.021-0.02,0.03-0.05,0.05-0.06c0.08-0.07,0.131-0.17,0.21-0.25
		c0.12-0.09,0.28,0,0.261,0.13c0.199,0.05,0.399,0.16,0.6,0.25c0.11-0.21,0.25-0.41,0.44-0.57c1.3-1.1,3.33,0.65,4.229,1.55
		c0.101-0.05,0.22-0.08,0.36-0.05c0.399,0.09,0.81,0,1.22-0.11c-0.8-0.47-1.57-1.03-1.65-2.03c-0.079-1.06,1.391-1.8,2.341-2.21
		c-0.37-1.17-0.641-2.55-0.561-3.85c-0.13,0.93,0,1.89-0.39,2.81c-0.08,0.2-0.34,0.31-0.54,0.31c-0.92,0-2.49,0-2.76-1.16
		c-0.21-0.86,0.149-1.76,0-2.65c-0.091-0.29,0.029-0.66,0.359-0.72c0.95-0.19,2-0.01,2.971-0.02c0.22,0,0.42,0.16,0.5,0.36
		C35.669,16.723,36.049,15.942,36.69,15.323z M35.53,32.853c-0.34-0.7-0.34-1.56-0.75-2.19c-0.721,0.15-1.4,0.42-1.98,0.88
		c0.141,0.7,0.78,1.16,0.88,1.87C34.29,33.203,34.91,33.013,35.53,32.853z M34.299,47.672c-0.18-0.879-0.16-1.819,0.05-2.689
		c-1.149-0.08-2.31-0.48-3.409-1.279c-0.21-0.16-0.41-0.32-0.601-0.5c-0.01,0.049-0.01,0.1-0.03,0.14
		c-0.26,0.54-1.029,1.03-1.5,1.399c-0.529,0.41-1.039,0.67-1.72,0.76c-0.24,0.021-0.5-0.159-0.6-0.35
		c-0.311-0.55-0.5-1.07-0.62-1.619c-0.7,0.439-1.41,0.909-1.72,1.639c-0.61,1.4,1.55,2.171,2.529,2.451
		c0.33,0.09,0.46,0.399,0.41,0.72c-0.02,0.11-0.04,0.22-0.06,0.35c0.42-0.05,0.85,0.261,0.7,0.79c-0.101,0.36-0.24,0.71-0.421,1.051
		c0.15,0.109,0.341,0.18,0.61,0.17c0.64-0.021,1.271-0.131,1.89-0.281c0.391-1.329,1.78-2.779,3.07-3.459
		c0.07-0.301,0.45-0.49,0.71-0.211C33.849,47.013,34.089,47.332,34.299,47.672z M34.089,18.953c0.021-0.22,0.061-0.43,0.11-0.63
		c-0.47,0.02-0.94,0.05-1.4,0.04c0.05,0.56,0.01,1.11,0.04,1.69c0.01,0.2-0.01,0.24,0.15,0.3c0.29,0.13,0.64,0.15,0.979,0.15
		C34.099,20.002,34.059,19.482,34.089,18.953z M32.86,51.643c2.22-0.279,0.989-2.62,0.26-3.98c-0.59,0.69-1.5,1.84-1.78,2.74
		c0.01,0.07-0.01,0.16-0.06,0.23c-0.08,0.449,0.04,0.81,0.529,0.96c-0.18-0.36-0.289-0.761-0.26-1.16
		c0.061-0.69,0.92-0.761,1.16-0.22l0.01-0.01c0.28,0,0.29,0.39,0.051,0.449c0,0.19-0.011,0.4-0.04,0.58
		C32.709,51.363,32.78,51.502,32.86,51.643z M29.78,42.652c-0.181-0.199-0.351-0.4-0.51-0.6c-0.551,0.25-1.211,0.18-1.82,0.3
		c-0.04,0.011-0.08,0.021-0.11,0.03c-0.01,0.02-0.01,0.029-0.01,0.05c0,0.26,0.01,0.521,0.04,0.78c0.02,0.27,0.09,0.539,0.17,0.8
		C28.339,43.692,28.879,42.633,29.78,42.652z M29.169,29.922c-0.24-0.86-0.56-1.98-0.49-2.96c-0.3-0.13-0.569-0.29-0.79-0.49
		c-0.08-0.07-0.119-0.18-0.13-0.29c-0.21,0.84-0.42,1.67-0.569,2.46c-0.07,0.4-0.5,0.54-0.851,0.48c-1.26-0.2-2.47-0.75-3.359-1.56
		c-0.04,0.06-0.101,0.13-0.171,0.17c-0.109,0.07-0.229,0.13-0.359,0.17c0,0.04,0.01,0.07,0,0.11c-0.24,1.01-0.75,1.87-1.07,2.85
		c-0.13,0.41-0.1,0.69,0.01,0.89c0.12,0.11,0.23,0.21,0.351,0.32c0.359,0.17,0.89,0.17,1.399,0.14c0.391-0.03,0.79,0.36,0.761,0.75
		c-0.051,0.69-0.2,1.209-0.38,1.87c-0.011,0.041-0.011,0.07-0.021,0.11c0.09,0.091,0.14,0.229,0.08,0.4
		c-0.021,0.04-0.04,0.079-0.06,0.12c0.14,0.39,0.569,0.59,1.069,0.82c1.36,0.619,2.521,0.649,3.851,0.649
		c0.27-0.5,0.649-0.99,1.199-1.431c-1.13-0.219-2.149-0.739-2.399-2.009C26.959,32.093,28.16,30.792,29.169,29.922z M27.759,41.082
		c0.28,0.021,0.61,0.08,0.92,0.041c-0.479-0.891-0.729-1.851-0.649-2.78c-1.84,0.149-3.67-0.729-5.29-1.65
		c-0.021,0.021-0.03,0.03-0.04,0.05c-0.771,0.91-0.11,1.371,0.74,1.91c0.3,0.18,0.359,0.51,0.22,0.82
		c-0.36,0.79-1.07,2.05,0.01,2.54c0.47,0.22,0.96,0.37,1.45,0.54c0.2-0.1,0.41-0.189,0.61-0.26c0-0.11-0.011-0.2-0.021-0.311
		c0-0.47,0.38-0.76,0.811-0.811C26.95,41.133,27.32,41.043,27.759,41.082z M26.25,26.022c0.22-1.33,0.45-2.72,0.87-3.97
		c-0.76,0.48-2.13,0.98-2.05,2.06C25.139,24.922,25.679,25.493,26.25,26.022z M25.87,16.613c0.06-0.1,0.16-0.18,0.27-0.25
		c-2.22,0.02-4.09,0.66-4.52,3.28c-0.04,0.25-0.3,0.47-0.53,0.53c-0.399,0.1-1.609,0.16-1.83,0.57c-0.319,0.61-0.64,1.69-1.17,2.1
		c-0.63,0.49-2.74,1.96-2.33,3c0.07,0.17,0.17,0.29,0.29,0.41c0.11-0.01,0.23-0.02,0.33-0.03c0.3-0.02,0.48,0.21,0.521,0.46
		c0.52,0.12,1.13,0.13,1.649,0.14c-0.06-0.38-0.1-0.77-0.109-1.18c-0.021-0.52,0.489-0.84,0.96-0.73c0.699,0.15,1.47,0.15,2.21,0.18
		c-0.101-0.65-0.03-1.36,0.26-2.13c0.66-1.73,1.92-2.93,3.47-3.55C25.389,18.462,25.339,17.442,25.87,16.613z M25.52,50.383
		c-0.051-0.58,0.079-1.221,0.26-1.801c-1.51-0.459-3.09-1.199-3.101-3.01c0-0.85,0.521-1.619,1.221-2.22
		c-0.641-0.13-1.25-0.36-1.681-0.88c-0.739-0.88-0.3-2.12,0.16-3.1c-0.74-0.5-1.59-1.201-1.35-2.131c0.13-0.51,0.46-1.01,0.84-1.449
		c0,0,0,0,0-0.01c0-0.761,0.229-1.431,0.39-2.141c-0.79-0.09-1.52-0.25-2.319-0.59c-0.221-0.09-0.391-0.42-0.37-0.65
		c0.02-0.2,0.05-0.4,0.08-0.59c-0.471-0.24-0.971-0.42-1.511-0.39c-1.159,0.08-1.77,1-2.22,1.99c-0.5,1.1-1.76,1.71-2.05,2.98
		s0.39,2.09,1.36,2.76c0.63-0.46,1.42-0.76,2.159-0.96c0.37-0.1,0.61,0.271,0.511,0.56c0.37-0.109,0.75-0.209,1.13-0.189
		c0.67,0.02,1.189,0.34,1.7,0.76c0.149,0.131,0.199,0.381,0.149,0.561c-0.43,1.4-1.29,2.949-2.71,3.55
		c-0.06,0.03-0.13,0.05-0.189,0.069c-0.011,0.74-0.11,1.471-0.141,2.211c-0.05,1.09,1.12,0.75,1.92,0.65
		c0.49-0.061,0.721,0.489,0.67,0.879c-0.229,1.521-0.01,4.19,1.87,4.69C23.79,52.332,24.73,51.442,25.52,50.383z M20.099,27.373
		c0.66-0.4,1.471-0.71,2.171-0.61c-0.131-0.19-0.25-0.39-0.341-0.59c-0.649,0.04-1.33,0.03-1.979,0.11
		C19.959,26.663,20.009,27.013,20.099,27.373z"/>
	<path fill="#99B815" d="M46.45,24.573c0.52,0.64,1.01,1.15,0.81,2.57c-0.02,0.14-0.02,0.29,0.021,0.42
		c-0.021-0.03-0.03-0.06-0.061-0.08c-0.41-0.34-0.88-0.42-1.399-0.45c-0.36-0.01-1.13,0.14-1.431-0.1c-0.26-0.2-0.56-0.14-0.76,0.02
		c0.38-0.45,0.67-0.94,0.72-1.66C45.08,25.172,45.809,24.922,46.45,24.573z"/>
	<path fill="#99B815" d="M46.429,21.583c0.38,0.62,0.28,1.04-0.06,1.34c-0.26-0.05-0.561,0.1-0.61,0.35
		c-0.67,0.25-1.56,0.32-2.1,0.35c0.12-1.2,0.16-2.45-0.33-3.56c-0.53-1.21-1.58-1.99-2.68-2.67c-0.141-0.27-0.301-0.55-0.48-0.83
		c1.74,0.19,4.08-0.48,3.68,2.12c-0.05,0.34,0.03,0.64,0.341,0.83C45.099,20.073,45.87,20.663,46.429,21.583z"/>
	<path fill="#FF4121" d="M42.139,20.573c0.44,1.03,0.28,2.29,0.12,3.4c-0.75,0.14-1.43-0.07-2.21-0.04
		c-0.05,0.01-0.1,0.02-0.14,0.03v-0.01c0.08-1.73,0.479-3.41,0.66-5.12C41.23,19.283,41.83,19.823,42.139,20.573z"/>
	<path fill="#99B815" d="M39.759,25.013c0.73,0.55,1.891,0.55,2.811,0.31c-0.21,1.13-1.511,1.83-2.12,2.71
		c-0.07,0.1-0.101,0.2-0.12,0.29c-0.69,0-1.37,0.01-2.05,0.03c-0.24-0.78-0.57-1.5-1.431-1.78c-0.149-0.04-0.29-0.06-0.43-0.06
		c-0.01-0.01-0.02-0.02-0.03-0.03c-0.479-0.48-0.989-0.95-1.369-1.52c-0.28-0.44,1.729-1.46,1.96-1.6
		c0.31-0.19,0.369-0.54,0.229-0.86c-0.79-1.66-0.9-3.64-0.32-5.38c0.69-2.08,1.881-1,2.7,0.24c-0.09,0.11-0.16,0.23-0.16,0.39
		c0,2.08-0.37,4.12-0.37,6.2c0,0.29,0.23,0.42,0.45,0.4C39.459,24.573,39.54,24.843,39.759,25.013z"/>
	<path fill="#99B815" d="M30.599,34.832c0.73-0.449,1.5-0.83,2.301-1.149c0-0.01-0.011-0.02-0.021-0.04
		c-0.06-0.33-0.42-0.56-0.63-0.8c-0.24-0.3-0.5-0.63-0.6-1.02c-0.13-0.47-0.15-0.78,0.229-1.12c0.37-0.34,0.86-0.59,1.32-0.76
		c0.859-0.31,1.95-0.6,2.42,0.37c0.35,0.71,0.28,1.71,0.78,2.33c1-0.23,2-0.43,2.979-0.64c0.236-0.056,0.399,0.071,0.467,0.236
		h0.769c0.092-0.28,0.353-0.499,0.625-0.486c0.18-0.69,0.319-1.34,0.06-2.04c-1.17,0.01-2.34,0.03-3.5-0.04
		c-0.39-0.02-0.609-0.28-0.66-0.65c-0.189-1.57-0.88-1.3-2.029-1.11c-0.48,0.08-0.931,0.04-1.4-0.08c-0.04-0.02-0.07-0.04-0.1-0.06
		c-0.16,0.14-0.391,0.19-0.61,0.04c-0.15-0.11-0.85-0.67-1.52-1.06c0.01,0.2-0.101,0.4-0.33,0.46c-0.33,0.07-0.7,0.1-1.07,0.07
		c-0.021,0.91,0.22,1.87,0.45,2.69c0.06,0.21,0.01,0.49-0.17,0.63c-0.681,0.6-1.65,1.36-1.811,2.32c-0.2,1.18,1.13,1.63,2.03,1.9
		C30.58,34.832,30.589,34.832,30.599,34.832z"/>
	<path fill="#FF4121" d="M39.89,32.077c0.552,2.802-0.01,7.49-2.98,8.505c-2.79,0.951-5.11-0.83-6.09-3.31
		c-1.011,1.2-1.16,2.61,0.489,4.21c5.344,5.198,12.145-1.873,9.446-9.457L39.89,32.077z"/>
	<path fill="#FF4121" d="M38.879,33.133c0.34,2.289,0.16,5.13-2.32,6.17c-2.25,0.939-3.97-1-4.92-2.82
		c1.96-1.59,5.261-2.74,7.24-3.43C38.879,33.083,38.87,33.103,38.879,33.133z"/>
	<path fill="#99B815" d="M32.009,17.223c0.95-0.19,2-0.01,2.971-0.02c0.22,0,0.42,0.16,0.5,0.36c0.189-0.84,0.569-1.62,1.21-2.24
		c0.159-0.15,0.31-0.26,0.47-0.34c-0.84-0.95-1.811-1.76-2.97-2.29c-1.03-0.46-1.19,1.39-1.381,1.85
		c-0.119,0.29-0.319,0.5-0.649,0.5c-0.601,0-1.43-0.1-2.061,0.02c0,0.02,0,0.02,0,0.04c-0.06,0.72-0.31,1.28-0.71,1.88
		c-0.13,0.19-0.359,0.38-0.609,0.35c-1.87-0.19-1.641,0.7-1.92,1.67c0.66-0.09,1.34-0.1,2.04,0c0.52,0.08,0.37,0.88-0.12,0.89
		c-0.057,0.001-0.114,0.012-0.171,0.015c-0.041,0.132-0.073,0.268-0.105,0.402c0.059,0.066,0.101,0.149,0.106,0.252
		c0.1,1.69-0.33,3.5-0.771,5.27c0.021-0.02,0.03-0.05,0.05-0.06c0.08-0.07,0.131-0.17,0.21-0.25c0.12-0.09,0.28,0,0.261,0.13
		c0.199,0.05,0.399,0.16,0.6,0.25c0.11-0.21,0.25-0.41,0.44-0.57c1.3-1.1,3.33,0.65,4.229,1.55c0.101-0.05,0.22-0.08,0.36-0.05
		c0.399,0.09,0.81,0,1.22-0.11c-0.8-0.47-1.57-1.03-1.65-2.03c-0.079-1.06,1.391-1.8,2.341-2.21c-0.37-1.17-0.641-2.55-0.561-3.85
		c-0.13,0.93,0,1.89-0.39,2.81c-0.08,0.2-0.34,0.31-0.54,0.31c-0.92,0-2.49,0-2.76-1.16c-0.21-0.86,0.149-1.76,0-2.65
		C31.559,17.652,31.679,17.283,32.009,17.223z"/>
	<path fill="#99B815" d="M34.349,44.982c-0.21,0.87-0.229,1.811-0.05,2.689c-0.21-0.34-0.45-0.659-0.71-0.92
		c-0.26-0.279-0.64-0.09-0.71,0.211c-1.29,0.68-2.68,2.13-3.07,3.459c-0.619,0.15-1.25,0.261-1.89,0.281
		c-0.27,0.01-0.46-0.061-0.61-0.17c0.181-0.341,0.32-0.69,0.421-1.051c0.149-0.529-0.28-0.84-0.7-0.79
		c0.02-0.13,0.04-0.239,0.06-0.35c0.05-0.32-0.08-0.63-0.41-0.72c-0.979-0.28-3.14-1.051-2.529-2.451
		c0.31-0.729,1.02-1.199,1.72-1.639c0.12,0.549,0.31,1.069,0.62,1.619c0.1,0.19,0.359,0.37,0.6,0.35c0.681-0.09,1.19-0.35,1.72-0.76
		c0.471-0.369,1.24-0.859,1.5-1.399c0.021-0.04,0.021-0.091,0.03-0.14c0.19,0.18,0.391,0.34,0.601,0.5
		C32.04,44.502,33.2,44.902,34.349,44.982z"/>
	<path fill="#99B815" d="M47.37,27.743c0.04,0.19-0.021,0.41-0.15,0.56c-0.319,0.38,0.141,1.39,0.16,1.85
		c0.021,0.31-0.27,0.57-0.57,0.57c-0.939,0-1.88,0-2.819-0.03c-0.28-0.01-0.561-0.24-0.54-0.54c0.03-0.43,0.149-0.85,0.229-1.27
		c0.04-0.26,0.16-0.73,0.07-1.05c-0.05-0.04-0.1-0.06-0.15-0.11c-0.239-0.22-0.21-0.48-0.069-0.66c-0.41,0.44-0.91,0.87-1.351,1.45
		c0.061,0.05,0.12,0.09,0.16,0.16c0.97,1.67,0.11,2.56,0.16,4.29c0,0.1-0.02,0.18-0.05,0.26c0.729,1.439,0.84,3.02,0.52,4.55
		c0.04-0.03,0.08-0.05,0.11-0.08c0.41-0.35,0.95,0.07,0.82,0.49c0.29,0.36,0.13,1.08-0.471,1.05c-0.26-0.01-0.609,0.01-0.899-0.061
		c-1.221,3.051-4.15,5.58-7.3,5.811c-0.181,1.27-0.08,2.79,0.88,3.7c1,0.95,2.22,1.09,3.25,0c0.56-0.58,0.85-1.61,1.52-2.101
		c0.73-0.539,0.71-0.66,0.34-1.64c-0.109-0.31,0.19-0.71,0.521-0.68c1.55,0.159,2.02-0.42,2.899-1.511
		c0.182-0.232,0.339-0.375,0.528-0.469c0.063-0.136,1.016-0.178,1.082-0.311c-0.227-0.023-1.343-0.123-1.55-0.051
		c-0.561,0.191-0.91-0.67-0.4-0.949c0.59-0.32,1.2-0.24,1.84-0.23c0.78,0.021,1-0.67,1.141-1.34c-0.04-0.029-0.08-0.06-0.12-0.09
		c-0.44,0.21-1.07-0.17-1.09-0.72c-0.21-0.101-0.42-0.21-0.63-0.31c-0.29,0.84-0.44,1.739-1.03,2.43c-0.49,0.58-1.33-0.26-0.83-0.84
		c0.58-0.681,0.66-1.881,1.03-2.701c0.14-0.309,0.54-0.34,0.81-0.209c0.4,0.189,0.79,0.359,1.17,0.55
		c0.59-0.86,1.24-1.851,0.25-2.88c-0.359-0.381-0.25-0.91,0.15-1.19c2.399-1.69,2.54-3.76,0.45-5.61
		C47.41,27.803,47.389,27.772,47.37,27.743z"/>
	<path fill="#F6F6F6" d="M32.16,9.783c-0.19,0-0.34-0.05-0.48-0.12c-11.97,2.07-20.689,10.82-21.609,23.46
		c-0.891,12.18,6.35,23.39,19.59,22.85C55.179,54.942,60.79,10.243,32.16,9.783z M47.82,38.263c0.109,0.09,0.229,0.17,0.34,0.28
		c0.71,0.68,0.21,1.92-0.3,2.629c-0.335,0.48-0.862,0.743-1.434,0.783c-0.15,0.314-0.324,0.619-0.455,0.942
		c-0.034,0.085-0.086,0.147-0.145,0.198c-0.835,1.328-1.823,2.222-3.297,2.277c0.17,0.47,0.29,0.99,0.05,1.35
		c-0.26,0.4-0.68,0.47-0.97,0.8c-1.09,1.29-1.351,3.06-3.41,3.29c-1.46,0.16-2.49-0.43-3.15-1.359c0.49,1.989-0.13,3.979-3.01,3.569
		c-1.35-0.2-2.03-0.72-2.26-1.37c-1.01,0.57-2.181,0.961-3.2,0.42c-0.09-0.039-0.15-0.1-0.23-0.16c-1.22,1.32-2.989,2.08-4.75,1.381
		c-2.229-0.871-2.8-3.301-2.63-5.471c-0.949,0.07-2.109-0.01-2.399-0.99c-0.29-0.979,0.13-2.069,0.35-3.08
		c-0.64,0.051-1.28-0.06-1.83-0.439c-0.85-0.57-1.35-1.59-1.03-2.609c0.091-0.301,0.23-0.551,0.4-0.781
		c-1.08-0.51-1.95-1.42-1.95-2.709c0-0.811,0.2-1.641,0.66-2.33c0.214-0.311,0.555-0.61,0.876-0.916
		c-0.175-0.156-0.344-0.319-0.511-0.482c-0.077-0.004-0.156-0.021-0.235-0.072c-0.62-0.39-2.399-0.59-2.08-1.75
		c0.29-1.05,1.181-1.85,2.11-2.38c-0.28-0.79-0.39-1.68,0.26-2.32c0.19-0.19,0.45-0.32,0.73-0.42c-0.08-0.17-0.16-0.36-0.2-0.57
		c-0.42-2.36,2.66-4.01,3.59-5.82c0.29-0.57,0.68-1.07,1.35-1.2c1.37-0.27,1.261-0.76,1.94-1.91c1.3-2.21,4.09-1.81,6.17-1.3
		c0.15,0.04,0.22,0.15,0.23,0.28c0.529-0.07,1-0.08,1.04-0.15c0.31-0.59,0.09-1.5,0.67-1.91c0.62-0.45,1.729-0.34,2.56-0.29
		c0.28-0.98,0.351-1.75,1.101-2.64c0.149-0.18,0.489-0.27,0.71-0.18c2.05,0.79,3.54,1.98,4.75,3.82c0.04,0.06,0.06,0.12,0.069,0.17
		c0.49,0.15,0.95,0.54,1.351,1.01c0.1-0.17,0.279-0.3,0.529-0.27c1.03,0.14,3.45-0.46,4.23,0.54c0.47,0.6,0.55,1.14,0.71,1.88
		c0.17,0.77,1.74,1.65,2.24,2.28c1.16,1.45,0.949,2.64,0.13,3.51c0.45,0.37,0.88,0.78,1.04,1.33c0.21,0.72,0.08,1.74,0.609,2.32
		c0.32,0.35,0.891,0.91,1.08,1.37c1.03,2.37-0.09,3.98-1.83,5.43C49.41,35.953,48.639,36.683,47.82,38.263z"/>
	<path fill="#99B815" d="M20.24,28.942c-0.3,0.29-0.87,0.26-1.07-0.14c-0.149-0.3-0.26-0.6-0.36-0.89c-1.06,0.2-2.39,0.19-3.38-0.28
		c-0.17,0.04-0.35,0.08-0.529,0.13c-0.83,0.24-0.351,1.03-0.16,1.65c0.08,0.28-0.05,0.58-0.3,0.72c-0.74,0.44-1.29,0.92-1.74,1.64
		c0.03,0.02,0.07,0.05,0.12,0.09c0.189,0.07,0.359,0.16,0.529,0.26c0.102,0.07,0.184,0.132,0.265,0.197
		c0.091,0.013,0.235,1.006,0.319,1.08c0.286,0.249,0.128,0.153,0.407,0.407c0.052-0.086,0.459-0.766,0.489-0.854
		c0.9-2.65,3.11-3.09,5.12-2.15c0.34-0.89,0.859-1.71,1.35-2.56h-0.01C20.9,28.433,20.549,28.643,20.24,28.942z"/>
	<path fill="#99B815" d="M28.679,26.962c-0.069,0.98,0.25,2.1,0.49,2.96c-1.01,0.87-2.21,2.17-1.93,3.57
		c0.25,1.27,1.27,1.791,2.399,2.009c-0.55,0.44-0.93,0.931-1.199,1.431c-1.33,0-2.49-0.03-3.851-0.649
		c-0.5-0.23-0.93-0.431-1.069-0.82c0.02-0.041,0.039-0.08,0.06-0.12c0.06-0.171,0.01-0.31-0.08-0.4c0.01-0.04,0.01-0.069,0.021-0.11
		c0.18-0.66,0.329-1.18,0.38-1.87c0.029-0.39-0.37-0.78-0.761-0.75c-0.51,0.03-1.04,0.03-1.399-0.14
		c-0.12-0.11-0.23-0.21-0.351-0.32c-0.109-0.2-0.14-0.48-0.01-0.89c0.32-0.98,0.83-1.84,1.07-2.85c0.01-0.04,0-0.07,0-0.11
		c0.13-0.04,0.25-0.1,0.359-0.17c0.07-0.04,0.131-0.11,0.171-0.17c0.89,0.81,2.1,1.36,3.359,1.56c0.351,0.06,0.78-0.08,0.851-0.48
		c0.149-0.79,0.359-1.62,0.569-2.46c0.011,0.11,0.05,0.22,0.13,0.29C28.11,26.672,28.379,26.833,28.679,26.962z"/>
	<path fill="#99B815" d="M28.679,41.123c-0.31,0.039-0.64-0.021-0.92-0.041c-0.439-0.039-0.81,0.051-1.239,0.09
		c-0.431,0.051-0.811,0.341-0.811,0.811c0.01,0.11,0.021,0.2,0.021,0.311c-0.2,0.07-0.41,0.16-0.61,0.26
		c-0.49-0.17-0.98-0.32-1.45-0.54c-1.08-0.49-0.37-1.75-0.01-2.54c0.14-0.311,0.08-0.641-0.22-0.82c-0.851-0.539-1.511-1-0.74-1.91
		c0.01-0.02,0.02-0.029,0.04-0.05c1.62,0.921,3.45,1.8,5.29,1.65C27.95,39.272,28.2,40.232,28.679,41.123z"/>
	<path fill="#FF4121" d="M27.12,22.053c-0.42,1.25-0.65,2.64-0.87,3.97c-0.57-0.53-1.11-1.1-1.18-1.91
		C24.99,23.033,26.36,22.533,27.12,22.053z"/>
	<path fill="#99B815" d="M26.139,16.363c-0.109,0.07-0.21,0.15-0.27,0.25c-0.53,0.83-0.48,1.85-0.53,2.8
		c-1.55,0.62-2.81,1.82-3.47,3.55c-0.29,0.77-0.36,1.48-0.26,2.13c-0.74-0.03-1.511-0.03-2.21-0.18c-0.471-0.11-0.98,0.21-0.96,0.73
		c0.01,0.41,0.05,0.8,0.109,1.18c-0.52-0.01-1.13-0.02-1.649-0.14c-0.04-0.25-0.221-0.48-0.521-0.46c-0.1,0.01-0.22,0.02-0.33,0.03
		c-0.12-0.12-0.22-0.24-0.29-0.41c-0.41-1.04,1.7-2.51,2.33-3c0.53-0.41,0.851-1.49,1.17-2.1c0.221-0.41,1.431-0.47,1.83-0.57
		c0.23-0.06,0.49-0.28,0.53-0.53C22.049,17.022,23.919,16.383,26.139,16.363z"/>
	<path fill="#99B815" d="M25.78,48.582c-0.181,0.58-0.311,1.221-0.26,1.801c-0.79,1.06-1.73,1.949-3.221,1.55
		c-1.88-0.5-2.1-3.17-1.87-4.69c0.051-0.39-0.18-0.939-0.67-0.879c-0.8,0.1-1.97,0.439-1.92-0.65c0.03-0.74,0.13-1.471,0.141-2.211
		c0.06-0.02,0.13-0.039,0.189-0.069c1.42-0.601,2.28-2.149,2.71-3.55c0.05-0.18,0-0.43-0.149-0.561c-0.511-0.42-1.03-0.74-1.7-0.76
		c-0.38-0.02-0.76,0.08-1.13,0.189c0.1-0.289-0.141-0.659-0.511-0.56c-0.739,0.2-1.529,0.5-2.159,0.96
		c-0.971-0.67-1.65-1.49-1.36-2.76s1.55-1.88,2.05-2.98c0.45-0.99,1.061-1.91,2.22-1.99c0.54-0.03,1.04,0.15,1.511,0.39
		c-0.03,0.19-0.061,0.39-0.08,0.59c-0.021,0.23,0.149,0.56,0.37,0.65c0.8,0.34,1.529,0.5,2.319,0.59
		c-0.16,0.71-0.39,1.38-0.39,2.141c0,0.01,0,0.01,0,0.01c-0.38,0.439-0.71,0.939-0.84,1.449c-0.24,0.93,0.609,1.631,1.35,2.131
		c-0.46,0.979-0.899,2.22-0.16,3.1c0.431,0.52,1.04,0.75,1.681,0.88c-0.7,0.601-1.221,1.37-1.221,2.22
		C22.69,47.383,24.27,48.123,25.78,48.582z"/>
	<path fill="#1D1D1B" d="M17.509,41.152c0.38,0.01,0.311,0.58-0.08,0.52c-0.479-0.059-0.649-0.569-1.1-0.629
		c-0.22-0.03-0.16-0.381,0.05-0.381c0.22,0.01,0.4,0.061,0.57,0.19C17.139,40.992,17.25,41.152,17.509,41.152z"/>
	<polygon fill="#EC7724" points="34.088,20.93 35.004,18.08 32.51,17.826 32.409,20.421 	"/>
	<polygon fill="#EC7724" points="44.573,27.801 43.912,29.837 46.405,30.244 46.863,27.852 	"/>
	<polygon fill="#EC7724" points="36.125,33.196 34.801,30.092 32.206,31.262 33.274,33.756 	"/>
	<polygon fill="#EC7724" points="23.197,26.834 21.11,27.7 19.583,28.005 19.43,25.613 22.484,25.511 	"/>
	<polygon fill="#EC7724" points="29.661,41.391 26.403,41.951 27.421,44.953 31.085,42.561 	"/>
	<path fill="#EC7724" d="M33.172,47.193c0,0-2.494,2.545-2.545,3.257s-0.203,1.781,1.578,1.884c1.781,0.102,3.206-1.375,2.493-2.8
		C33.987,48.109,33.172,47.193,33.172,47.193z"/>
	<path fill="#EC7724" d="M20.295,39.609l-3.206-0.662c0,0-2.646,1.375-2.342,2.494c0.306,1.119,1.477,2.138,2.698,1.629
		C18.667,42.561,20.601,40.779,20.295,39.609z"/>
</g>
<g>
</g>
<g>
</g>
<g>
</g>
<g>
</g>
<g>
</g>
<g>
</g>
<g>
</g>
<g>
</g>
<g>
</g>
<g>
</g>
<g>
</g>
</svg>
