<?xml version="1.0" encoding="utf-8"?>
<!-- Generator: Adobe Illustrator 16.0.4, SVG Export Plug-In . SVG Version: 6.00 Build 0)  -->
<!DOCTYPE svg PUBLIC "-//W3C//DTD SVG 1.1//EN" "http://www.w3.org/Graphics/SVG/1.1/DTD/svg11.dtd">
<svg version="1.1" id="Artwork" xmlns="http://www.w3.org/2000/svg" xmlns:xlink="http://www.w3.org/1999/xlink" x="0px" y="0px"
	 width="256px" height="256px" viewBox="0 0 256 256" enable-background="new 0 0 256 256" xml:space="preserve">
<g>
	<path fill="#FF381F" d="M163.003,96.706c0.646,0.999,1.731,1.543,2.838,1.543c0.628,0,1.263-0.175,1.829-0.541
		c1.564-1.012,2.014-3.101,1.002-4.667c-0.104-0.16-10.495-16.645-1.679-27.884c4.873-6.212,5.724-14.037,2.463-22.629
		c-2.329-6.136-5.976-10.535-6.13-10.719c-1.195-1.43-3.324-1.62-4.754-0.424c-1.43,1.195-1.619,3.32-0.428,4.75
		c0.164,0.199,11.729,14.412,3.537,24.856C149.885,76.032,162.462,95.869,163.003,96.706z"/>
	<path fill="#FF381F" d="M195.656,109.706c0.646,0.999,1.73,1.543,2.837,1.543c0.628,0,1.263-0.175,1.83-0.541
		c1.565-1.012,2.014-3.101,1.002-4.667c-0.103-0.16-10.495-16.645-1.679-27.884c4.873-6.212,5.724-14.037,2.463-22.629
		c-2.329-6.136-5.977-10.535-6.131-10.719c-1.194-1.43-3.324-1.62-4.754-0.424c-1.428,1.194-1.619,3.319-0.428,4.749
		c0.118,0.143,11.746,14.392,3.537,24.857C182.537,89.032,195.115,108.869,195.656,109.706z"/>
	<path fill="#FF381F" d="M53.94,111.27c0.646,0.999,1.73,1.543,2.837,1.543c0.628,0,1.263-0.175,1.829-0.541
		c1.565-1.012,2.014-3.102,1.001-4.667c-0.103-0.16-10.495-16.645-1.678-27.884c4.873-6.212,5.724-14.037,2.463-22.629
		c-2.33-6.136-5.976-10.535-6.13-10.719c-1.195-1.43-3.323-1.62-4.754-0.424c-1.428,1.194-1.619,3.319-0.428,4.749
		c0.119,0.143,11.746,14.392,3.538,24.857C40.82,90.596,53.398,110.432,53.94,111.27z"/>
	<path fill="#FF381F" d="M88.592,96.27c0.646,0.999,1.73,1.543,2.837,1.543c0.628,0,1.263-0.175,1.83-0.541
		c1.565-1.012,2.014-3.102,1.001-4.667c-0.103-0.16-10.494-16.645-1.678-27.884c4.873-6.212,5.724-14.037,2.464-22.629
		c-2.329-6.136-5.976-10.535-6.13-10.719c-1.195-1.43-3.323-1.62-4.754-0.424c-1.428,1.194-1.619,3.319-0.428,4.749
		c0.119,0.143,11.746,14.392,3.537,24.857C75.473,75.596,88.051,95.432,88.592,96.27z"/>
	<path d="M218.841,185.77h-7.159c-1.681-42.103-34.652-76.29-76.24-79.9v-3.437c4.223-2.526,6.845-7.054,6.845-12.088
		c0-7.792-6.341-14.132-14.133-14.132c-0.051,0-0.254,0-0.305,0c-7.793,0-14.133,6.34-14.133,14.132
		c0,5.034,2.623,9.563,6.844,12.088v3.437c-41.588,3.61-74.559,37.797-76.24,79.9H37.16c-6.177,0-11.203,5.025-11.203,11.203v4.219
		c0,6.182,5.026,11.211,11.203,11.211h181.682c6.178,0,11.203-5.029,11.203-11.211v-4.219
		C230.044,190.795,225.018,185.77,218.841,185.77z"/>
	<path fill="#C0C0C0" d="M120.464,90.344c0-4.07,3.312-7.382,7.383-7.382c0.052,0,0.254,0,0.305,0c4.071,0,7.383,3.312,7.383,7.382
		c0,3.043-1.846,5.735-4.703,6.856c-1.292,0.507-2.141,1.754-2.141,3.142v5.211h-1.383v-5.211c0-1.388-0.85-2.634-2.141-3.142
		C122.31,96.078,120.464,93.387,120.464,90.344z"/>
	<path fill="#C0C0C0" d="M223.294,201.191c0,2.459-1.998,4.461-4.453,4.461H37.159c-2.456,0-4.453-2.002-4.453-4.461v-4.219
		c0-2.455,1.998-4.453,4.453-4.453h5.549c0.031,0.002,0.06,0.006,0.091,0.006H164c1.864,0,1.375-1.512,1.375-3.375
		c0-1.26,0.223-2.357-0.207-2.938c-0.207-0.278-0.563-0.438-1.168-0.438H51.079c1.766-40.713,35.356-73.309,76.457-73.473h0.928
		c41.103,0.164,74.69,32.76,76.457,73.473h-19.092c-0.466,0-0.784,0.095-1,0.266c-0.649,0.512-0.375,1.711-0.375,3.109
		c0,1.863-0.489,3.375,1.375,3.375l26.063-0.006h6.948c2.456,0,4.453,1.998,4.453,4.453V201.191z"/>
</g>
</svg>
