<?xml version="1.0" encoding="utf-8"?>
<!-- Generator: Adobe Illustrator 16.0.0, SVG Export Plug-In . SVG Version: 6.00 Build 0)  -->
<!DOCTYPE svg PUBLIC "-//W3C//DTD SVG 1.1//EN" "http://www.w3.org/Graphics/SVG/1.1/DTD/svg11.dtd">
<svg version="1.1" id="Ebene_1" xmlns="http://www.w3.org/2000/svg" xmlns:xlink="http://www.w3.org/1999/xlink" x="0px" y="0px"
	 width="63.123px" height="60.589px" viewBox="0 0 63.123 60.589" enable-background="new 0 0 63.123 60.589" xml:space="preserve">
<g>
	<path fill="#F6F6F6" d="M37.827,10.448c11.79,3.63,14.13,14.59,10.79,24.12c0.1-4.51-1.45-8.87-4.67-10.959
		c0.64-0.06,1.279-0.14,1.93-0.17c0.34-0.02,0.63-0.27,0.63-0.63c-0.01-1.19,0.55-2.7-0.27-3.74c-0.311-0.39-1.311-0.47-1.75-0.53
		c-1.04-0.12-2.07-0.1-3.11-0.08c-0.53,0.01-0.53,0.81,0,0.82c1.29,0.02,2.61,0.03,3.86,0.42c0.649,0.2,0.319,1.58,0.13,2.5
		c-1.48,0.07-2.92,0.39-4.38-0.05c-0.3-0.09-0.54,0.03-0.69,0.23c-0.2-0.02-0.41-0.05-0.62-0.06c0.49-1.32,0.79-2.65,0.971-4.06
		c0.119-0.96,0.64-3.36,0.14-4.21c-0.75-1.27-3.88-0.9-5.05-0.9c-0.351,0-0.66,0.29-0.65,0.65c0.01,0.63,0.021,1.26,0.03,1.89
		c-0.15-0.13-0.311-0.27-0.46-0.39c-0.351-0.28-0.72-0.59-1.11-0.87c0.5-0.45,0.99-0.89,1.51-1.32c0.311-0.26,0.2-0.8-0.13-0.98
		c-4.149-2.34-7.09,0.94-8.55,4.58c-0.06-1.35-0.24-2.71-0.26-4.04c-0.01-0.33-0.33-0.61-0.66-0.51c-1.68,0.53-3.13,1.37-3.8,3.06
		c-0.11,0.28-0.17,0.58-0.21,0.87c-1.3-0.1-2.721,0.29-3.4,1.49c-0.46,0.82-0.54,2.33-0.05,3.3c-4.17,2.8-6.53,9.55-5.56,14.09
		c0.59,2.76,1.869,5.18,3.6,7.17c0.01,0.04,0.01,0.09,0.03,0.131c1.21,2.829,3.04,5,5.199,6.539c-19.92-8.68-5.29-45.28,16.181-39.2
		C37.307,9.918,37.387,10.318,37.827,10.448z"/>
	<path fill="#FBBE3A" d="M45.951,19.551c0.1,2.48,0.496,0.724-0.203,3.104c-1.021,0.06-8.951-0.068-10.131,0.302
		c-0.21,0.07-0.3,0.23-0.3,0.4c-0.721,0.26-1.431,0.61-2.11,1.03c-0.28-0.82-0.8-1.57-1.45-2.23c0.09-0.03,0.17-0.07,0.25-0.11
		c0.29-0.13,0.26-0.43,0.101-0.62c0.08-0.09,0.17-0.18,0.26-0.27c0.29-0.33,0.689-0.71,0.91-1.14c0.899,0.65,1.8,1.31,2.64,2.05
		c0.26,0.23,0.67,0.21,0.85-0.11c0.551-0.95,1.2-1.84,1.761-2.78c0.199-0.32,0.05-0.65-0.221-0.85c-0.68-0.52-1.34-1.08-1.989-1.63
		c0.029-0.76,0.05-1.51,0.06-2.27c0.619-0.011,4.281-1.951,4.026,3.953C42.49,19.144,45.941,19.259,45.951,19.551z"/>
	<path fill="#EA5653" d="M41.807,28.208c1.79,4.41,0.53,10.02-2.38,13.64c-5.25,6.511-15.64,5.22-21.229,0.05
		c-5.53-5.109-4.91-12.56-0.53-18.05c4.64-5.82,8.17,1.07,11.53,4.42c-0.221,0.76,0.899,1.39,1.54,0.82
		C34.097,26.068,39.277,22.008,41.807,28.208z M22.607,38.748c2.88-0.56,3.739-3.14,3.279-5.79c-0.39-2.28-2.649-6.21-5.37-6.06
		c-0.17,0.01-0.319,0.12-0.38,0.26C14.987,29.718,15.597,40.108,22.607,38.748z"/>
	<path fill="#F6F6F6" d="M24.047,31.888c0.71,1.7,0.96,4.391-1.13,5.2c-5.74,2.229-5.59-6.64-2.5-9.29
		C21.837,29.138,23.227,29.918,24.047,31.888z M22.097,36.218c0.67-0.689,1.9-1.891,1.21-2.949c-0.22-0.33-0.58-0.511-0.93-0.671
		c-0.39-0.17-0.68-0.44-1.05-0.63c-0.08-0.04-0.16-0.061-0.24-0.061c0.11-0.159,0.21-0.319,0.28-0.469
		c0.17-0.33-0.25-0.7-0.521-0.41c-0.63,0.69-1.54,1.26-1.76,2.241c-0.3,1.389,1.28,2.399,2.24,3.049
		C21.557,36.478,21.907,36.418,22.097,36.218z"/>
	<path fill="#F6F6F6" d="M41.467,24.038c5.82,2.07,6.7,10.15,4.221,16.43c-3.421,5.17-8.631,9.1-14.79,9.82
		c-4.801,0.359-8.801-1.811-11.631-5.27c5.471,3.77,13.04,4.459,19.021,0.529c5.71-3.75,7.92-12.141,5.4-18.36
		C43.107,25.758,42.347,24.738,41.467,24.038z"/>
	<path fill="#F6F6F6" d="M56.097,20.468c3.4,6.63,2.65,14.4-0.54,20.92c-6.949,14.23-24.819,19.2-38.659,12.42
		c-12.311-6.02-13.99-20.99-9.131-32.5c4.931-11.65,15-17.25,27-16.83c0.08,0.13,0.21,0.23,0.41,0.24
		C43.938,5.328,52.217,12.918,56.097,20.468z M47.377,40.858c7.28-11.63,6.7-28.44-8.93-31.551c0.02-0.17-0.04-0.34-0.221-0.42
		c-23.159-10.16-40.159,33.03-16.029,42.03c4.7,1.75,9.13,1.63,13.06,0.229c4.19-1.07,8.11-3.619,10.71-7.55
		C46.527,42.748,46.987,41.827,47.377,40.858z"/>
	<path fill="#1D1D1B" d="M36.707,3.748c16.62,1.93,28.34,21.59,21.45,36.899c-6.811,15.15-25.05,22.461-40.38,15.68
		C4.097,50.278,0.097,34.657,5.557,21.348C10.438,9.478,23.188-1.782,36.707,3.748z M55.557,41.388c3.19-6.52,3.94-14.29,0.54-20.92
		c-3.88-7.55-12.159-15.14-20.92-15.75c-0.2-0.01-0.33-0.11-0.41-0.24c-12-0.42-22.069,5.18-27,16.83
		c-4.859,11.51-3.18,26.48,9.131,32.5C30.737,60.588,48.607,55.618,55.557,41.388z"/>
	<path fill="#1D1D1B" d="M38.447,9.308c15.63,3.11,16.21,19.92,8.93,31.551c-0.39,0.969-0.85,1.89-1.41,2.739
		c-2.6,3.931-6.52,6.479-10.71,7.55c-3.93,1.4-8.359,1.521-13.06-0.229c-24.13-9-7.13-52.19,16.029-42.03
		C38.407,8.968,38.467,9.138,38.447,9.308z M48.617,34.567c3.34-9.529,1-20.49-10.79-24.12c-0.44-0.13-0.521-0.53-0.38-0.84
		c-21.471-6.08-36.101,30.52-16.181,39.2c-2.159-1.539-3.989-3.71-5.199-6.539c-0.021-0.041-0.021-0.091-0.03-0.131
		c-1.73-1.99-3.01-4.41-3.6-7.17c-0.971-4.54,1.39-11.29,5.56-14.09c-0.49-0.97-0.41-2.48,0.05-3.3c0.68-1.2,2.101-1.59,3.4-1.49
		c0.04-0.29,0.1-0.59,0.21-0.87c0.67-1.69,2.12-2.53,3.8-3.06c0.33-0.1,0.65,0.18,0.66,0.51c0.02,1.33,0.2,2.69,0.26,4.04
		c1.46-3.64,4.4-6.92,8.55-4.58c0.33,0.18,0.44,0.72,0.13,0.98c-0.52,0.43-1.01,0.87-1.51,1.32c0.391,0.28,0.76,0.59,1.11,0.87
		c0.149,0.12,0.31,0.26,0.46,0.39c-0.01-0.63-0.021-1.26-0.03-1.89c-0.01-0.36,0.3-0.65,0.65-0.65c1.17,0,4.3-0.37,5.05,0.9
		c0.5,0.85-0.021,3.25-0.14,4.21c-0.181,1.41-0.48,2.74-0.971,4.06c0.21,0.01,0.42,0.04,0.62,0.06c0.15-0.2,0.391-0.32,0.69-0.23
		c1.46,0.44,2.899,0.12,4.38,0.05c0.189-0.92,0.52-2.3-0.13-2.5c-1.25-0.39-2.57-0.4-3.86-0.42c-0.53-0.01-0.53-0.81,0-0.82
		c1.04-0.02,2.07-0.04,3.11,0.08c0.439,0.06,1.439,0.14,1.75,0.53c0.819,1.04,0.26,2.55,0.27,3.74c0,0.36-0.29,0.61-0.63,0.63
		c-0.65,0.03-1.29,0.11-1.93,0.17C47.167,25.698,48.717,30.058,48.617,34.567z M45.688,40.468c2.479-6.279,1.6-14.36-4.221-16.43
		c0.88,0.7,1.641,1.72,2.221,3.15c2.52,6.219,0.31,14.61-5.4,18.36c-5.98,3.93-13.55,3.24-19.021-0.529
		c2.83,3.459,6.83,5.629,11.631,5.27C37.057,49.567,42.267,45.638,45.688,40.468z M39.427,41.848c2.91-3.62,4.17-9.229,2.38-13.64
		c-2.529-6.2-7.71-2.14-11.069,0.88c-0.641,0.57-1.761-0.06-1.54-0.82c-3.36-3.35-6.891-10.24-11.53-4.42
		c-4.38,5.49-5,12.94,0.53,18.05C23.787,47.067,34.177,48.358,39.427,41.848z M38.897,22.328c0.699-2.38,0.85-4.84,0.75-7.32
		c-0.021-0.62-2.101-0.6-3.271-0.58c-0.01,0.76-0.03,1.51-0.06,2.27c0.649,0.55,1.31,1.11,1.989,1.63
		c0.271,0.2,0.42,0.53,0.221,0.85c-0.561,0.94-1.21,1.83-1.761,2.78c-0.18,0.32-0.59,0.34-0.85,0.11c-0.84-0.74-1.74-1.4-2.64-2.05
		c-0.221,0.43-0.62,0.81-0.91,1.14c-0.09,0.09-0.18,0.18-0.26,0.27c0.159,0.19,0.189,0.49-0.101,0.62
		c-0.08,0.04-0.16,0.08-0.25,0.11c0.65,0.66,1.17,1.41,1.45,2.23c0.68-0.42,1.39-0.77,2.11-1.03c0-0.17,0.09-0.33,0.3-0.4
		C36.797,22.588,37.877,22.388,38.897,22.328z M36.097,20.928c0.351-0.63,0.74-1.23,1.08-1.86c-0.97-0.67-1.859-1.44-2.79-2.17
		c-0.64-0.5-1.35-0.91-2.029-1.36c-0.561,0.53-1.12,1.07-1.66,1.61c0.76,0.63,1.569,1.23,2.39,1.81c0.08,0.03,0.15,0.08,0.21,0.15
		C34.217,19.748,35.167,20.348,36.097,20.928z M32.257,13.798c0.4-0.33,0.79-0.67,1.19-0.99c-3.69-1.41-5.78,3.11-6.84,6.18
		c-0.021,0.05-0.04,0.08-0.07,0.12c0.88-0.91,1.78-1.79,2.71-2.66c0.04-0.05,0.09-0.11,0.15-0.14c0.6-0.55,1.22-1.1,1.84-1.64
		c-0.23-0.38,0.08-0.96,0.55-0.94C31.947,13.728,32.107,13.758,32.257,13.798z M31.707,20.048c0.21-0.24,0.39-0.5,0.6-0.74
		c-0.729-0.53-1.449-1.06-2.13-1.65c-0.72,0.71-1.439,1.42-2.16,2.12c0.141,0.06,0.29,0.09,0.44,0.15c0.75,0.33,1.55,0.78,2.29,1.34
		c0.02-0.03,0.03-0.07,0.05-0.1C31.057,20.758,31.387,20.408,31.707,20.048z M32.257,25.048c-1.27-1.37-2.069-2.96-3.92-3.77
		c-1.38-0.61-2.76-0.79-4.16-0.67c2.311,1.5,4.141,4.54,5.69,6.7C30.567,26.468,31.377,25.698,32.257,25.048z M25.167,19.308
		c0.23-1.98,0-3.93-0.08-5.91c-1.13,0.43-2.27,1.13-2.61,2.35c-0.359,1.32-0.029,2.61,0.48,3.84
		C23.688,19.408,24.427,19.318,25.167,19.308z M22.207,19.788c0.03-0.01,0.06-0.01,0.09-0.02c-0.39-0.8-0.729-1.71-0.84-2.61
		c-0.83,0.13-1.75,0.36-2.15,1.16c-0.319,0.63-0.13,1.24-0.01,1.84c0.08-0.03,0.15-0.07,0.23-0.1
		C20.477,19.678,21.367,19.628,22.207,19.788z"/>
	<path fill="#FBBE3A" d="M37.177,19.068c-0.34,0.63-0.729,1.23-1.08,1.86c-0.93-0.58-1.88-1.18-2.8-1.82
		c-0.06-0.07-0.13-0.12-0.21-0.15c-0.82-0.58-1.63-1.18-2.39-1.81c0.54-0.54,1.1-1.08,1.66-1.61c0.68,0.45,1.39,0.86,2.029,1.36
		C35.317,17.628,36.207,18.398,37.177,19.068z"/>
	<path fill="#FBBE3A" d="M33.447,12.808c-0.4,0.32-0.79,0.66-1.19,0.99c-0.149-0.04-0.31-0.07-0.47-0.07
		c-0.47-0.02-0.78,0.56-0.55,0.94c-0.62,0.54-1.24,1.09-1.84,1.64c-0.061,0.03-0.11,0.09-0.15,0.14c-0.93,0.87-1.83,1.75-2.71,2.66
		c0.03-0.04,0.05-0.07,0.07-0.12C27.667,15.918,29.757,11.398,33.447,12.808z"/>
	<path fill="#FBBE3A" d="M32.307,19.308c-0.21,0.24-0.39,0.5-0.6,0.74c-0.32,0.36-0.65,0.71-0.91,1.12
		c-0.02,0.03-0.03,0.07-0.05,0.1c-0.74-0.56-1.54-1.01-2.29-1.34c-0.15-0.06-0.3-0.09-0.44-0.15c0.721-0.7,1.44-1.41,2.16-2.12
		C30.857,18.248,31.577,18.778,32.307,19.308z"/>
	<path fill="#1D1D1B" d="M25.887,32.958c0.46,2.65-0.399,5.23-3.279,5.79c-7.011,1.36-7.62-9.03-2.471-11.59
		c0.061-0.14,0.21-0.25,0.38-0.26C23.237,26.748,25.497,30.678,25.887,32.958z M22.917,37.088c2.09-0.81,1.84-3.5,1.13-5.2
		c-0.82-1.97-2.21-2.75-3.63-4.09C17.327,30.448,17.177,39.317,22.917,37.088z"/>
	<path fill="#FBBE3A" d="M25.087,13.398c0.08,1.98,0.311,3.93,0.08,5.91c-0.74,0.01-1.479,0.1-2.21,0.28
		c-0.51-1.23-0.84-2.52-0.48-3.84C22.817,14.528,23.957,13.828,25.087,13.398z"/>
	<path fill="#1D1D1B" d="M23.307,33.269c0.69,1.059-0.54,2.26-1.21,2.949c-0.189,0.2-0.54,0.26-0.77,0.1
		c-0.96-0.649-2.54-1.66-2.24-3.049c0.22-0.98,1.13-1.551,1.76-2.241c0.271-0.29,0.69,0.08,0.521,0.41
		c-0.07,0.15-0.17,0.31-0.28,0.469c0.08,0,0.16,0.021,0.24,0.061c0.37,0.189,0.66,0.46,1.05,0.63
		C22.727,32.758,23.087,32.938,23.307,33.269z M21.577,34.968c0.33-0.32,0.7-0.72,0.68-1.04c-0.04,0-0.37-0.21-0.49-0.271
		c-0.46-0.229-1.04-0.52-1.149-1.049c-0.13,0.209-0.25,0.42-0.32,0.629C20.077,33.907,20.947,34.548,21.577,34.968z"/>
	<path fill="#FBBE3A" d="M22.297,19.768c-0.03,0.01-0.06,0.01-0.09,0.02c-0.84-0.16-1.73-0.11-2.68,0.27
		c-0.08,0.03-0.15,0.07-0.23,0.1c-0.12-0.6-0.31-1.21,0.01-1.84c0.4-0.8,1.32-1.03,2.15-1.16
		C21.567,18.058,21.907,18.968,22.297,19.768z"/>
</g>
<g>
</g>
<g>
</g>
<g>
</g>
<g>
</g>
<g>
</g>
<g>
</g>
<g>
</g>
<g>
</g>
<g>
</g>
<g>
</g>
<g>
</g>
</svg>
