<?xml version="1.0" encoding="utf-8"?>
<!-- Generator: Adobe Illustrator 16.0.0, SVG Export Plug-In . SVG Version: 6.00 Build 0)  -->
<!DOCTYPE svg PUBLIC "-//W3C//DTD SVG 1.1//EN" "http://www.w3.org/Graphics/SVG/1.1/DTD/svg11.dtd">
<svg version="1.1" id="Ebene_1" xmlns="http://www.w3.org/2000/svg" xmlns:xlink="http://www.w3.org/1999/xlink" x="0px" y="0px"
	 width="454.884px" height="330.28px" viewBox="-15.116 -10.975 454.884 330.28"
	 enable-background="new -15.116 -10.975 454.884 330.28" xml:space="preserve">
<path fill="#FFFFFF" d="M432.884,302.272c0,6.285-5.402,11.381-12.064,11.381H5.179c-6.663,0-12.063-5.096-12.063-11.381V5.729
	c0-6.285,5.399-11.381,12.063-11.381h415.64c6.662,0,12.064,5.096,12.064,11.381L432.884,302.272L432.884,302.272z"/>
<polyline fill="none" stroke="#1B1464" stroke-width="13" stroke-miterlimit="10" points="216.763,10.2 415.578,10.2 
	415.578,297.263 10.58,297.263 10.58,55.173 "/>
<g enable-background="new    ">
	<path fill="#1B1464" d="M74.245,55.294h15.452v55.145h27.067v12.929h-42.52V55.294L74.245,55.294z"/>
	<path fill="#1B1464" d="M136.259,103.571c0.505,6.363,6.767,9.395,13.938,9.395c5.253,0,9.493-0.707,13.636-2.021l2.02,10.403
		c-5.05,2.021-11.211,3.029-17.876,3.029c-16.766,0-26.36-9.695-26.36-25.148c0-12.522,7.776-26.359,24.946-26.359
		c15.957,0,22.019,12.423,22.019,24.644c0,2.626-0.305,4.949-0.506,6.06L136.259,103.571L136.259,103.571z M154.337,93.067
		c0-3.735-1.616-9.998-8.687-9.998c-6.464,0-9.09,5.857-9.493,9.998H154.337z"/>
	<path fill="#1B1464" d="M194.939,59.839v14.14h11.009V85.29h-11.009v17.877c0,5.959,1.414,8.686,6.062,8.686
		c1.919,0,3.434-0.202,4.545-0.403l0.101,11.614c-2.02,0.809-5.654,1.313-9.999,1.313c-4.947,0-9.09-1.717-11.514-4.242
		c-2.827-2.929-4.241-7.676-4.241-14.645v-20.2h-6.564V73.979h6.564V63.273L194.939,59.839z"/>
	<path fill="#1B1464" d="M232.005,59.839v14.14h11.008V85.29h-11.008v17.877c0,5.959,1.414,8.686,6.061,8.686
		c1.918,0,3.435-0.202,4.545-0.403l0.101,11.614c-2.021,0.809-5.654,1.313-9.998,1.313c-4.949,0-9.09-1.717-11.514-4.242
		c-2.828-2.929-4.242-7.676-4.242-14.645v-20.2h-6.565V73.979h6.565V63.273L232.005,59.839z"/>
	<path fill="#1B1464" d="M263.214,103.571c0.506,6.363,6.768,9.395,13.938,9.395c5.252,0,9.494-0.707,13.635-2.021l2.021,10.403
		c-5.051,2.021-11.211,3.029-17.877,3.029c-16.766,0-26.361-9.695-26.361-25.148c0-12.522,7.777-26.359,24.947-26.359
		c15.957,0,22.018,12.423,22.018,24.644c0,2.626-0.303,4.949-0.506,6.06L263.214,103.571L263.214,103.571z M281.294,93.067
		c0-3.735-1.617-9.998-8.688-9.998c-6.463,0-9.09,5.857-9.492,9.998H281.294z"/>
</g>
<g enable-background="new    ">
	<path fill="#1B1464" d="M131.813,218.509c-0.303-8.181-0.604-18.078-0.604-27.977h-0.304c-2.12,8.687-4.948,18.382-7.574,26.359
		l-8.282,26.563h-12.02l-7.271-26.36c-2.222-7.979-4.545-17.675-6.161-26.563h-0.202c-0.403,9.19-0.707,19.694-1.212,28.179
		l-1.212,25.854H72.73l4.343-68.071h20.504l6.666,22.725c2.12,7.877,4.241,16.361,5.757,24.34h0.303
		c1.919-7.878,4.242-16.866,6.464-24.44l7.272-22.623h20.099l3.736,68.071h-15.048L131.813,218.509z"/>
	<path fill="#1B1464" d="M171.303,224.771c0.505,6.363,6.767,9.395,13.938,9.395c5.252,0,9.493-0.707,13.635-2.021l2.021,10.403
		c-5.05,2.02-11.211,3.029-17.877,3.029c-16.766,0-26.359-9.695-26.359-25.148c0-12.522,7.775-26.36,24.945-26.36
		c15.958,0,22.019,12.424,22.019,24.645c0,2.626-0.304,4.949-0.505,6.06L171.303,224.771L171.303,224.771z M189.383,214.267
		c0-3.735-1.616-9.998-8.688-9.998c-6.464,0-9.09,5.857-9.492,9.998H189.383z"/>
	<path fill="#1B1464" d="M212.815,210.935c0-6.161-0.202-11.413-0.403-15.756h13.333l0.707,6.767h0.303
		c2.02-3.131,7.067-7.878,15.25-7.878c10.1,0,17.674,6.666,17.674,21.21v29.289h-15.352v-27.37c0-6.362-2.222-10.705-7.775-10.705
		c-4.242,0-6.768,2.929-7.777,5.757c-0.403,0.909-0.604,2.424-0.604,3.838v28.48h-15.353v-33.632H212.815z"/>
	<path fill="#1B1464" d="M271.9,231.134c2.828,1.717,8.687,3.737,13.23,3.737c4.646,0,6.563-1.616,6.563-4.143
		c0-2.523-1.514-3.735-7.271-5.654c-10.201-3.436-14.139-8.989-14.039-14.848c0-9.19,7.879-16.16,20.1-16.16
		c5.756,0,10.908,1.313,13.938,2.828l-2.728,10.604c-2.223-1.212-6.465-2.828-10.707-2.828c-3.735,0-5.856,1.516-5.856,4.04
		c0,2.323,1.92,3.535,7.979,5.656c9.394,3.23,13.332,7.979,13.435,15.251c0,9.189-7.271,15.957-21.412,15.957
		c-6.463,0-12.221-1.414-15.957-3.435L271.9,231.134z"/>
	<path fill="#1B1464" d="M343.91,244.567l-0.909-4.948h-0.304c-3.231,3.938-8.281,6.061-14.139,6.061
		c-10,0-15.959-7.271-15.959-15.15c0-12.825,11.514-18.986,28.986-18.887v-0.706c0-2.626-1.414-6.362-8.988-6.362
		c-5.049,0-10.402,1.717-13.635,3.736l-2.828-9.897c3.434-1.919,10.201-4.344,19.188-4.344c16.463,0,21.715,9.696,21.715,21.312
		v17.17c0,4.747,0.203,9.292,0.707,12.019H343.91V244.567z M342.093,221.237c-8.08-0.102-14.343,1.817-14.343,7.776
		c0,3.938,2.625,5.858,6.062,5.858c3.838,0,6.969-2.525,7.979-5.656c0.201-0.81,0.304-1.717,0.304-2.626L342.093,221.237
		L342.093,221.237z"/>
</g>
</svg>
