<?xml version="1.0" encoding="utf-8"?>
<!-- Generator: Adobe Illustrator 16.0.0, SVG Export Plug-In . SVG Version: 6.00 Build 0)  -->
<!DOCTYPE svg PUBLIC "-//W3C//DTD SVG 1.1//EN" "http://www.w3.org/Graphics/SVG/1.1/DTD/svg11.dtd">
<svg version="1.1" id="Ebene_1" xmlns="http://www.w3.org/2000/svg" xmlns:xlink="http://www.w3.org/1999/xlink" x="0px" y="0px"
	 width="454.885px" height="330.279px" viewBox="0 0 454.885 330.279" enable-background="new 0 0 454.885 330.279"
	 xml:space="preserve">
<path fill="#FFFFFF" d="M448.768,313.924c0,6.285-5.402,11.381-12.064,11.381H21.063C14.4,325.305,9,320.209,9,313.924V17.381
	C9,11.096,14.399,6,21.063,6h415.64c6.662,0,12.064,5.096,12.064,11.381L448.768,313.924L448.768,313.924z"/>
<polyline fill="none" stroke="#1B1464" stroke-width="13" stroke-miterlimit="10" points="232.647,21.853 431.462,21.853 
	431.462,308.915 26.464,308.915 26.464,66.825 "/>
<g enable-background="new    ">
	<path fill="#1B1464" d="M90.129,66.947h15.452v55.145h27.067v12.93H90.128L90.129,66.947L90.129,66.947z"/>
	<path fill="#1B1464" d="M152.142,115.223c0.506,6.363,6.768,9.396,13.938,9.396c5.253,0,9.493-0.707,13.636-2.021L181.737,133
		c-5.05,2.021-11.211,3.029-17.876,3.029c-16.767,0-26.36-9.695-26.36-25.148c0-12.521,7.776-26.358,24.946-26.358
		c15.957,0,22.019,12.423,22.019,24.644c0,2.626-0.305,4.949-0.506,6.061L152.142,115.223L152.142,115.223z M170.22,104.719
		c0-3.734-1.615-9.998-8.687-9.998c-6.464,0-9.09,5.857-9.493,9.998H170.22z"/>
	<path fill="#1B1464" d="M210.823,71.491v14.14h11.009v11.312h-11.009v17.877c0,5.959,1.414,8.686,6.062,8.686
		c1.919,0,3.435-0.202,4.545-0.402l0.102,11.613c-2.021,0.81-5.654,1.313-9.999,1.313c-4.947,0-9.09-1.717-11.515-4.242
		c-2.826-2.929-4.24-7.676-4.24-14.645v-20.2h-6.564V85.631h6.564V74.925L210.823,71.491z"/>
	<path fill="#1B1464" d="M247.888,71.491v14.14h11.009v11.312h-11.009v17.877c0,5.959,1.414,8.686,6.062,8.686
		c1.918,0,3.435-0.202,4.545-0.402l0.101,11.613c-2.021,0.81-5.653,1.313-9.998,1.313c-4.948,0-9.09-1.717-11.514-4.242
		c-2.828-2.929-4.242-7.676-4.242-14.645v-20.2h-6.564V85.631h6.564V74.925L247.888,71.491z"/>
	<path fill="#1B1464" d="M279.097,115.223c0.507,6.363,6.769,9.396,13.938,9.396c5.252,0,9.494-0.707,13.635-2.021L308.692,133
		c-5.052,2.021-11.211,3.029-17.877,3.029c-16.767,0-26.361-9.695-26.361-25.148c0-12.521,7.777-26.358,24.947-26.358
		c15.957,0,22.018,12.423,22.018,24.644c0,2.626-0.303,4.949-0.506,6.061L279.097,115.223L279.097,115.223z M297.177,104.719
		c0-3.734-1.616-9.998-8.688-9.998c-6.463,0-9.09,5.857-9.492,9.998H297.177z"/>
</g>
<g enable-background="new    ">
	<path fill="#1B1464" d="M147.697,230.161c-0.303-8.181-0.604-18.078-0.604-27.977h-0.304c-2.12,8.687-4.948,18.382-7.574,26.358
		l-8.282,26.563h-12.02l-7.271-26.36c-2.222-7.979-4.545-17.675-6.16-26.563h-0.202c-0.403,9.189-0.707,19.693-1.212,28.179
		l-1.212,25.854H88.614l4.343-68.07h20.504l6.666,22.725c2.12,7.877,4.241,16.361,5.757,24.34h0.304
		c1.919-7.878,4.241-16.866,6.464-24.439l7.271-22.623h20.1l3.735,68.07H148.71L147.697,230.161z"/>
	<path fill="#1B1464" d="M187.187,236.423c0.505,6.363,6.767,9.396,13.938,9.396c5.252,0,9.493-0.707,13.635-2.021l2.021,10.403
		c-5.05,2.02-11.211,3.029-17.877,3.029c-16.767,0-26.359-9.695-26.359-25.148c0-12.521,7.775-26.36,24.945-26.36
		c15.958,0,22.019,12.425,22.019,24.646c0,2.626-0.304,4.949-0.505,6.06L187.187,236.423L187.187,236.423z M205.266,225.919
		c0-3.734-1.615-9.998-8.688-9.998c-6.464,0-9.09,5.857-9.492,9.998H205.266z"/>
	<path fill="#1B1464" d="M228.699,222.587c0-6.161-0.202-11.413-0.403-15.756h13.333l0.707,6.767h0.303
		c2.021-3.131,7.067-7.878,15.25-7.878c10.101,0,17.675,6.666,17.675,21.21v29.289h-15.353V228.85
		c0-6.362-2.222-10.705-7.775-10.705c-4.241,0-6.768,2.929-7.776,5.757c-0.403,0.909-0.604,2.424-0.604,3.838v28.479h-15.353
		v-33.632H228.699z"/>
	<path fill="#1B1464" d="M287.784,242.786c2.828,1.717,8.687,3.737,13.229,3.737c4.646,0,6.563-1.616,6.563-4.144
		c0-2.522-1.514-3.734-7.271-5.653c-10.2-3.437-14.139-8.989-14.039-14.849c0-9.189,7.88-16.16,20.101-16.16
		c5.756,0,10.908,1.313,13.938,2.828l-2.729,10.604c-2.223-1.212-6.465-2.828-10.707-2.828c-3.735,0-5.856,1.516-5.856,4.04
		c0,2.323,1.92,3.535,7.979,5.656c9.395,3.229,13.332,7.979,13.436,15.251c0,9.188-7.271,15.957-21.413,15.957
		c-6.463,0-12.221-1.414-15.957-3.436L287.784,242.786z"/>
	<path fill="#1B1464" d="M359.794,256.219l-0.908-4.947h-0.305c-3.23,3.938-8.28,6.061-14.139,6.061
		c-10,0-15.959-7.271-15.959-15.149c0-12.825,11.514-18.986,28.986-18.888v-0.706c0-2.626-1.414-6.361-8.988-6.361
		c-5.049,0-10.402,1.717-13.635,3.735l-2.828-9.896c3.434-1.919,10.2-4.344,19.188-4.344c16.463,0,21.715,9.695,21.715,21.312v17.17
		c0,4.747,0.203,9.292,0.707,12.02h-13.834V256.219z M357.977,232.889c-8.08-0.102-14.343,1.817-14.343,7.776
		c0,3.938,2.625,5.858,6.062,5.858c3.838,0,6.969-2.525,7.979-5.656c0.2-0.81,0.304-1.717,0.304-2.626L357.977,232.889
		L357.977,232.889z"/>
</g>
</svg>
