<?xml version="1.0" encoding="utf-8"?>
<!-- Generator: Adobe Illustrator 16.0.4, SVG Export Plug-In . SVG Version: 6.00 Build 0)  -->
<!DOCTYPE svg PUBLIC "-//W3C//DTD SVG 1.1//EN" "http://www.w3.org/Graphics/SVG/1.1/DTD/svg11.dtd">
<svg version="1.1" id="Ebene_1" xmlns="http://www.w3.org/2000/svg" xmlns:xlink="http://www.w3.org/1999/xlink" x="0px" y="0px"
	 width="887.755px" height="219.728px" viewBox="0 0 887.755 219.728" enable-background="new 0 0 887.755 219.728"
	 xml:space="preserve">
<g>
	<path fill="#1B1464" d="M80.055,64.826h21.574v76.989h37.79v18.049H80.055V64.826z"/>
	<path fill="#1B1464" d="M166.629,132.227c0.705,8.883,9.447,13.113,19.459,13.113c7.333,0,13.254-0.986,19.036-2.82l2.82,14.523
		c-7.05,2.82-15.652,4.23-24.958,4.23c-23.407,0-36.803-13.536-36.803-35.11c0-17.485,10.857-36.803,34.829-36.803
		c22.279,0,30.739,17.344,30.739,34.405c0,3.666-0.423,6.91-0.705,8.461H166.629z M191.869,117.562
		c0-5.217-2.256-13.96-12.126-13.96c-9.024,0-12.691,8.179-13.255,13.96H191.869z"/>
	<path fill="#1B1464" d="M248.55,71.171v19.741h15.37v15.792h-15.37v24.958c0,8.32,1.974,12.127,8.46,12.127
		c2.679,0,4.794-0.282,6.345-0.564l0.141,16.217c-2.82,1.127-7.896,1.832-13.959,1.832c-6.909,0-12.69-2.396-16.075-5.922
		c-3.948-4.09-5.922-10.717-5.922-20.445v-28.202h-9.166V90.912h9.166V75.965L248.55,71.171z"/>
	<path fill="#1B1464" d="M300.295,71.171v19.741h15.37v15.792h-15.37v24.958c0,8.32,1.975,12.127,8.461,12.127
		c2.679,0,4.794-0.282,6.345-0.564l0.142,16.217c-2.82,1.127-7.896,1.832-13.96,1.832c-6.909,0-12.69-2.396-16.075-5.922
		c-3.948-4.09-5.922-10.717-5.922-20.445v-28.202h-9.166V90.912h9.166V75.965L300.295,71.171z"/>
	<path fill="#1B1464" d="M343.865,132.227c0.704,8.883,9.447,13.113,19.458,13.113c7.333,0,13.255-0.986,19.036-2.82l2.82,14.523
		c-7.051,2.82-15.651,4.23-24.958,4.23c-23.407,0-36.803-13.536-36.803-35.11c0-17.485,10.857-36.803,34.828-36.803
		c22.279,0,30.74,17.344,30.74,34.405c0,3.666-0.424,6.91-0.705,8.461H343.865z M369.104,117.562c0-5.217-2.256-13.96-12.126-13.96
		c-9.024,0-12.69,8.179-13.255,13.96H369.104z"/>
	<path fill="#1B1464" d="M448.205,159.864l-30.457-95.038h23.549l11.562,40.187c3.242,11.281,6.203,22.138,8.459,33.982h0.424
		c2.396-11.421,5.357-22.701,8.602-33.559l12.127-40.61h22.842l-32.008,95.038H448.205z"/>
	<path fill="#1B1464" d="M525.332,132.227c0.705,8.883,9.447,13.113,19.459,13.113c7.332,0,13.254-0.986,19.035-2.82l2.82,14.523
		c-7.051,2.82-15.65,4.23-24.957,4.23c-23.408,0-36.803-13.536-36.803-35.11c0-17.485,10.857-36.803,34.828-36.803
		c22.279,0,30.74,17.344,30.74,34.405c0,3.666-0.424,6.91-0.705,8.461H525.332z M550.572,117.562c0-5.217-2.256-13.96-12.127-13.96
		c-9.023,0-12.689,8.179-13.254,13.96H550.572z"/>
	<path fill="#1B1464" d="M583.281,113.614c0-10.152-0.281-16.78-0.564-22.702h18.473l0.705,12.69h0.564
		c3.525-10.011,11.984-14.242,18.613-14.242c1.973,0,2.961,0,4.512,0.282v20.164c-1.551-0.282-3.385-0.564-5.781-0.564
		c-7.896,0-13.256,4.23-14.666,10.857c-0.281,1.41-0.422,3.103-0.422,4.795v34.969h-21.434V113.614z"/>
	<path fill="#1B1464" d="M652.23,132.227c0.705,8.883,9.447,13.113,19.459,13.113c7.332,0,13.254-0.986,19.035-2.82l2.82,14.523
		c-7.051,2.82-15.65,4.23-24.957,4.23c-23.408,0-36.803-13.536-36.803-35.11c0-17.485,10.857-36.803,34.828-36.803
		c22.279,0,30.74,17.344,30.74,34.405c0,3.666-0.424,6.91-0.705,8.461H652.23z M677.471,117.562c0-5.217-2.256-13.96-12.127-13.96
		c-9.023,0-12.689,8.179-13.254,13.96H677.471z"/>
	<path fill="#1B1464" d="M732.318,71.735c0,5.922-4.512,10.716-11.562,10.716c-6.768,0-11.279-4.794-11.139-10.716
		c-0.141-6.205,4.371-10.857,11.281-10.857C727.807,60.878,732.178,65.531,732.318,71.735z M710.182,159.864V90.912h21.432v68.952
		H710.182z"/>
	<path fill="#1B1464" d="M748.814,112.909c0-8.602-0.283-15.934-0.564-21.997h18.613l0.986,9.447h0.424
		c2.82-4.371,9.869-10.999,21.291-10.999c14.102,0,24.676,9.307,24.676,29.611v40.892h-21.432v-38.213
		c0-8.883-3.104-14.946-10.857-14.946c-5.924,0-9.449,4.089-10.857,8.038c-0.564,1.269-0.848,3.384-0.848,5.358v39.764h-21.432
		V112.909z"/>
</g>
<polyline fill="none" stroke="#1B1464" stroke-width="13" stroke-miterlimit="10" points="452.449,28.572 859.864,28.572 
	859.864,193.877 29.932,193.877 29.932,64.347 "/>
</svg>
