<?xml version="1.0" encoding="utf-8"?>
<!-- Generator: Adobe Illustrator 16.0.0, SVG Export Plug-In . SVG Version: 6.00 Build 0)  -->
<!DOCTYPE svg PUBLIC "-//W3C//DTD SVG 1.1//EN" "http://www.w3.org/Graphics/SVG/1.1/DTD/svg11.dtd">
<svg version="1.1" id="Ebene_1" xmlns="http://www.w3.org/2000/svg" xmlns:xlink="http://www.w3.org/1999/xlink" x="0px" y="0px"
	 width="128px" height="128px" viewBox="0 0 128 128" enable-background="new 0 0 128 128" xml:space="preserve">
<g>
	<g>
		<path fill="#C0C0C0" d="M115.62,51.616c-2.962,0.331-5.966,0.41-8.942,0.308c-2.166-0.074-4.314-0.322-6.396-0.936
			c-2.007-0.59-2.601-1.609-3.462-3.374c-2.482-5.079-5.336-9.993-8.227-14.848c-3.132-5.257-6.949-10.109-10.021-15.375
			c-2.568-4.406-3.293-10.492-6.989-14.164C68.105-0.228,63.041,3.25,61.028,6.54c-3.047,4.979-1.214,11.688,1.368,16.403
			c1.697,3.099,3.518,5.449,4.189,9.029c0.479,2.554,0.308,5.33-0.153,7.874c-0.082,0.444-0.178,0.889-0.298,1.324
			c0.782-0.444,1.563-0.889,2.347-1.333c-7.962-1.24-16.348-1.777-24.321-0.444c-4.864,0.813-9.738,3.074-11.228,8.172
			c-1.139,3.899,1.492,8.296,4.366,10.761c0-0.899,0-1.799,0-2.697c-1.886,1.618-3.273,3.864-4.045,6.205
			c-1.646,4.991,1.655,9.246,5.418,12.086c-0.229-0.87-0.457-1.738-0.685-2.609c-3.476,5.02-3.499,11.629,2.165,14.944
			c-0.229-0.869-0.457-1.737-0.685-2.608c-1.233,2.567-1.009,5.459,0.244,7.972c2.134,4.274,7.487,5.856,11.806,6.653
			c7.23,1.332,14.833,1.414,22.165,1.074c2.448-0.113,2.459-3.931,0-3.813c-5.767,0.268-11.591,0.146-17.333-0.416
			c-3.609-0.355-7.423-0.908-10.611-2.73c-1.849-1.058-3.234-2.795-3.301-4.959c-0.016-0.524,0.088-1.016,0.225-1.519
			c0.058-0.213,0.369-0.896,0.1-0.335c0.45-0.938,0.266-2.054-0.684-2.609c-3.889-2.276-3.026-6.507-0.796-9.728
			c0.643-0.928,0.093-2.021-0.684-2.608c-2.879-2.173-4.923-5.163-3.303-8.744c0.609-1.347,1.581-2.594,2.702-3.557
			c0.747-0.641,0.748-2.057,0-2.697c-2.726-2.338-4.794-6.125-2.172-9.317c2.437-2.966,7.394-3.381,10.919-3.663
			c6.165-0.495,12.694-0.07,18.725,0.869c1.027,0.159,2.048-0.245,2.347-1.332c1.002-3.632,1.01-7.532,0.451-11.228
			c-1.027-6.819-6.937-11.32-6.943-18.478c-0.003-2.748,1.311-5.573,3.957-6.664c1.923-0.792,2.828,1.729,3.461,3.091
			c1.169,2.505,2.033,5.15,3.16,7.676c1.291,2.894,3.127,5.342,4.924,7.924c3.48,5,6.591,10.267,9.604,15.555
			c1.345,2.357,2.646,4.736,3.907,7.139c0.895,1.702,1.57,3.625,2.796,5.117c2.501,3.047,7.979,3.258,11.546,3.422
			c2.971,0.137,5.989,0.023,8.943-0.308C118.037,55.16,118.063,51.341,115.62,51.616L115.62,51.616z"/>
	</g>
	<g>
		<path fill="#C0C0C0" d="M64.038,126.671c0,0.444-0.238,0.667-0.715,0.667h-7.414v-10.584c0-0.477,0.238-0.715,0.715-0.715h0.333
			c0.477,0,0.715,0.238,0.715,0.715v8.987h5.649c0.477,0,0.715,0.223,0.715,0.667v0.263H64.038z"/>
		<path fill="#C0C0C0" d="M71.475,126.671c0,0.444-0.238,0.667-0.715,0.667h-4.48c-0.477,0-0.715-0.223-0.715-0.667v-0.263
			c0-0.444,0.238-0.667,0.715-0.667h1.359v-8.105h-1.24c-0.477,0-0.715-0.222-0.715-0.667v-0.263c0-0.444,0.238-0.667,0.715-0.667
			h4.244c0.477,0,0.715,0.223,0.715,0.667v0.263c0,0.445-0.238,0.667-0.715,0.667h-1.24v8.105h1.359
			c0.477,0,0.715,0.223,0.715,0.667L71.475,126.671L71.475,126.671z"/>
		<path fill="#C0C0C0" d="M82.846,126.46c0,0.216-0.088,0.394-0.263,0.532l-0.31,0.255c-0.111,0.092-0.265,0.139-0.453,0.139
			c-0.111,0-0.271-0.087-0.479-0.261l-5.076-4.389v3.887c0,0.477-0.238,0.715-0.717,0.715h-0.334c-0.479,0-0.715-0.238-0.715-0.715
			v-9.869c0-0.477,0.236-0.715,0.715-0.715h0.334c0.479,0,0.717,0.238,0.717,0.715v3.838l5.053-4.457
			c0.127-0.096,0.271-0.144,0.43-0.144c0.207,0,0.391,0.095,0.549,0.282l0.215,0.259c0.11,0.141,0.166,0.274,0.166,0.399
			c0,0.202-0.102,0.392-0.307,0.563l-4.725,4.167l5.017,4.356C82.784,126.113,82.846,126.26,82.846,126.46z"/>
		<path fill="#C0C0C0" d="M94.191,120.926c0,0.985-0.461,1.479-1.383,1.479H86.73v1.885c0,0.969,0.516,1.454,1.549,1.454h3.289
			c0.478,0,0.716,0.223,0.716,0.667v0.263c0,0.444-0.238,0.667-0.716,0.667h-4.004c-0.715,0-1.328-0.273-1.836-0.82
			c-0.508-0.551-0.764-1.182-0.764-1.896v-5.959c0-0.73,0.271-1.352,0.822-1.859c0.548-0.509,1.188-0.763,1.918-0.763h3.743
			c0.729,0,1.368,0.252,1.919,0.755c0.548,0.504,0.82,1.118,0.82,1.842v2.289h0.004V120.926z M92.428,120.926v-2.002
			c0-0.365-0.123-0.672-0.369-0.918s-0.553-0.37-0.918-0.37h-3.123c-0.365,0-0.672,0.124-0.918,0.37s-0.369,0.553-0.369,0.918v2.002
			H92.428z"/>
	</g>
</g>
</svg>
