<?xml version="1.0" encoding="utf-8"?>
<!-- Generator: Adobe Illustrator 16.0.4, SVG Export Plug-In . SVG Version: 6.00 Build 0)  -->
<!DOCTYPE svg PUBLIC "-//W3C//DTD SVG 1.1//EN" "http://www.w3.org/Graphics/SVG/1.1/DTD/svg11.dtd">
<svg version="1.1" id="Capa_1" xmlns="http://www.w3.org/2000/svg" xmlns:xlink="http://www.w3.org/1999/xlink" x="0px" y="0px"
	 width="1000px" height="1000px" viewBox="0 0 1000 1000" enable-background="new 0 0 1000 1000" xml:space="preserve">
<path fill="#762718" stroke="#000000" stroke-width="23" stroke-miterlimit="10" d="M922.606,471.529
	c-16.71-43.479-35.015-91.496-64.4-128.275c-22.216-27.804-63.87-51.881-100.746-46.25c-0.479,0.073-3.56,0.745-8.913,1.942
	c1.331,9.228,2.011,18.583,2.011,28.039c0,26.248-5.151,51.741-15.316,75.774c-9.809,23.185-23.831,43.991-41.688,61.848
	c-17.854,17.854-38.663,31.88-61.846,41.685c-24.033,10.165-49.528,15.319-75.776,15.319s-51.742-5.154-75.773-15.319
	c-23.186-9.806-43.991-23.83-61.846-41.685c-17.855-17.855-31.88-38.663-41.685-61.848c-2.411-5.7-4.53-11.483-6.375-17.34
	c-152.943,35.084-294.748,67.67-303.029,69.598c-7.299,1.699-16.184,2.715-22.735,6.199c-5.526,2.939-9.487,7.642-9.487,15.992
	v381.767c0,15.044,15.905,28.903,35.503,30.944l141.915,14.758l638.322,66.438c58.699,6.118,106.354-25.531,106.354-70.708
	c0-28.521-18.979-55.521-47.738-73.176c28.759-11.623,47.743-34.734,47.743-63.211c0-28.472-18.982-55.475-47.691-73.078
	C994.255,656.379,946.321,533.237,922.606,471.529z"/>
<path fill="#641FFF" stroke="#000000" stroke-width="23" stroke-miterlimit="10" d="M735.726,897.084L110,831.93v-62.544
	l625.726,65.104c58.701,6.123,106.349,25.06,106.349,42.329C842.072,894.095,794.427,903.205,735.726,897.084z"/>
<path fill="#641FFF" stroke="#000000" stroke-width="23" stroke-miterlimit="10" d="M735.726,772.423L110,707.269v-62.593
	l625.726,65.202c58.701,6.122,106.349,25.054,106.349,42.328C842.072,769.479,794.427,778.546,735.726,772.423z"/>
<path fill="#641FFF" stroke="#000000" stroke-width="23" stroke-miterlimit="10" d="M735.726,647.762L110,582.652V520.06
	l625.726,65.11c58.701,6.117,106.349,25.104,106.349,42.373C842.072,644.865,794.427,653.88,735.726,647.762z"/>
<path fill="#A9002E" stroke="#000000" stroke-width="23" stroke-miterlimit="10" d="M421.306,326.986
	c0,15.769,2.723,30.897,7.701,44.961c18.506,52.239,68.341,89.665,126.924,89.665c74.354,0,134.626-60.273,134.626-134.626
	c0-4.973-0.275-9.876-0.803-14.708c-7.328-67.432-64.439-119.918-133.823-119.918c-7.086,0-14.042,0.552-20.832,1.606
	c-4.605-9.426-9.713-18.638-15.216-27.62c-5.547-9.054-11.493-17.874-17.715-26.451c-7.626-10.512-15.666-20.659-23.911-30.412
	c-15.331-18.135-31.972-35.302-50.263-50.478c-16.017-13.29-33.049-26.093-52.186-34.563c-10.824-4.79-23.233-3.264-29.708,7.79
	c-5.471,9.34-3.039,24.917,7.79,29.709c8.982,3.976,17.516,8.929,25.642,14.436c2.348,1.591,4.677,3.209,6.968,4.881
	c0.835,0.61,3.828,2.892,4.616,3.473c3.471,2.748,6.903,5.545,10.253,8.44c8.839,7.638,17.339,15.672,25.455,24.075
	c8.545,8.847,16.76,18.018,24.546,27.541c2.212,2.706,4.407,5.427,6.557,8.184c0.005,0.006,0.009,0.011,0.017,0.017
	c0.075,0.104,0.16,0.216,0.257,0.34c0.903,1.195,1.812,2.391,2.707,3.595c0.03,0.045,0.062,0.09,0.098,0.134
	c3.533,4.762,6.996,9.577,10.328,14.483c2.328,3.427,4.606,6.888,6.839,10.38c4.354,6.812,8.504,13.752,12.369,20.852
	c0.914,1.68,1.812,3.366,2.701,5.059C450.468,230.379,421.306,275.273,421.306,326.986z"/>
</svg>
