<?xml version="1.0" encoding="utf-8"?>
<!-- Generator: Adobe Illustrator 16.0.0, SVG Export Plug-In . SVG Version: 6.00 Build 0)  -->
<!DOCTYPE svg PUBLIC "-//W3C//DTD SVG 1.1//EN" "http://www.w3.org/Graphics/SVG/1.1/DTD/svg11.dtd">
<svg version="1.1" id="Ebene_1" xmlns="http://www.w3.org/2000/svg" xmlns:xlink="http://www.w3.org/1999/xlink" x="0px" y="0px"
	 width="55.648px" height="36.784px" viewBox="0 0 55.648 36.784" enable-background="new 0 0 55.648 36.784" xml:space="preserve">
<g>
	<path fill="#FFEE90" d="M4.208,21.167c0,0,1.018-0.561,3.257-0.407c2.24,0.152,17.254,3.054,22.09,2.341
		c4.835-0.713,22.394-3.359,22.394-3.359s-4.479,9.874-9.416,11.503c-4.937,1.629-17.609,5.802-25.396,1.73
		S4.666,24.679,4.208,21.167z"/>
	<path fill="#99B815" d="M45.332,18.775c0-0.168-0.686-0.595-0.585-0.676c-0.456-2.438,0.54-4.864,2.49-6.442
		c0.47-0.37,0.97-0.641,1.479-0.841c0.19-0.819,0.521-1.75,0.261-2.43c-0.511-1.37-2.75-0.03-3.4,0.32
		c-0.35,0.18-0.84,0.109-1.03-0.271c-0.439-0.89-0.989-1.83-1.369-2.79c-0.62,0.62-1.311,1.17-2,1.771
		c-0.36,0.3-0.83,0.25-1.091-0.141c-0.18-0.27-1.93-2.92-2.909-2.02c0.039,0.08,0.079,0.14,0.119,0.22
		c0.25,0.54-0.229,1.011-0.67,0.96c-0.189,0.851-0.09,1.73,0.04,2.61v0.1c2.95-1.8,6.5,0.57,5.261,5.301
		c-0.011,0.029-0.03,0.05-0.04,0.069c1.279,0.9,2.159,2.29,2.22,4.25c0.006,0.15-2.275-0.29-1.27,0.467
		c-0.356,0.152,0.051,0.407,1.206,0.129c0.189-0.033,1.372-0.23,1.561-0.264C45.588,18.833,45.332,19.042,45.332,18.775z"/>
	<path fill="#FF4121" d="M17.667,17.617c-0.92,0.56-1.62,1.449-1.859,2.659c-0.03,0.141-0.011,0.25,0.029,0.36
		c-2-0.37-9.7,0.388-11.68,0.327c0.16-1.08,0.45-1.91,0-2.85c0-0.011,0.102-2.179,0.102-2.188c1.79-0.851,8.719-0.569,10.688-0.089
		C16.107,16.126,16.937,16.806,17.667,17.617z"/>
	<path fill="#1D1D1B" d="M54.607,11.327c0.55,0.279,0.46,1.06,0,1.35c-2.34,1.48-3.79,3.4-5,5.76c0.49-0.069,0.979-0.149,1.479-0.22
		c0.4-0.05,0.71,0.04,0.94,0.21c0.78-0.38,1.91,0.16,1.55,1.19c-3.74,10.659-15.26,16.22-26.06,16.199
		c-9.551-0.01-22.65-4.34-24.53-15.22c-0.09-0.56,0.63-0.93,0.95-0.399c0.13,0.229,0.279,0.439,0.42,0.67
		c0.03-0.04,0.05-0.091,0.1-0.11c1.221-0.57,2.57-0.83,4-0.89c0.12-0.98,0.271-2.23-0.46-3.03c-0.479-0.54-1.14-0.8-1.859-0.71
		c-1.94,0.22-1.74,2.16-0.931,3.42c0.48,0.75-0.7,1.43-1.18,0.69c-0.73-1.12-1.21-2.57-0.55-3.841c0.13-0.25,0.3-0.479,0.5-0.68
		c-0.74-0.08-1.511-0.24-1.94-0.77c-0.8-0.99-0.84-2.28-0.82-3.511c0-0.34,0.381-0.71,0.74-0.56c0.971,0.41,2.141,0.41,3.24,0.52
		c0.02-1.47,0.45-2.979,1.99-3.489c1.41-0.471,2.96,0.739,3.979,1.84c0.9-1.49,2.391-3.311,4.24-3.391
		c-0.71-4.38,2.78-4.92,5.94-2.68c2.619-3.84,6.239-3.21,8.72,0.4c2.22-2.33,4.68-2.45,6.49,0.12c0.13-0.091,0.27-0.171,0.43-0.24
		c1.51-0.67,2.89,0.76,3.81,1.95c0.75-0.66,1.511-1.301,2.07-2.17c0.311-0.49,1.23-0.49,1.35,0.18c0.2,1.08,0.771,2.13,1.301,3.13
		c1.43-0.7,3.109-1.22,4.42-0.05c0.91,0.819,0.77,2.27,0.31,3.46C51.716,10.306,53.247,10.646,54.607,11.327z M52.567,12.186
		c-4.04-1.17-7.33,2.311-7.08,6.58c0.02,0.34-0.48,0.38-0.57,0.08c-0.84-2.68,0.17-5.45,2.32-7.189
		c0.47-0.37,0.97-0.641,1.479-0.841c0.19-0.819,0.521-1.75,0.261-2.43c-0.511-1.37-2.75-0.03-3.4,0.32
		c-0.35,0.18-0.84,0.109-1.03-0.271c-0.439-0.89-0.989-1.83-1.369-2.79c-0.62,0.62-1.311,1.17-2,1.771
		c-0.36,0.3-0.83,0.25-1.091-0.141c-0.18-0.27-1.93-2.92-2.909-2.02c0.039,0.08,0.079,0.14,0.119,0.22
		c0.25,0.54-0.229,1.011-0.67,0.96c-0.189,0.851-0.09,1.73,0.04,2.61c0,0.04,0,0.07,0,0.1c2.95-1.8,6.5,0.57,5.261,5.301
		c-0.011,0.029-0.03,0.05-0.04,0.069c1.279,0.9,2.159,2.29,2.22,4.25c0.03,0.71-0.98,0.79-1.19,0.16
		c-1.029-3.09-3.51-4.96-6.92-4.24c-3.34,0.721-5.31,3.2-4.51,6.61c0.52-0.06,1.05-0.12,1.57-0.19c-0.88-2.35-0.16-4.92,2.54-5.449
		c2.739-0.53,4.88,1.68,5.649,4.08c0.01,0.039,0.01,0.079,0.01,0.119c2.181-0.39,4.36-0.779,6.551-1.13c0-0.06,0-0.109,0.02-0.17
		C48.756,15.957,50.417,13.827,52.567,12.186z M27.517,33.577c9.489-0.25,19.02-4.261,23.27-13.011
		c-9.649,1.36-19.18,4.181-29.02,3.03c-3.07-0.359-6.11-0.859-9.16-1.34c-2.21-0.34-5.65-1.46-7.91-0.94
		c-0.02,0.011-0.04-0.01-0.05-0.01C9.887,29.356,17.497,33.836,27.517,33.577z M40.617,13.846c0.271-1.39,0.48-4.27-1.72-4.16
		c-1.66,0.09-2.55,1.32-3.24,2.67c-0.24,0.46-0.97,0.45-1.21,0c-0.44-0.8-0.95-1.58-1.35-2.409c-0.94,0.92-2.011,1.739-2.591,2.93
		c-0.18,0.36-0.689,0.37-0.96,0.12c-0.59-0.62-1.26-1.141-2-1.561c-1.8,0.33-2.38,1.24-1.76,2.73c0.07,0.42-0.51,0.6-0.64,0.18
		c-0.45-1.46-0.92-3.46,0.81-4.229c1.311-0.591,2.8,0.54,3.86,1.479c0.84-1.32,2.05-2.2,3.04-3.479
		c0.34-0.431,1.06-0.15,1.189,0.319c0.21,0.771,0.62,1.49,1.03,2.19c0.28-0.38,0.59-0.7,0.9-0.97c-0.13-0.051-0.24-0.15-0.29-0.341
		c-0.32-1.229-0.561-2.899,0.01-4.109c-0.96-1.34-2.66-1.22-5.12,0.39c-0.3,0.4-0.92,0.49-1.21,0c-1.77-3.06-5.26-3.85-7.25-0.57
		c-0.24,0.391-0.75,0.44-1.08,0.131c-1.84-1.681-4.76-1.44-4.81,1.25c1.55,0.31,2.34,1.56,2.88,3c1.609-0.601,3.6-0.771,4.649,0.859
		c0.801,1.24,1.021,2.96,0.61,4.431c2.46,0.569,4.26,4.069,5.61,6.729c0.21-0.02,0.41-0.03,0.62-0.05
		C28.707,14.947,36.017,12.026,40.617,13.846z M40.117,20.046c-0.58-1.75-2.1-3.48-4.13-3.25c-2.12,0.229-2.64,2.33-2.32,4.14
		c0,0.04,0,0.07,0,0.101C35.817,20.766,37.966,20.417,40.117,20.046z M24.546,21.606c1.381,0.021,2.74-0.01,4.101-0.09
		c-0.66-1.3-1.271-2.64-2.101-3.84c-0.81-1.18-1.67-1.85-2.609-1.939c-0.09,0.159-0.181,0.319-0.28,0.47
		c-0.27,0.35-0.979,0.3-0.95-0.24c-0.319,0.14-0.649,0.33-0.99,0.6c0.131,0.16,0.23,0.33,0.351,0.49c0.51,0.141,1.01,0.34,1.46,0.61
		c0.5,0.31,0.32,1.189-0.311,1.149c-0.02,0-0.029,0-0.05,0C23.657,19.726,24.086,20.676,24.546,21.606z M22.927,14.716
		c0.189-0.88,0.399-1.76,0.13-2.63c-0.65-2.18-2.49-1.8-4.17-1.12c-0.33,0.14-0.771-0.14-0.841-0.47
		c-0.93-4.53-4.38-2.78-6.239,0.01c0.38,0.57-0.311,1.31-0.841,0.78c-0.77-0.79-1.67-1.92-2.819-2.141
		c-1.62-0.31-1.74,1.74-1.87,2.86c-0.04,0.32-0.32,0.63-0.68,0.51c-1.07-0.37-2.141-0.21-3.2-0.35c0.03,0.91,0.13,1.96,1.06,2.25
		c0.61,0.2,1.24,0.32,1.851,0.5c0,0,0.01,0,0.01,0.01c0.229-0.08,0.47-0.13,0.71-0.15c1.229-0.119,2.16,0.341,2.79,1.091
		c0.42-5.49,8.78-3.32,11.85,0.17C21.466,15.306,22.216,14.886,22.927,14.716z M23.907,21.596c-0.65-0.99-1.27-2.01-1.96-2.97
		c-0.76-0.16-1.52-0.311-2.3-0.19c0.02,0.03,0.03,0.051,0.05,0.08c0.2,0.471-0.39,1.061-0.78,0.601c-0.1-0.13-0.2-0.25-0.3-0.38
		c-0.76,0.369-1.26,0.979-1.52,1.899c-0.03,0.08-0.07,0.15-0.11,0.21c1.33,0.24,2.61,0.46,3.78,0.57
		C21.817,21.516,22.867,21.566,23.907,21.596z M18.847,17.096c0.229-0.07,0.46-0.12,0.71-0.16c-1.25-1.37-2.73-2.39-4.641-2.84
		c-2.08-0.5-4.76-0.439-5.38,1.94C12.657,14.407,16.637,14.296,18.847,17.096z M15.807,20.276c0.239-1.21,0.939-2.1,1.859-2.659
		c-0.729-0.811-1.56-1.49-2.72-1.78c-1.97-0.48-3.79-0.04-5.58,0.81c0,0.011-0.01,0.021-0.01,0.03c0.45,0.94,0.6,2.1,0.439,3.18
		c1.98,0.061,4.04,0.41,6.04,0.78C15.796,20.526,15.777,20.417,15.807,20.276z"/>
	<path fill="#FF4121" d="M42.982,19.043c-0.023-0.038-0.05-0.071-0.065-0.117c-1.029-3.09-3.51-4.96-6.92-4.24
		c-3.34,0.721-5.31,3.2-4.51,6.61c0.52-0.06,1.05-0.12,1.57-0.19c-0.88-2.35-0.16-4.92,2.54-5.449c2.739-0.53,4.88,1.68,5.649,4.08
		c0.01,0.039,0.01,0.079,0.01,0.119c0.602-0.107,1.204-0.213,1.806-0.319C43.025,19.375,43.001,19.208,42.982,19.043z"/>
	<path fill="#FF4121" d="M45.482,18.189c0.055,0.075-0.15,0.469-0.15,0.586c0,0.211,0.264,0.114,0.272,0.323
		c0.734-0.125,1.467-0.254,2.203-0.372c0-0.06,0-0.109,0.02-0.17c0.93-2.6,2.59-4.729,4.74-6.37
		C48.711,11.07,45.546,14.191,45.482,18.189z"/>
	<path fill="#99B815" d="M38.897,9.686c2.2-0.109,1.99,2.771,1.72,4.16c-4.6-1.82-11.91,1.101-10.02,7.53
		c-0.21,0.02-0.41,0.03-0.62,0.05c-1.351-2.66-3.15-6.16-5.61-6.729c0.41-1.471,0.19-3.19-0.61-4.431
		c-1.05-1.63-3.04-1.46-4.649-0.859c-0.54-1.44-1.33-2.69-2.88-3c0.05-2.69,2.97-2.931,4.81-1.25c0.33,0.31,0.84,0.26,1.08-0.131
		c1.99-3.279,5.48-2.489,7.25,0.57c0.29,0.49,0.91,0.4,1.21,0c2.46-1.609,4.16-1.729,5.12-0.39c-0.57,1.21-0.33,2.88-0.01,4.109
		c0.05,0.19,0.16,0.29,0.29,0.341c-0.311,0.27-0.62,0.59-0.9,0.97c-0.41-0.7-0.82-1.42-1.03-2.19c-0.13-0.47-0.85-0.75-1.189-0.319
		c-0.99,1.279-2.2,2.159-3.04,3.479c-1.061-0.939-2.55-2.07-3.86-1.479c-1.729,0.77-1.26,2.77-0.81,4.229
		c0.13,0.42,0.71,0.24,0.64-0.18c-0.62-1.49-0.04-2.4,1.76-2.73c0.74,0.42,1.41,0.94,2,1.561c0.271,0.25,0.78,0.24,0.96-0.12
		c0.58-1.19,1.65-2.01,2.591-2.93c0.399,0.829,0.909,1.609,1.35,2.409c0.24,0.45,0.97,0.46,1.21,0
		C36.347,11.006,37.237,9.776,38.897,9.686z"/>
	<path fill="#FF4121" d="M35.987,16.796c2.03-0.23,3.55,1.5,4.13,3.25c-2.15,0.37-4.3,0.72-6.45,0.99c0-0.03,0-0.061,0-0.101
		C33.347,19.126,33.867,17.026,35.987,16.796z"/>
	<path fill="#FF4121" d="M28.647,21.516c-1.36,0.08-2.72,0.11-4.101,0.09c-0.46-0.93-0.89-1.88-1.38-2.79c0.021,0,0.03,0,0.05,0
		c0.631,0.04,0.811-0.84,0.311-1.149c-0.45-0.271-0.95-0.47-1.46-0.61c-0.12-0.16-0.22-0.33-0.351-0.49
		c0.341-0.27,0.671-0.46,0.99-0.6c-0.029,0.54,0.681,0.59,0.95,0.24c0.1-0.15,0.19-0.311,0.28-0.47c0.939,0.09,1.8,0.76,2.609,1.939
		C27.376,18.876,27.987,20.216,28.647,21.516z"/>
	<path fill="#99B815" d="M23.057,12.086c0.27,0.87,0.06,1.75-0.13,2.63c-0.711,0.17-1.461,0.59-2.261,1.32
		c-3.069-3.49-11.43-5.66-11.85-0.17c-0.63-0.75-1.561-1.21-2.79-1.091c-0.24,0.021-0.48,0.07-0.71,0.15c0-0.01-0.01-0.01-0.01-0.01
		c-0.61-0.18-1.24-0.3-1.851-0.5c-0.93-0.29-1.029-1.34-1.06-2.25c1.06,0.14,2.13-0.021,3.2,0.35c0.359,0.12,0.64-0.189,0.68-0.51
		c0.13-1.12,0.25-3.17,1.87-2.86c1.149,0.221,2.05,1.351,2.819,2.141c0.53,0.529,1.221-0.21,0.841-0.78
		c1.859-2.79,5.31-4.54,6.239-0.01c0.07,0.33,0.511,0.609,0.841,0.47C20.567,10.287,22.407,9.907,23.057,12.086z"/>
	<path fill="#99B815" d="M21.947,18.626c0.69,0.96,1.31,1.979,1.96,2.97c-1.04-0.03-2.09-0.08-3.14-0.18
		c-1.17-0.11-2.45-0.33-3.78-0.57c0.04-0.06,0.08-0.13,0.11-0.21c0.26-0.92,0.76-1.53,1.52-1.899c0.1,0.13,0.2,0.25,0.3,0.38
		c0.391,0.46,0.98-0.13,0.78-0.601c-0.02-0.029-0.03-0.05-0.05-0.08C20.427,18.316,21.187,18.466,21.947,18.626z"/>
	<path fill="#FF4121" d="M19.557,16.936c-0.25,0.04-0.48,0.09-0.71,0.16c-2.21-2.8-6.19-2.689-9.311-1.06
		c0.62-2.38,3.3-2.44,5.38-1.94C16.827,14.546,18.307,15.566,19.557,16.936z"/>
</g>
<g>
</g>
<g>
</g>
<g>
</g>
<g>
</g>
<g>
</g>
<g>
</g>
<g>
</g>
<g>
</g>
<g>
</g>
<g>
</g>
<g>
</g>
</svg>
