<?xml version="1.0" encoding="utf-8"?>
<!-- Generator: Adobe Illustrator 16.0.0, SVG Export Plug-In . SVG Version: 6.00 Build 0)  -->
<!DOCTYPE svg PUBLIC "-//W3C//DTD SVG 1.1//EN" "http://www.w3.org/Graphics/SVG/1.1/DTD/svg11.dtd">
<svg version="1.1" id="Ebene_1" xmlns="http://www.w3.org/2000/svg" xmlns:xlink="http://www.w3.org/1999/xlink" x="0px" y="0px"
	 width="69.729px" height="51.794px" viewBox="0 0 69.729 51.794" enable-background="new 0 0 69.729 51.794" xml:space="preserve">
<g>
	<path fill="#9FC01A" d="M24.968,17.012c0,0,2.392,2.596,3.919,2.188s3.359-2.188,3.359-2.188s4.021-0.152,4.631-0.916
		c0.611-0.764,4.632,1.883,6.922,2.087c2.291,0.203,4.123,0.407,3.868-0.611c-0.254-1.018-2.799-5.242-2.799-5.242
		s4.632-0.407,4.733-2.596s-2.087-3.41-3.155-3.563c-1.069-0.152-4.784-0.152-4.784-0.152l-0.51-3.817c0,0-0.967-0.356-3.054,0.254
		c-2.087,0.611-3.175,1.335-3.175,1.335s-2.271-0.215-3.034-0.012c-0.764,0.204-1.985,0.407-2.393,1.833
		c-0.407,1.425-0.509,3.155-0.509,3.155s-2.85-0.814-4.835,0.661c-1.985,1.477-5.191,5.039-5.446,5.752
		c-0.254,0.712-0.458,2.239-0.458,2.239s2.545,1.068,3.919,0.713C23.543,17.775,24.968,17.012,24.968,17.012z"/>
	<path fill="#F6F6F6" d="M60.794,26.71c2.93,1.29,5.06,3.37,4.149,7.09c-0.77,3.12-3.54,5.711-6,7.561
		c-7.609,5.72-19.029,7.08-28.21,6.729c-6.159-0.239-12.529-0.97-18.239-3.399c-7.62-3.25-11.391-13.43-4.051-18.11
		c-5.67,5.55-2.39,11.87,4.311,15.44c6.38,3.39,14.04,4.8,21.18,3.819c5.09-0.699,40.47-7.29,26.71-17.46
		C60.764,27.88,60.804,27.311,60.794,26.71z"/>
	<path fill="#1D1D1B" d="M60.354,24.12c7.26,2.7,9.471,9.271,3.73,15.59c-7.931,8.71-22.13,11.08-33.351,10.32
		c-7.989-0.54-19.5-1.18-24.96-8.06c-4.83-6.101-4.46-16.091,4.32-17.75c0.07-0.171,0.13-0.33,0.2-0.49
		c-0.8,0.04-1.57,0.01-2.36-0.24c-0.609-0.2-0.84-0.83-0.57-1.4c2.271-4.659,6.061-8.989,9.91-12.409c0.28-0.25,0.71-0.29,0.99,0
		c0.68,0.699,1.43,1.359,1.99,2.159c2.02-2.619,4.76-4.479,8.17-3.54c-0.15-1.329,0-2.72,0.91-3.75c1.13-1.279,2.779-1.43,4.37-1.13
		c0.63,0.12,0.489,1.2-0.15,1.13c-1.16-0.13-2.47-0.01-3.26,0.961c-0.8,0.989-0.86,2.329-0.74,3.539c0,0.021-0.01,0.04-0.01,0.061
		c0,0.04-0.01,0.08-0.01,0.12c-0.011,0.01-0.011,0.01-0.011,0.01c-0.04,0.21-0.199,0.38-0.479,0.34c-3.271-0.43-5.92,0.86-8.03,3.34
		c-0.99,1.15-1.76,2.45-2.35,3.851c-0.601,1.42,2.27,1.24,3.21,1.04c-0.011-0.021-0.021-0.04-0.03-0.061
		c-0.3-0.569,0.52-1.05,0.87-0.5c0.04,0.07,0.08,0.141,0.13,0.21c0.68-0.279,1.35-0.59,2.04-0.88c0.4-0.17,0.7,0.181,0.59,0.49
		c0.17-0.07,0.38-0.06,0.53,0.08c1.359,1.7,3.12,1.51,5.29-0.55c0.16-0.221,0.45-0.42,0.74-0.301c1.85,0.721,2.869-0.3,4.359-0.96
		c0.25-0.109,0.431-0.21,0.71-0.159c1.36,0.26,2.971,0.979,4.11,1.729c0.02,0.021,0.04,0.04,0.05,0.05
		c0.91,0.17,1.78,0.53,2.66,0.761c0.29,0.069,3.02,0.8,2.91-0.08c-0.181-1.391-1.24-2.65-1.98-3.771
		c-0.149-0.229-0.12-0.439-0.02-0.6h-0.01c-1.091,0.029-1.091-1.67,0-1.69c0.609,0,1.75-0.1,2.71-0.42c0.43-0.32,0.93-0.67,1.47-1
		c0.189-0.38,0.16-0.87-0.26-1.47c-1.431-2.07-4.311-2.22-6.561-1.811c-0.439,0.08-0.84-0.18-0.859-0.649
		c-0.04-1.15-0.341-2.25-0.48-3.38c-2.03-0.301-3.67,0.35-5.42,1.439c-0.29,0.181-0.73-0.2-0.5-0.5
		c1.63-2.149,4.14-2.649,6.689-2.14c0.301,0.06,0.471,0.35,0.49,0.63c0.07,1.08,0.351,2.11,0.5,3.17c2.79-0.35,6.71,0.14,7.67,3.18
		c0.09,0.28,0.13,0.54,0.15,0.801c1.62-0.69,3.34-0.83,4.54,0.68c0.88,1.1,1.25,2.38,1.439,3.77c0.16,1.16,0.33,2.641,0,3.851
		C58.113,19.62,59.634,21.79,60.354,24.12z M64.943,33.8c0.91-3.72-1.22-5.8-4.149-7.09c0.01,0.601-0.03,1.17-0.15,1.67
		c13.76,10.17-21.62,16.761-26.71,17.46c-7.14,0.98-14.8-0.43-21.18-3.819c-6.7-3.57-9.98-9.891-4.311-15.44
		c-7.34,4.681-3.569,14.86,4.051,18.11c5.71,2.43,12.08,3.16,18.239,3.399c9.181,0.351,20.601-1.01,28.21-6.729
		C61.403,39.511,64.174,36.92,64.943,33.8z M52.674,39.12c3.88-1.41,11.29-4.13,6.939-8.609c-1.34,1.63-3.659,2.42-6.18,2.77
		c-0.03,0-0.05-0.01-0.08-0.01c0.141,1.31,0.24,2.62,0.28,3.95c0.02,0.52-0.43,0.909-0.92,0.93c-2.771,0.09-5.54-0.061-8.3-0.19
		c-1.92-0.08-4.34,0.21-6.29-0.25c-0.12,0.67-0.23,1.34-0.33,2.011c-0.07,0.47-0.681,0.76-1.101,0.619
		c-4.399-1.43-9.52-2.79-13.649-5.079c-0.181,0.569-0.96,0.609-1.34,0.189c-0.04,0-0.08,0.01-0.12-0.01
		c-4.09-1.09-8.32-1.851-12.23-3.51c-0.319-0.141-0.529-0.58-0.52-0.9c0.029-0.82,0.109-1.9,0.29-3.04
		c-1.721,2.86-2.721,6.12,0.069,8.85c2.66,2.62,6.21,4.23,9.761,5.29c5.279,1.58,10.25,2.15,15.67,1.311
		C40.714,42.49,46.884,41.24,52.674,39.12z M53.224,32.13c3.4-0.779,6.21-2.739,5.65-6.13c-0.09-0.029-0.17-0.05-0.261-0.08
		c-0.97-0.29-0.979-1.439-0.42-1.97c-1.25-2.79-3.229-5.229-5.359-7.43c-1.42,2.45-1.57,5.24-1.62,8.05
		c0.29,0.08,0.55,0.32,0.63,0.59C52.483,27.48,52.924,29.79,53.224,32.13z M54.584,15.88c0.029-1.47,0.16-2.96-0.721-4.279
		c-0.93-1.4-2.479-1.09-3.88-0.41c-0.81,1.18-2.56,1.78-4.13,1.99c0.021,0.02,0.05,0.04,0.07,0.06c0.64,0.86,3.88,5.3,1.04,5.95
		c-2.16,0.5-4.021-0.83-6.09-1.08c-0.45-0.05-0.771-0.48-0.521-0.92c-0.41,0.75,0.101,0.609-1.01,0.13
		c-0.59-0.26-1.18-0.49-1.79-0.67c-0.36-0.11-0.56-0.08-0.74,0.04c1.92,1.38,3.83,2.78,5.681,4.24c1.72,1.359,4.02,3.199,4.68,5.35
		c0.84-0.44,1.68-0.86,2.55-1.24c-0.01-3.62,0.26-7.069,2.3-10.2c0.29-0.449,0.86-0.51,1.25-0.159
		C53.704,15.061,54.144,15.46,54.584,15.88z M51.773,36.25c-0.06-3.25-0.54-6.43-1.31-9.59c-0.07,0-0.14-0.01-0.21-0.03
		c-4.05,1.73-7.63,4.221-11.28,6.681c-0.04,0.029-0.08,0.04-0.12,0.05c-0.12,0.75-0.24,1.49-0.37,2.229
		c1.891-0.27,4.15,0.181,5.931,0.28C46.863,36.011,49.324,36.141,51.773,36.25z M45.943,26.971c-1.729-1.25-3.13-3.341-4.63-4.851
		c-1.67-1.68-3.479-3.17-5.2-4.79c-0.569,0.47-1.38,0.78-2.18,0.82c0.93,2.26,1.71,4.6,2.16,7c0.1,0.54-0.24,0.93-0.65,1.06
		c1.061-0.05,2.12-0.05,3.181,0.03c0.45,0.03,0.85,0.36,0.84,0.84c-0.021,1.48-0.16,2.95-0.351,4.41
		C41.324,29.86,43.574,28.32,45.943,26.971z M37.733,27.851c-3.02-0.19-6.08,0.109-9.029,0.76c-1.82,0.4-4.04,1.57-5.86,1.52
		c-0.17,0-0.3-0.189-0.2-0.35c0.51-0.86,1.62-1.43,2.84-1.84c-0.31-0.03-0.58-0.22-0.659-0.63c-0.53-2.94-1.23-5.83-2.48-8.54
		c-1.61,0.42-3.27,0.24-4.86-0.79c-0.189-0.13-0.34-0.391-0.25-0.63c0.57-1.48,1.37-3.12,2.36-4.601
		c-0.67-0.42-1.23-0.979-1.79-1.55c-3.04,3.49-5.89,6.93-8.24,10.92c0.471,0.15,0.94,0.3,1.41,0.44c1.05-1.46,2.601-2.15,4.87-1.05
		c4.08,1.97,6.43,7.1,7.07,11.6c4.51,0.86,8.979,3.439,13.319,5.14C36.813,34.79,37.534,31.36,37.733,27.851z M34.983,26.23
		c-0.27-0.05-0.51-0.23-0.59-0.61c-0.569-2.6-1.069-5.149-1.939-7.68c-0.521,0.02-1.12,0.57-1.74,1.12
		c0.04,0.14,0.04,0.279-0.05,0.42c-0.36,0.56-0.9,0.74-1.41,1.17c-0.43,0.36-0.87,0.75-1.26,1.17c-0.83,0.91-1.471,1.96-1.87,3.13
		c-0.011,0.021-0.03,0.04-0.03,0.05c0.15,0.61,0.29,1.221,0.4,1.851c0.069,0.39-0.101,0.689-0.351,0.88
		c1.13-0.32,2.28-0.53,3.09-0.69C31.134,26.65,33.054,26.351,34.983,26.23z M26.994,20.82c0.199-0.25,0.43-0.53,0.699-0.81
		c-1.05-0.391-1.79-1.32-2.46-2.261c-0.09-0.13-0.1-0.25-0.069-0.359c-0.57,0.409-1.16,0.739-1.761,1
		c0.91,1.59,1.631,3.239,2.2,4.96C25.934,22.44,26.394,21.59,26.994,20.82z M21.403,34.25c-0.5-3.92-2.04-8.66-5.51-10.85
		c-4.29-2.7-4.92,3.71-4.96,6.899C14.424,31.59,18.104,32.521,21.403,34.25z"/>
	<path fill="#F6F6F6" d="M59.613,30.511c4.351,4.479-3.06,7.199-6.939,8.609c-5.79,2.12-11.96,3.37-18.05,4.32
		c-5.42,0.84-10.391,0.27-15.67-1.311c-3.551-1.06-7.101-2.67-9.761-5.29c-2.79-2.729-1.79-5.989-0.069-8.85
		c-0.181,1.14-0.261,2.22-0.29,3.04c-0.01,0.32,0.2,0.76,0.52,0.9c3.91,1.659,8.141,2.42,12.23,3.51c0.04,0.02,0.08,0.01,0.12,0.01
		c0.38,0.42,1.159,0.38,1.34-0.189c4.13,2.289,9.25,3.649,13.649,5.079c0.42,0.141,1.03-0.149,1.101-0.619
		c0.1-0.671,0.21-1.341,0.33-2.011c1.95,0.46,4.37,0.17,6.29,0.25c2.76,0.13,5.529,0.28,8.3,0.19c0.49-0.021,0.939-0.41,0.92-0.93
		c-0.04-1.33-0.14-2.641-0.28-3.95c0.03,0,0.05,0.01,0.08,0.01C55.954,32.931,58.273,32.141,59.613,30.511z"/>
	<path fill="#FBBE3A" d="M58.874,26c0.56,3.391-2.25,5.351-5.65,6.13c-0.3-2.34-0.74-4.649-1.38-6.97
		c-0.08-0.27-0.34-0.51-0.63-0.59c0.05-2.81,0.2-5.6,1.62-8.05c2.13,2.2,4.109,4.64,5.359,7.43c-0.56,0.53-0.55,1.68,0.42,1.97
		C58.704,25.95,58.784,25.971,58.874,26z M57.363,28.15c0.261-0.08,0.461-0.37,0.36-0.65c-0.17-0.5-0.7-0.649-1.03-1.04
		c-0.319-0.37-0.489-0.899-0.729-1.319c-0.271-0.48-1.14-0.15-0.92,0.38c0.24,0.56,0.399,1.149,0.71,1.67
		C56.063,27.71,56.714,28.34,57.363,28.15z M54.394,23.46c0.181-0.41,0.36-0.76,0.04-1.16c-0.14-0.17-0.41-0.21-0.609-0.159
		c-0.48,0.12-0.811,0.87-1.051,1.26c-0.399,0.66,0.58,1.189,1.011,0.59c0.05-0.07,0.1-0.14,0.159-0.22
		C54.124,23.761,54.294,23.681,54.394,23.46z"/>
	<path fill="#1D1D1B" d="M57.724,27.5c0.101,0.28-0.1,0.57-0.36,0.65c-0.649,0.189-1.3-0.44-1.609-0.96
		c-0.311-0.521-0.47-1.11-0.71-1.67c-0.22-0.53,0.649-0.86,0.92-0.38c0.24,0.42,0.41,0.949,0.729,1.319
		C57.023,26.851,57.554,27,57.724,27.5z"/>
	<path fill="#FBBE3A" d="M53.863,11.601c0.881,1.319,0.75,2.81,0.721,4.279c-0.44-0.42-0.88-0.819-1.311-1.199
		c-0.39-0.351-0.96-0.29-1.25,0.159c-2.04,3.131-2.31,6.58-2.3,10.2c-0.87,0.38-1.71,0.8-2.55,1.24c-0.66-2.15-2.96-3.99-4.68-5.35
		c-1.851-1.46-3.761-2.86-5.681-4.24c0.181-0.12,0.38-0.15,0.74-0.04c0.61,0.18,1.2,0.41,1.79,0.67c1.11,0.479,0.6,0.62,1.01-0.13
		c-0.25,0.439,0.07,0.87,0.521,0.92c2.069,0.25,3.93,1.58,6.09,1.08c2.84-0.65-0.4-5.09-1.04-5.95c-0.021-0.02-0.05-0.04-0.07-0.06
		c1.57-0.21,3.32-0.811,4.13-1.99C51.384,10.511,52.934,10.2,53.863,11.601z M50.903,13.44c0.671-0.561-0.43-1.561-0.989-0.771
		c-0.44,0.62-0.511,1.271-0.42,2.011c0.069,0.52,0.739,0.51,0.8,0C50.363,14.16,50.494,13.78,50.903,13.44z M47.534,23.53
		c0.29,0.09,0.59-0.21,0.5-0.5c-0.23-0.76-1.301-1.41-2.08-1.41c-0.42,0.01-0.54,0.69-0.11,0.76
		C46.584,22.49,46.844,23.32,47.534,23.53z"/>
	<path fill="#1D1D1B" d="M54.434,22.3c0.32,0.4,0.141,0.75-0.04,1.16c-0.1,0.221-0.27,0.301-0.45,0.311
		c-0.06,0.08-0.109,0.149-0.159,0.22c-0.431,0.6-1.41,0.07-1.011-0.59c0.24-0.39,0.57-1.14,1.051-1.26
		C54.023,22.09,54.294,22.13,54.434,22.3z"/>
	<path fill="#1D1D1B" d="M49.914,12.67c0.56-0.79,1.66,0.21,0.989,0.771c-0.409,0.34-0.54,0.72-0.609,1.24
		c-0.061,0.51-0.73,0.52-0.8,0C49.403,13.94,49.474,13.29,49.914,12.67z"/>
	<path fill="#FBBE3A" d="M50.464,26.66c0.77,3.16,1.25,6.34,1.31,9.59c-2.449-0.109-4.91-0.239-7.359-0.38
		c-1.78-0.1-4.04-0.55-5.931-0.28c0.13-0.739,0.25-1.479,0.37-2.229c0.04-0.01,0.08-0.021,0.12-0.05
		c3.65-2.46,7.23-4.95,11.28-6.681C50.324,26.65,50.394,26.66,50.464,26.66z M48.964,34.78c0.439,0.51,1.25-0.3,0.74-0.74
		c-0.44-0.39-1.051-0.81-1.141-1.42c-0.06-0.43-0.739-0.32-0.729,0.101C47.834,33.54,48.454,34.19,48.964,34.78z M44.733,31.95
		c0.24-0.28,0.5-0.47,0.44-0.88c-0.07-0.43-0.64-0.49-0.91-0.24c-0.08,0.07-0.15,0.17-0.22,0.26c-0.391,0.471-0.8,1.07-0.811,1.631
		c-0.02,0.609,0.86,0.579,0.931,0C44.184,32.57,44.563,32.141,44.733,31.95z"/>
	<path fill="#1D1D1B" d="M49.704,34.04c0.51,0.44-0.301,1.25-0.74,0.74c-0.51-0.59-1.13-1.24-1.13-2.06
		c-0.01-0.421,0.67-0.53,0.729-0.101C48.653,33.23,49.264,33.65,49.704,34.04z"/>
	<path fill="#1D1D1B" d="M48.034,23.03c0.09,0.29-0.21,0.59-0.5,0.5c-0.69-0.21-0.95-1.04-1.69-1.15
		c-0.43-0.069-0.31-0.75,0.11-0.76C46.733,21.62,47.804,22.271,48.034,23.03z"/>
	<path fill="#1D1D1B" d="M45.174,31.07c0.06,0.41-0.2,0.6-0.44,0.88c-0.17,0.19-0.55,0.62-0.569,0.771
		c-0.07,0.579-0.95,0.609-0.931,0c0.011-0.561,0.42-1.16,0.811-1.631c0.069-0.09,0.14-0.189,0.22-0.26
		C44.534,30.58,45.104,30.641,45.174,31.07z"/>
	<path fill="#1D1D1B" d="M43.164,25.9c0.319,0.14,0.439,0.54,0.27,0.84c-0.18,0.31-0.55,0.34-0.87,0.37
		c-0.39,0.03-0.58-0.3-0.56-0.62c-0.18-0.06-0.37-0.13-0.561-0.15c-0.5-0.05-0.52-0.76,0-0.779
		C41.983,25.54,42.664,25.67,43.164,25.9z"/>
	<path fill="#FBBE3A" d="M41.313,22.12c1.5,1.51,2.9,3.601,4.63,4.851c-2.369,1.35-4.619,2.89-6.83,4.52
		c0.19-1.46,0.33-2.93,0.351-4.41c0.01-0.479-0.39-0.81-0.84-0.84c-1.061-0.08-2.12-0.08-3.181-0.03c0.41-0.13,0.75-0.52,0.65-1.06
		c-0.45-2.4-1.23-4.74-2.16-7c0.8-0.04,1.61-0.351,2.18-0.82C37.834,18.95,39.644,20.44,41.313,22.12z M43.434,26.74
		c0.17-0.3,0.05-0.7-0.27-0.84c-0.5-0.23-1.181-0.36-1.721-0.34c-0.52,0.02-0.5,0.729,0,0.779c0.19,0.021,0.381,0.091,0.561,0.15
		c-0.021,0.32,0.17,0.65,0.56,0.62C42.884,27.08,43.254,27.05,43.434,26.74z M39.214,23.3c0.16-0.989-1.34-0.989-1.18,0l0.09,0.54
		c0.08,0.49,0.92,0.49,1,0C39.153,23.66,39.184,23.48,39.214,23.3z"/>
	<path fill="#1D1D1B" d="M38.034,23.3c-0.16-0.989,1.34-0.989,1.18,0c-0.03,0.181-0.061,0.36-0.09,0.54c-0.08,0.49-0.92,0.49-1,0
		L38.034,23.3z"/>
	<path fill="#FBBE3A" d="M28.704,28.61c2.949-0.65,6.01-0.95,9.029-0.76c-0.199,3.51-0.92,6.939-1.5,10.399
		c-4.34-1.7-8.81-4.279-13.319-5.14c-0.641-4.5-2.99-9.63-7.07-11.6c-2.27-1.101-3.82-0.41-4.87,1.05
		c-0.47-0.141-0.939-0.29-1.41-0.44c2.351-3.99,5.2-7.43,8.24-10.92c0.56,0.57,1.12,1.13,1.79,1.55c-0.99,1.48-1.79,3.12-2.36,4.601
		c-0.09,0.239,0.061,0.5,0.25,0.63c1.591,1.03,3.25,1.21,4.86,0.79c1.25,2.71,1.95,5.6,2.48,8.54c0.079,0.41,0.35,0.6,0.659,0.63
		c-1.22,0.41-2.33,0.979-2.84,1.84c-0.1,0.16,0.03,0.35,0.2,0.35C24.664,30.181,26.884,29.011,28.704,28.61z M35.094,30.32
		c0.22-0.24,0.24-0.6,0-0.84c-0.86-0.891-2.21,0.2-2.55,1.06c-0.08,0.21,0.02,0.46,0.16,0.61c0.159,0.16,0.13,0.24,0.149,0.439
		c0.021,0.171,0.25,0.171,0.271,0c-0.04-0.17,0.029-0.26,0.189-0.279c0.16-0.04,0.29-0.141,0.38-0.29c0.07-0.12,0.15-0.21,0.28-0.28
		C34.344,30.53,34.773,30.681,35.094,30.32z M33.403,34.931c0.631,0.18,0.9-0.65,0.421-0.99c-0.671-0.48-1.61-0.391-2.271-0.91
		c-0.36-0.29-0.82,0.15-0.51,0.5c0.27,0.31,0.58,0.52,0.939,0.71C32.443,34.471,32.914,34.78,33.403,34.931z M19.004,19.75
		c0.01-0.21-0.07-0.359-0.19-0.47c-0.01-0.07-0.029-0.14-0.04-0.21c-0.06-0.44-0.819-0.44-0.88,0c-0.01,0.07-0.03,0.14-0.04,0.21
		c-0.12,0.11-0.2,0.26-0.189,0.47c0.01,0.21,0.02,0.42,0.04,0.63c-0.03,0.42,0.3,0.62,0.63,0.61c0.33,0.01,0.66-0.19,0.64-0.61
		C18.983,20.17,18.994,19.96,19.004,19.75z M14.664,20.04c0.399,0.34,0.92-0.17,0.58-0.58c-0.381-0.439-1-0.89-1.101-1.489
		c-0.06-0.381-0.649-0.271-0.649,0.09C13.483,18.88,14.074,19.54,14.664,20.04z"/>
	<path fill="#1D1D1B" d="M35.094,29.48c0.24,0.24,0.22,0.6,0,0.84c-0.32,0.36-0.75,0.21-1.12,0.42c-0.13,0.07-0.21,0.16-0.28,0.28
		c-0.09,0.149-0.22,0.25-0.38,0.29c-0.16,0.02-0.229,0.109-0.189,0.279c-0.021,0.171-0.25,0.171-0.271,0
		c-0.02-0.199,0.01-0.279-0.149-0.439c-0.141-0.15-0.24-0.4-0.16-0.61C32.884,29.681,34.233,28.59,35.094,29.48z"/>
	<path fill="#FBBE3A" d="M34.394,25.62c0.08,0.38,0.32,0.561,0.59,0.61c-1.93,0.12-3.85,0.42-5.75,0.81
		c-0.81,0.16-1.96,0.37-3.09,0.69c0.25-0.19,0.42-0.49,0.351-0.88c-0.11-0.63-0.25-1.24-0.4-1.851c0-0.01,0.02-0.029,0.03-0.05
		c0.399-1.17,1.04-2.22,1.87-3.13c0.39-0.42,0.83-0.81,1.26-1.17c0.51-0.43,1.05-0.61,1.41-1.17c0.09-0.141,0.09-0.28,0.05-0.42
		c0.62-0.55,1.22-1.101,1.74-1.12C33.324,20.471,33.824,23.021,34.394,25.62z M32.914,21.54c0.18-0.39,0.149-1.029,0.02-1.359
		c-0.2-0.5-0.82-0.5-1.02,0c-0.13,0.33-0.16,0.97,0.02,1.359c0.01,0.021,0.03,0.05,0.05,0.07c0.021,0.04,0.03,0.1,0.061,0.13
		c0.109,0.1,0.22,0.14,0.34,0.15c0.01,0,0.03,0,0.04,0s0.03,0,0.04,0c0.12-0.011,0.229-0.051,0.34-0.15
		c0.03-0.03,0.04-0.09,0.06-0.13C32.884,21.59,32.903,21.561,32.914,21.54z M31.634,24.04c0.35-0.39-0.12-1.109-0.58-0.76
		c-0.19,0.15-0.39,0.31-0.64,0.25c-0.24-0.06-0.4-0.29-0.67-0.35c-0.381-0.08-0.771,0.25-0.65,0.659
		c0.15,0.521,0.64,0.811,1.16,0.851C30.813,24.74,31.273,24.45,31.634,24.04z"/>
	<path fill="#1D1D1B" d="M33.824,33.94c0.479,0.34,0.21,1.17-0.421,0.99c-0.489-0.15-0.96-0.46-1.42-0.69
		c-0.359-0.19-0.67-0.4-0.939-0.71c-0.311-0.35,0.149-0.79,0.51-0.5C32.214,33.55,33.153,33.46,33.824,33.94z"/>
	<path fill="#1D1D1B" d="M32.934,20.181c0.13,0.33,0.16,0.97-0.02,1.359c-0.011,0.021-0.03,0.05-0.051,0.07
		c-0.02,0.04-0.029,0.1-0.06,0.13c-0.11,0.1-0.22,0.14-0.34,0.15c-0.01,0-0.03,0-0.04,0s-0.03,0-0.04,0
		c-0.12-0.011-0.23-0.051-0.34-0.15c-0.03-0.03-0.04-0.09-0.061-0.13c-0.02-0.021-0.04-0.05-0.05-0.07
		c-0.18-0.39-0.149-1.029-0.02-1.359C32.113,19.681,32.733,19.681,32.934,20.181z"/>
	<path fill="#1D1D1B" d="M31.054,23.28c0.46-0.35,0.93,0.37,0.58,0.76c-0.36,0.41-0.82,0.7-1.38,0.65
		c-0.521-0.04-1.01-0.33-1.16-0.851c-0.12-0.409,0.27-0.739,0.65-0.659c0.27,0.06,0.43,0.29,0.67,0.35
		C30.664,23.59,30.863,23.431,31.054,23.28z"/>
	<path fill="#FBBE3A" d="M15.894,23.4c3.47,2.189,5.01,6.93,5.51,10.85c-3.3-1.729-6.979-2.66-10.47-3.95
		C10.974,27.11,11.604,20.7,15.894,23.4z M18.954,29.33c-0.011-0.12-0.021-0.25-0.021-0.37c0.021-0.399-0.29-0.59-0.6-0.569
		c-0.311-0.021-0.62,0.17-0.59,0.569c-0.011,0.12-0.021,0.25-0.03,0.37c0,0.12,0.02,0.21,0.06,0.29
		c0.021,0.28,0.04,0.561,0.051,0.84c0.039,0.66,0.979,0.66,1.02,0l0.05-0.84C18.934,29.54,18.954,29.45,18.954,29.33z
		 M16.084,28.311c0.859-0.061,0.859-1.271,0-1.33c-0.45-0.03-0.891-0.07-1.33-0.101c-0.101-0.05-0.22-0.08-0.36-0.08
		c-0.26,0.011-0.52,0.011-0.77,0.021c-0.54-0.01-0.811,0.4-0.8,0.82c-0.011,0.42,0.26,0.84,0.8,0.83c0.25,0.01,0.51,0.01,0.77,0.02
		c0.141,0,0.26-0.03,0.36-0.08C15.193,28.38,15.634,28.34,16.084,28.311z"/>
	<path fill="#1D1D1B" d="M18.813,19.28c0.12,0.11,0.2,0.26,0.19,0.47s-0.021,0.42-0.03,0.63c0.021,0.42-0.31,0.62-0.64,0.61
		c-0.33,0.01-0.66-0.19-0.63-0.61c-0.021-0.21-0.03-0.42-0.04-0.63c-0.011-0.21,0.069-0.359,0.189-0.47
		c0.01-0.07,0.03-0.14,0.04-0.21c0.061-0.44,0.82-0.44,0.88,0C18.784,19.141,18.804,19.21,18.813,19.28z"/>
	<path fill="#1D1D1B" d="M18.934,28.96c0,0.12,0.01,0.25,0.021,0.37c0,0.12-0.021,0.21-0.061,0.29l-0.05,0.84
		c-0.04,0.66-0.98,0.66-1.02,0c-0.011-0.279-0.03-0.56-0.051-0.84c-0.04-0.08-0.06-0.17-0.06-0.29c0.01-0.12,0.02-0.25,0.03-0.37
		c-0.03-0.399,0.279-0.59,0.59-0.569C18.644,28.37,18.954,28.561,18.934,28.96z"/>
	<path fill="#1D1D1B" d="M16.084,26.98c0.859,0.06,0.859,1.27,0,1.33c-0.45,0.029-0.891,0.069-1.33,0.1
		c-0.101,0.05-0.22,0.08-0.36,0.08c-0.26-0.01-0.52-0.01-0.77-0.02c-0.54,0.01-0.811-0.41-0.8-0.83c-0.011-0.42,0.26-0.83,0.8-0.82
		c0.25-0.01,0.51-0.01,0.77-0.021c0.141,0,0.26,0.03,0.36,0.08C15.193,26.91,15.634,26.95,16.084,26.98z"/>
	<path fill="#1D1D1B" d="M15.244,19.46c0.34,0.41-0.181,0.92-0.58,0.58c-0.59-0.5-1.181-1.16-1.17-1.979
		c0-0.36,0.59-0.471,0.649-0.09C14.244,18.57,14.863,19.021,15.244,19.46z"/>
</g>
<g>
</g>
<g>
</g>
<g>
</g>
<g>
</g>
<g>
</g>
<g>
</g>
<g>
</g>
<g>
</g>
<g>
</g>
<g>
</g>
<g>
</g>
</svg>
